<?xml version="1.0" encoding="UTF-8" standalone="no"?>
<svg
   width="484"
   height="484"
   version="1.1"
   id="svg12214"
   sodipodi:docname="maze7.svg"
   inkscape:version="1.1.2 (0a00cf5339, 2022-02-04)"
   inkscape:export-filename="/home/nitron/ALSAI/worlds/pics/maze7.png"
   inkscape:export-xdpi="96.199997"
   inkscape:export-ydpi="96.199997"
   xmlns:inkscape="http://www.inkscape.org/namespaces/inkscape"
   xmlns:sodipodi="http://sodipodi.sourceforge.net/DTD/sodipodi-0.dtd"
   xmlns="http://www.w3.org/2000/svg"
   xmlns:svg="http://www.w3.org/2000/svg">
  <defs
     id="defs12218" />
  <sodipodi:namedview
     id="namedview12216"
     pagecolor="#ffffff"
     bordercolor="#666666"
     borderopacity="1.0"
     inkscape:pageshadow="2"
     inkscape:pageopacity="0.0"
     inkscape:pagecheckerboard="0"
     showgrid="false"
     inkscape:zoom="1.233054"
     inkscape:cx="461.05038"
     inkscape:cy="318.31534"
     inkscape:window-width="1858"
     inkscape:window-height="1016"
     inkscape:window-x="1982"
     inkscape:window-y="27"
     inkscape:window-maximized="1"
     inkscape:current-layer="svg12214" />
  <title
     id="title11322">30 by 30 orthogonal maze</title>
  <desc
     id="desc11324">30 by 30 orthogonal maze generated by The Maze Generator Website (https://www.mazegenerator.net/).</desc>
  <g
     fill="none"
     stroke="#000000"
     stroke-width="2"
     stroke-linecap="square"
     id="g12212">
    <line
       x1="2"
       y1="2"
       x2="226"
       y2="2"
       id="line11326" />
    <line
       x1="242"
       y1="2"
       x2="482"
       y2="2"
       id="line11328" />
    <line
       x1="18"
       y1="18"
       x2="34"
       y2="18"
       id="line11330" />
    <line
       x1="82"
       y1="18"
       x2="130"
       y2="18"
       id="line11332" />
    <line
       x1="210"
       y1="18"
       x2="226"
       y2="18"
       id="line11334" />
    <line
       x1="274"
       y1="18"
       x2="306"
       y2="18"
       id="line11336" />
    <line
       x1="322"
       y1="18"
       x2="338"
       y2="18"
       id="line11338" />
    <line
       x1="354"
       y1="18"
       x2="370"
       y2="18"
       id="line11340" />
    <line
       x1="450"
       y1="18"
       x2="466"
       y2="18"
       id="line11342" />
    <line
       x1="242"
       y1="34"
       x2="258"
       y2="34"
       id="line11344" />
    <line
       x1="274"
       y1="34"
       x2="290"
       y2="34"
       id="line11346" />
    <line
       x1="370"
       y1="34"
       x2="386"
       y2="34"
       id="line11348" />
    <line
       x1="402"
       y1="34"
       x2="450"
       y2="34"
       id="line11350" />
    <line
       x1="466"
       y1="34"
       x2="482"
       y2="34"
       id="line11352" />
    <line
       x1="2"
       y1="50"
       x2="34"
       y2="50"
       id="line11354" />
    <line
       x1="50"
       y1="50"
       x2="66"
       y2="50"
       id="line11356" />
    <line
       x1="82"
       y1="50"
       x2="146"
       y2="50"
       id="line11358" />
    <line
       x1="178"
       y1="50"
       x2="210"
       y2="50"
       id="line11360" />
    <line
       x1="226"
       y1="50"
       x2="242"
       y2="50"
       id="line11362" />
    <line
       x1="258"
       y1="50"
       x2="274"
       y2="50"
       id="line11364" />
    <line
       x1="306"
       y1="50"
       x2="338"
       y2="50"
       id="line11366" />
    <line
       x1="386"
       y1="50"
       x2="402"
       y2="50"
       id="line11368" />
    <line
       x1="418"
       y1="50"
       x2="434"
       y2="50"
       id="line11370" />
    <line
       x1="18"
       y1="66"
       x2="34"
       y2="66"
       id="line11372" />
    <line
       x1="98"
       y1="66"
       x2="114"
       y2="66"
       id="line11374" />
    <line
       x1="146"
       y1="66"
       x2="194"
       y2="66"
       id="line11376" />
    <line
       x1="210"
       y1="66"
       x2="226"
       y2="66"
       id="line11378" />
    <line
       x1="274"
       y1="66"
       x2="306"
       y2="66"
       id="line11380" />
    <line
       x1="338"
       y1="66"
       x2="354"
       y2="66"
       id="line11382" />
    <line
       x1="370"
       y1="66"
       x2="386"
       y2="66"
       id="line11384" />
    <line
       x1="450"
       y1="66"
       x2="482"
       y2="66"
       id="line11386" />
    <line
       x1="2"
       y1="82"
       x2="18"
       y2="82"
       id="line11388" />
    <line
       x1="114"
       y1="82"
       x2="146"
       y2="82"
       id="line11390" />
    <line
       x1="162"
       y1="82"
       x2="194"
       y2="82"
       id="line11392" />
    <line
       x1="242"
       y1="82"
       x2="306"
       y2="82"
       id="line11394" />
    <line
       x1="322"
       y1="82"
       x2="354"
       y2="82"
       id="line11396" />
    <line
       x1="386"
       y1="82"
       x2="450"
       y2="82"
       id="line11398" />
    <line
       x1="34"
       y1="98"
       x2="66"
       y2="98"
       id="line11400" />
    <line
       x1="82"
       y1="98"
       x2="114"
       y2="98"
       id="line11402" />
    <line
       x1="130"
       y1="98"
       x2="146"
       y2="98"
       id="line11404" />
    <line
       x1="162"
       y1="98"
       x2="178"
       y2="98"
       id="line11406" />
    <line
       x1="194"
       y1="98"
       x2="258"
       y2="98"
       id="line11408" />
    <line
       x1="274"
       y1="98"
       x2="290"
       y2="98"
       id="line11410" />
    <line
       x1="306"
       y1="98"
       x2="338"
       y2="98"
       id="line11412" />
    <line
       x1="386"
       y1="98"
       x2="466"
       y2="98"
       id="line11414" />
    <line
       x1="50"
       y1="114"
       x2="66"
       y2="114"
       id="line11416" />
    <line
       x1="98"
       y1="114"
       x2="130"
       y2="114"
       id="line11418" />
    <line
       x1="178"
       y1="114"
       x2="194"
       y2="114"
       id="line11420" />
    <line
       x1="210"
       y1="114"
       x2="226"
       y2="114"
       id="line11422" />
    <line
       x1="274"
       y1="114"
       x2="306"
       y2="114"
       id="line11424" />
    <line
       x1="338"
       y1="114"
       x2="386"
       y2="114"
       id="line11426" />
    <line
       x1="418"
       y1="114"
       x2="466"
       y2="114"
       id="line11428" />
    <line
       x1="34"
       y1="130"
       x2="50"
       y2="130"
       id="line11430" />
    <line
       x1="66"
       y1="130"
       x2="82"
       y2="130"
       id="line11432" />
    <line
       x1="114"
       y1="130"
       x2="130"
       y2="130"
       id="line11434" />
    <line
       x1="194"
       y1="130"
       x2="210"
       y2="130"
       id="line11436" />
    <line
       x1="322"
       y1="130"
       x2="402"
       y2="130"
       id="line11438" />
    <line
       x1="418"
       y1="130"
       x2="434"
       y2="130"
       id="line11440" />
    <line
       x1="466"
       y1="130"
       x2="482"
       y2="130"
       id="line11442" />
    <line
       x1="18"
       y1="146"
       x2="82"
       y2="146"
       id="line11444" />
    <line
       x1="98"
       y1="146"
       x2="114"
       y2="146"
       id="line11446" />
    <line
       x1="146"
       y1="146"
       x2="226"
       y2="146"
       id="line11448" />
    <line
       x1="258"
       y1="146"
       x2="322"
       y2="146"
       id="line11450" />
    <line
       x1="418"
       y1="146"
       x2="466"
       y2="146"
       id="line11452" />
    <line
       x1="2"
       y1="162"
       x2="34"
       y2="162"
       id="line11454" />
    <line
       x1="82"
       y1="162"
       x2="98"
       y2="162"
       id="line11456" />
    <line
       x1="114"
       y1="162"
       x2="130"
       y2="162"
       id="line11458" />
    <line
       x1="146"
       y1="162"
       x2="162"
       y2="162"
       id="line11460" />
    <line
       x1="194"
       y1="162"
       x2="242"
       y2="162"
       id="line11462" />
    <line
       x1="322"
       y1="162"
       x2="338"
       y2="162"
       id="line11464" />
    <line
       x1="370"
       y1="162"
       x2="386"
       y2="162"
       id="line11466" />
    <line
       x1="18"
       y1="178"
       x2="50"
       y2="178"
       id="line11468" />
    <line
       x1="66"
       y1="178"
       x2="82"
       y2="178"
       id="line11470" />
    <line
       x1="98"
       y1="178"
       x2="114"
       y2="178"
       id="line11472" />
    <line
       x1="130"
       y1="178"
       x2="178"
       y2="178"
       id="line11474" />
    <line
       x1="194"
       y1="178"
       x2="210"
       y2="178"
       id="line11476" />
    <line
       x1="242"
       y1="178"
       x2="258"
       y2="178"
       id="line11478" />
    <line
       x1="306"
       y1="178"
       x2="322"
       y2="178"
       id="line11480" />
    <line
       x1="338"
       y1="178"
       x2="370"
       y2="178"
       id="line11482" />
    <line
       x1="402"
       y1="178"
       x2="418"
       y2="178"
       id="line11484" />
    <line
       x1="82"
       y1="194"
       x2="98"
       y2="194"
       id="line11486" />
    <line
       x1="114"
       y1="194"
       x2="130"
       y2="194"
       id="line11488" />
    <line
       x1="146"
       y1="194"
       x2="162"
       y2="194"
       id="line11490" />
    <line
       x1="210"
       y1="194"
       x2="226"
       y2="194"
       id="line11492" />
    <line
       x1="258"
       y1="194"
       x2="274"
       y2="194"
       id="line11494" />
    <line
       x1="322"
       y1="194"
       x2="354"
       y2="194"
       id="line11496" />
    <line
       x1="370"
       y1="194"
       x2="386"
       y2="194"
       id="line11498" />
    <line
       x1="418"
       y1="194"
       x2="434"
       y2="194"
       id="line11500" />
    <line
       x1="450"
       y1="194"
       x2="466"
       y2="194"
       id="line11502" />
    <line
       x1="2"
       y1="210"
       x2="18"
       y2="210"
       id="line11504" />
    <line
       x1="66"
       y1="210"
       x2="82"
       y2="210"
       id="line11506" />
    <line
       x1="98"
       y1="210"
       x2="146"
       y2="210"
       id="line11508" />
    <line
       x1="162"
       y1="210"
       x2="194"
       y2="210"
       id="line11510" />
    <line
       x1="226"
       y1="210"
       x2="258"
       y2="210"
       id="line11512" />
    <line
       x1="274"
       y1="210"
       x2="290"
       y2="210"
       id="line11514" />
    <line
       x1="306"
       y1="210"
       x2="322"
       y2="210"
       id="line11516" />
    <line
       x1="354"
       y1="210"
       x2="370"
       y2="210"
       id="line11518" />
    <line
       x1="386"
       y1="210"
       x2="402"
       y2="210"
       id="line11520" />
    <line
       x1="450"
       y1="210"
       x2="466"
       y2="210"
       id="line11522" />
    <line
       x1="18"
       y1="226"
       x2="66"
       y2="226"
       id="line11524" />
    <line
       x1="82"
       y1="226"
       x2="98"
       y2="226"
       id="line11526" />
    <line
       x1="114"
       y1="226"
       x2="130"
       y2="226"
       id="line11528" />
    <line
       x1="162"
       y1="226"
       x2="194"
       y2="226"
       id="line11530" />
    <line
       x1="210"
       y1="226"
       x2="226"
       y2="226"
       id="line11532" />
    <line
       x1="258"
       y1="226"
       x2="306"
       y2="226"
       id="line11534" />
    <line
       x1="338"
       y1="226"
       x2="354"
       y2="226"
       id="line11536" />
    <line
       x1="466"
       y1="226"
       x2="482"
       y2="226"
       id="line11538" />
    <line
       x1="66"
       y1="242"
       x2="114"
       y2="242"
       id="line11540" />
    <line
       x1="130"
       y1="242"
       x2="146"
       y2="242"
       id="line11542" />
    <line
       x1="194"
       y1="242"
       x2="210"
       y2="242"
       id="line11544" />
    <line
       x1="226"
       y1="242"
       x2="258"
       y2="242"
       id="line11546" />
    <line
       x1="274"
       y1="242"
       x2="338"
       y2="242"
       id="line11548" />
    <line
       x1="354"
       y1="242"
       x2="386"
       y2="242"
       id="line11550" />
    <line
       x1="402"
       y1="242"
       x2="418"
       y2="242"
       id="line11552" />
    <line
       x1="434"
       y1="242"
       x2="450"
       y2="242"
       id="line11554" />
    <line
       x1="2"
       y1="258"
       x2="50"
       y2="258"
       id="line11556" />
    <line
       x1="82"
       y1="258"
       x2="98"
       y2="258"
       id="line11558" />
    <line
       x1="114"
       y1="258"
       x2="162"
       y2="258"
       id="line11560" />
    <line
       x1="178"
       y1="258"
       x2="194"
       y2="258"
       id="line11562" />
    <line
       x1="210"
       y1="258"
       x2="226"
       y2="258"
       id="line11564" />
    <line
       x1="258"
       y1="258"
       x2="274"
       y2="258"
       id="line11566" />
    <line
       x1="290"
       y1="258"
       x2="306"
       y2="258"
       id="line11568" />
    <line
       x1="338"
       y1="258"
       x2="354"
       y2="258"
       id="line11570" />
    <line
       x1="418"
       y1="258"
       x2="434"
       y2="258"
       id="line11572" />
    <line
       x1="450"
       y1="258"
       x2="466"
       y2="258"
       id="line11574" />
    <line
       x1="18"
       y1="274"
       x2="82"
       y2="274"
       id="line11576" />
    <line
       x1="98"
       y1="274"
       x2="130"
       y2="274"
       id="line11578" />
    <line
       x1="162"
       y1="274"
       x2="178"
       y2="274"
       id="line11580" />
    <line
       x1="194"
       y1="274"
       x2="242"
       y2="274"
       id="line11582" />
    <line
       x1="274"
       y1="274"
       x2="290"
       y2="274"
       id="line11584" />
    <line
       x1="306"
       y1="274"
       x2="402"
       y2="274"
       id="line11586" />
    <line
       x1="434"
       y1="274"
       x2="450"
       y2="274"
       id="line11588" />
    <line
       x1="466"
       y1="274"
       x2="482"
       y2="274"
       id="line11590" />
    <line
       x1="178"
       y1="290"
       x2="194"
       y2="290"
       id="line11592" />
    <line
       x1="210"
       y1="290"
       x2="226"
       y2="290"
       id="line11594" />
    <line
       x1="242"
       y1="290"
       x2="306"
       y2="290"
       id="line11596" />
    <line
       x1="322"
       y1="290"
       x2="338"
       y2="290"
       id="line11598" />
    <line
       x1="354"
       y1="290"
       x2="370"
       y2="290"
       id="line11600" />
    <line
       x1="386"
       y1="290"
       x2="402"
       y2="290"
       id="line11602" />
    <line
       x1="418"
       y1="290"
       x2="434"
       y2="290"
       id="line11604" />
    <line
       x1="34"
       y1="306"
       x2="66"
       y2="306"
       id="line11606" />
    <line
       x1="82"
       y1="306"
       x2="114"
       y2="306"
       id="line11608" />
    <line
       x1="130"
       y1="306"
       x2="162"
       y2="306"
       id="line11610" />
    <line
       x1="178"
       y1="306"
       x2="210"
       y2="306"
       id="line11612" />
    <line
       x1="226"
       y1="306"
       x2="242"
       y2="306"
       id="line11614" />
    <line
       x1="306"
       y1="306"
       x2="322"
       y2="306"
       id="line11616" />
    <line
       x1="338"
       y1="306"
       x2="386"
       y2="306"
       id="line11618" />
    <line
       x1="466"
       y1="306"
       x2="482"
       y2="306"
       id="line11620" />
    <line
       x1="18"
       y1="322"
       x2="50"
       y2="322"
       id="line11622" />
    <line
       x1="130"
       y1="322"
       x2="146"
       y2="322"
       id="line11624" />
    <line
       x1="226"
       y1="322"
       x2="258"
       y2="322"
       id="line11626" />
    <line
       x1="290"
       y1="322"
       x2="306"
       y2="322"
       id="line11628" />
    <line
       x1="402"
       y1="322"
       x2="466"
       y2="322"
       id="line11630" />
    <line
       x1="2"
       y1="338"
       x2="34"
       y2="338"
       id="line11632" />
    <line
       x1="50"
       y1="338"
       x2="82"
       y2="338"
       id="line11634" />
    <line
       x1="178"
       y1="338"
       x2="226"
       y2="338"
       id="line11636" />
    <line
       x1="242"
       y1="338"
       x2="274"
       y2="338"
       id="line11638" />
    <line
       x1="306"
       y1="338"
       x2="338"
       y2="338"
       id="line11640" />
    <line
       x1="402"
       y1="338"
       x2="418"
       y2="338"
       id="line11642" />
    <line
       x1="18"
       y1="354"
       x2="50"
       y2="354"
       id="line11644" />
    <line
       x1="82"
       y1="354"
       x2="114"
       y2="354"
       id="line11646" />
    <line
       x1="130"
       y1="354"
       x2="178"
       y2="354"
       id="line11648" />
    <line
       x1="194"
       y1="354"
       x2="226"
       y2="354"
       id="line11650" />
    <line
       x1="242"
       y1="354"
       x2="290"
       y2="354"
       id="line11652" />
    <line
       x1="322"
       y1="354"
       x2="354"
       y2="354"
       id="line11654" />
    <line
       x1="386"
       y1="354"
       x2="450"
       y2="354"
       id="line11656" />
    <line
       x1="2"
       y1="370"
       x2="18"
       y2="370"
       id="line11658" />
    <line
       x1="66"
       y1="370"
       x2="82"
       y2="370"
       id="line11660" />
    <line
       x1="114"
       y1="370"
       x2="130"
       y2="370"
       id="line11662" />
    <line
       x1="146"
       y1="370"
       x2="162"
       y2="370"
       id="line11664" />
    <line
       x1="178"
       y1="370"
       x2="194"
       y2="370"
       id="line11666" />
    <line
       x1="226"
       y1="370"
       x2="258"
       y2="370"
       id="line11668" />
    <line
       x1="306"
       y1="370"
       x2="322"
       y2="370"
       id="line11670" />
    <line
       x1="354"
       y1="370"
       x2="402"
       y2="370"
       id="line11672" />
    <line
       x1="418"
       y1="370"
       x2="450"
       y2="370"
       id="line11674" />
    <line
       x1="18"
       y1="386"
       x2="82"
       y2="386"
       id="line11676" />
    <line
       x1="98"
       y1="386"
       x2="162"
       y2="386"
       id="line11678" />
    <line
       x1="178"
       y1="386"
       x2="242"
       y2="386"
       id="line11680" />
    <line
       x1="258"
       y1="386"
       x2="354"
       y2="386"
       id="line11682" />
    <line
       x1="370"
       y1="386"
       x2="386"
       y2="386"
       id="line11684" />
    <line
       x1="434"
       y1="386"
       x2="450"
       y2="386"
       id="line11686" />
    <line
       x1="466"
       y1="386"
       x2="482"
       y2="386"
       id="line11688" />
    <line
       x1="50"
       y1="402"
       x2="98"
       y2="402"
       id="line11690" />
    <line
       x1="114"
       y1="402"
       x2="146"
       y2="402"
       id="line11692" />
    <line
       x1="162"
       y1="402"
       x2="178"
       y2="402"
       id="line11694" />
    <line
       x1="194"
       y1="402"
       x2="226"
       y2="402"
       id="line11696" />
    <line
       x1="306"
       y1="402"
       x2="370"
       y2="402"
       id="line11698" />
    <line
       x1="386"
       y1="402"
       x2="434"
       y2="402"
       id="line11700" />
    <line
       x1="18"
       y1="418"
       x2="50"
       y2="418"
       id="line11702" />
    <line
       x1="66"
       y1="418"
       x2="146"
       y2="418"
       id="line11704" />
    <line
       x1="178"
       y1="418"
       x2="210"
       y2="418"
       id="line11706" />
    <line
       x1="226"
       y1="418"
       x2="258"
       y2="418"
       id="line11708" />
    <line
       x1="274"
       y1="418"
       x2="338"
       y2="418"
       id="line11710" />
    <line
       x1="354"
       y1="418"
       x2="386"
       y2="418"
       id="line11712" />
    <line
       x1="402"
       y1="418"
       x2="482"
       y2="418"
       id="line11714" />
    <line
       x1="2"
       y1="434"
       x2="34"
       y2="434"
       id="line11716" />
    <line
       x1="50"
       y1="434"
       x2="66"
       y2="434"
       id="line11718" />
    <line
       x1="194"
       y1="434"
       x2="226"
       y2="434"
       id="line11720" />
    <line
       x1="290"
       y1="434"
       x2="306"
       y2="434"
       id="line11722" />
    <line
       x1="322"
       y1="434"
       x2="354"
       y2="434"
       id="line11724" />
    <line
       x1="370"
       y1="434"
       x2="402"
       y2="434"
       id="line11726" />
    <line
       x1="434"
       y1="434"
       x2="466"
       y2="434"
       id="line11728" />
    <line
       x1="34"
       y1="450"
       x2="50"
       y2="450"
       id="line11730" />
    <line
       x1="98"
       y1="450"
       x2="114"
       y2="450"
       id="line11732" />
    <line
       x1="130"
       y1="450"
       x2="146"
       y2="450"
       id="line11734" />
    <line
       x1="178"
       y1="450"
       x2="210"
       y2="450"
       id="line11736" />
    <line
       x1="274"
       y1="450"
       x2="306"
       y2="450"
       id="line11738" />
    <line
       x1="322"
       y1="450"
       x2="338"
       y2="450"
       id="line11740" />
    <line
       x1="418"
       y1="450"
       x2="450"
       y2="450"
       id="line11742" />
    <line
       x1="34"
       y1="466"
       x2="50"
       y2="466"
       id="line11744" />
    <line
       x1="82"
       y1="466"
       x2="98"
       y2="466"
       id="line11746" />
    <line
       x1="114"
       y1="466"
       x2="130"
       y2="466"
       id="line11748" />
    <line
       x1="146"
       y1="466"
       x2="178"
       y2="466"
       id="line11750" />
    <line
       x1="226"
       y1="466"
       x2="274"
       y2="466"
       id="line11752" />
    <line
       x1="306"
       y1="466"
       x2="338"
       y2="466"
       id="line11754" />
    <line
       x1="370"
       y1="466"
       x2="386"
       y2="466"
       id="line11756" />
    <line
       x1="402"
       y1="466"
       x2="418"
       y2="466"
       id="line11758" />
    <line
       x1="450"
       y1="466"
       x2="466"
       y2="466"
       id="line11760" />
    <line
       x1="2"
       y1="482"
       x2="242"
       y2="482"
       id="line11762" />
    <line
       x1="258"
       y1="482"
       x2="482"
       y2="482"
       id="line11764" />
    <line
       x1="2"
       y1="2"
       x2="2"
       y2="482"
       id="line11766" />
    <line
       x1="18"
       y1="18"
       x2="18"
       y2="34"
       id="line11768" />
    <line
       x1="18"
       y1="98"
       x2="18"
       y2="146"
       id="line11770" />
    <line
       x1="18"
       y1="178"
       x2="18"
       y2="210"
       id="line11772" />
    <line
       x1="18"
       y1="226"
       x2="18"
       y2="242"
       id="line11774" />
    <line
       x1="18"
       y1="274"
       x2="18"
       y2="322"
       id="line11776" />
    <line
       x1="18"
       y1="370"
       x2="18"
       y2="386"
       id="line11778" />
    <line
       x1="18"
       y1="402"
       x2="18"
       y2="418"
       id="line11780" />
    <line
       x1="18"
       y1="450"
       x2="18"
       y2="482"
       id="line11782" />
    <line
       x1="34"
       y1="18"
       x2="34"
       y2="130"
       id="line11784" />
    <line
       x1="34"
       y1="194"
       x2="34"
       y2="226"
       id="line11786" />
    <line
       x1="34"
       y1="242"
       x2="34"
       y2="258"
       id="line11788" />
    <line
       x1="34"
       y1="290"
       x2="34"
       y2="306"
       id="line11790" />
    <line
       x1="34"
       y1="322"
       x2="34"
       y2="338"
       id="line11792" />
    <line
       x1="34"
       y1="354"
       x2="34"
       y2="370"
       id="line11794" />
    <line
       x1="34"
       y1="386"
       x2="34"
       y2="402"
       id="line11796" />
    <line
       x1="34"
       y1="418"
       x2="34"
       y2="450"
       id="line11798" />
    <line
       x1="50"
       y1="18"
       x2="50"
       y2="82"
       id="line11800" />
    <line
       x1="50"
       y1="130"
       x2="50"
       y2="146"
       id="line11802" />
    <line
       x1="50"
       y1="162"
       x2="50"
       y2="210"
       id="line11804" />
    <line
       x1="50"
       y1="226"
       x2="50"
       y2="258"
       id="line11806" />
    <line
       x1="50"
       y1="274"
       x2="50"
       y2="290"
       id="line11808" />
    <line
       x1="50"
       y1="338"
       x2="50"
       y2="370"
       id="line11810" />
    <line
       x1="50"
       y1="402"
       x2="50"
       y2="418"
       id="line11812" />
    <line
       x1="50"
       y1="450"
       x2="50"
       y2="466"
       id="line11814" />
    <line
       x1="66"
       y1="2"
       x2="66"
       y2="34"
       id="line11816" />
    <line
       x1="66"
       y1="50"
       x2="66"
       y2="98"
       id="line11818" />
    <line
       x1="66"
       y1="114"
       x2="66"
       y2="130"
       id="line11820" />
    <line
       x1="66"
       y1="162"
       x2="66"
       y2="210"
       id="line11822" />
    <line
       x1="66"
       y1="242"
       x2="66"
       y2="274"
       id="line11824" />
    <line
       x1="66"
       y1="290"
       x2="66"
       y2="338"
       id="line11826" />
    <line
       x1="66"
       y1="354"
       x2="66"
       y2="386"
       id="line11828" />
    <line
       x1="66"
       y1="418"
       x2="66"
       y2="466"
       id="line11830" />
    <line
       x1="82"
       y1="34"
       x2="82"
       y2="130"
       id="line11832" />
    <line
       x1="82"
       y1="146"
       x2="82"
       y2="178"
       id="line11834" />
    <line
       x1="82"
       y1="274"
       x2="82"
       y2="306"
       id="line11836" />
    <line
       x1="82"
       y1="322"
       x2="82"
       y2="354"
       id="line11838" />
    <line
       x1="82"
       y1="418"
       x2="82"
       y2="466"
       id="line11840" />
    <line
       x1="98"
       y1="18"
       x2="98"
       y2="34"
       id="line11842" />
    <line
       x1="98"
       y1="66"
       x2="98"
       y2="82"
       id="line11844" />
    <line
       x1="98"
       y1="114"
       x2="98"
       y2="146"
       id="line11846" />
    <line
       x1="98"
       y1="178"
       x2="98"
       y2="226"
       id="line11848" />
    <line
       x1="98"
       y1="258"
       x2="98"
       y2="290"
       id="line11850" />
    <line
       x1="98"
       y1="306"
       x2="98"
       y2="338"
       id="line11852" />
    <line
       x1="98"
       y1="354"
       x2="98"
       y2="402"
       id="line11854" />
    <line
       x1="98"
       y1="434"
       x2="98"
       y2="450"
       id="line11856" />
    <line
       x1="98"
       y1="466"
       x2="98"
       y2="482"
       id="line11858" />
    <line
       x1="114"
       y1="34"
       x2="114"
       y2="66"
       id="line11860" />
    <line
       x1="114"
       y1="82"
       x2="114"
       y2="98"
       id="line11862" />
    <line
       x1="114"
       y1="162"
       x2="114"
       y2="178"
       id="line11864" />
    <line
       x1="114"
       y1="226"
       x2="114"
       y2="258"
       id="line11866" />
    <line
       x1="114"
       y1="290"
       x2="114"
       y2="306"
       id="line11868" />
    <line
       x1="114"
       y1="322"
       x2="114"
       y2="354"
       id="line11870" />
    <line
       x1="114"
       y1="402"
       x2="114"
       y2="418"
       id="line11872" />
    <line
       x1="114"
       y1="434"
       x2="114"
       y2="466"
       id="line11874" />
    <line
       x1="130"
       y1="2"
       x2="130"
       y2="34"
       id="line11876" />
    <line
       x1="130"
       y1="66"
       x2="130"
       y2="82"
       id="line11878" />
    <line
       x1="130"
       y1="98"
       x2="130"
       y2="114"
       id="line11880" />
    <line
       x1="130"
       y1="130"
       x2="130"
       y2="162"
       id="line11882" />
    <line
       x1="130"
       y1="178"
       x2="130"
       y2="194"
       id="line11884" />
    <line
       x1="130"
       y1="274"
       x2="130"
       y2="306"
       id="line11886" />
    <line
       x1="130"
       y1="322"
       x2="130"
       y2="370"
       id="line11888" />
    <line
       x1="130"
       y1="434"
       x2="130"
       y2="466"
       id="line11890" />
    <line
       x1="146"
       y1="18"
       x2="146"
       y2="50"
       id="line11892" />
    <line
       x1="146"
       y1="66"
       x2="146"
       y2="82"
       id="line11894" />
    <line
       x1="146"
       y1="98"
       x2="146"
       y2="162"
       id="line11896" />
    <line
       x1="146"
       y1="194"
       x2="146"
       y2="242"
       id="line11898" />
    <line
       x1="146"
       y1="258"
       x2="146"
       y2="290"
       id="line11900" />
    <line
       x1="146"
       y1="322"
       x2="146"
       y2="338"
       id="line11902" />
    <line
       x1="146"
       y1="418"
       x2="146"
       y2="450"
       id="line11904" />
    <line
       x1="162"
       y1="2"
       x2="162"
       y2="66"
       id="line11906" />
    <line
       x1="162"
       y1="98"
       x2="162"
       y2="130"
       id="line11908" />
    <line
       x1="162"
       y1="194"
       x2="162"
       y2="258"
       id="line11910" />
    <line
       x1="162"
       y1="274"
       x2="162"
       y2="354"
       id="line11912" />
    <line
       x1="162"
       y1="370"
       x2="162"
       y2="386"
       id="line11914" />
    <line
       x1="162"
       y1="402"
       x2="162"
       y2="450"
       id="line11916" />
    <line
       x1="178"
       y1="2"
       x2="178"
       y2="34"
       id="line11918" />
    <line
       x1="178"
       y1="82"
       x2="178"
       y2="98"
       id="line11920" />
    <line
       x1="178"
       y1="114"
       x2="178"
       y2="194"
       id="line11922" />
    <line
       x1="178"
       y1="242"
       x2="178"
       y2="274"
       id="line11924" />
    <line
       x1="178"
       y1="306"
       x2="178"
       y2="338"
       id="line11926" />
    <line
       x1="178"
       y1="354"
       x2="178"
       y2="402"
       id="line11928" />
    <line
       x1="178"
       y1="418"
       x2="178"
       y2="466"
       id="line11930" />
    <line
       x1="194"
       y1="18"
       x2="194"
       y2="50"
       id="line11932" />
    <line
       x1="194"
       y1="66"
       x2="194"
       y2="82"
       id="line11934" />
    <line
       x1="194"
       y1="98"
       x2="194"
       y2="130"
       id="line11936" />
    <line
       x1="194"
       y1="178"
       x2="194"
       y2="210"
       id="line11938" />
    <line
       x1="194"
       y1="226"
       x2="194"
       y2="242"
       id="line11940" />
    <line
       x1="194"
       y1="258"
       x2="194"
       y2="306"
       id="line11942" />
    <line
       x1="194"
       y1="322"
       x2="194"
       y2="354"
       id="line11944" />
    <line
       x1="194"
       y1="466"
       x2="194"
       y2="482"
       id="line11946" />
    <line
       x1="210"
       y1="18"
       x2="210"
       y2="82"
       id="line11948" />
    <line
       x1="210"
       y1="194"
       x2="210"
       y2="258"
       id="line11950" />
    <line
       x1="210"
       y1="306"
       x2="210"
       y2="322"
       id="line11952" />
    <line
       x1="210"
       y1="370"
       x2="210"
       y2="386"
       id="line11954" />
    <line
       x1="210"
       y1="402"
       x2="210"
       y2="418"
       id="line11956" />
    <line
       x1="210"
       y1="450"
       x2="210"
       y2="482"
       id="line11958" />
    <line
       x1="226"
       y1="18"
       x2="226"
       y2="34"
       id="line11960" />
    <line
       x1="226"
       y1="66"
       x2="226"
       y2="98"
       id="line11962" />
    <line
       x1="226"
       y1="114"
       x2="226"
       y2="146"
       id="line11964" />
    <line
       x1="226"
       y1="162"
       x2="226"
       y2="194"
       id="line11966" />
    <line
       x1="226"
       y1="242"
       x2="226"
       y2="258"
       id="line11968" />
    <line
       x1="226"
       y1="274"
       x2="226"
       y2="306"
       id="line11970" />
    <line
       x1="226"
       y1="322"
       x2="226"
       y2="338"
       id="line11972" />
    <line
       x1="226"
       y1="354"
       x2="226"
       y2="370"
       id="line11974" />
    <line
       x1="226"
       y1="418"
       x2="226"
       y2="466"
       id="line11976" />
    <line
       x1="242"
       y1="2"
       x2="242"
       y2="18"
       id="line11978" />
    <line
       x1="242"
       y1="34"
       x2="242"
       y2="82"
       id="line11980" />
    <line
       x1="242"
       y1="98"
       x2="242"
       y2="114"
       id="line11982" />
    <line
       x1="242"
       y1="130"
       x2="242"
       y2="162"
       id="line11984" />
    <line
       x1="242"
       y1="178"
       x2="242"
       y2="226"
       id="line11986" />
    <line
       x1="242"
       y1="258"
       x2="242"
       y2="274"
       id="line11988" />
    <line
       x1="242"
       y1="338"
       x2="242"
       y2="354"
       id="line11990" />
    <line
       x1="242"
       y1="386"
       x2="242"
       y2="450"
       id="line11992" />
    <line
       x1="258"
       y1="18"
       x2="258"
       y2="34"
       id="line11994" />
    <line
       x1="258"
       y1="50"
       x2="258"
       y2="66"
       id="line11996" />
    <line
       x1="258"
       y1="98"
       x2="258"
       y2="178"
       id="line11998" />
    <line
       x1="258"
       y1="194"
       x2="258"
       y2="210"
       id="line12000" />
    <line
       x1="258"
       y1="226"
       x2="258"
       y2="242"
       id="line12002" />
    <line
       x1="258"
       y1="274"
       x2="258"
       y2="290"
       id="line12004" />
    <line
       x1="258"
       y1="306"
       x2="258"
       y2="322"
       id="line12006" />
    <line
       x1="258"
       y1="370"
       x2="258"
       y2="402"
       id="line12008" />
    <line
       x1="258"
       y1="434"
       x2="258"
       y2="482"
       id="line12010" />
    <line
       x1="274"
       y1="34"
       x2="274"
       y2="66"
       id="line12012" />
    <line
       x1="274"
       y1="82"
       x2="274"
       y2="98"
       id="line12014" />
    <line
       x1="274"
       y1="114"
       x2="274"
       y2="130"
       id="line12016" />
    <line
       x1="274"
       y1="162"
       x2="274"
       y2="194"
       id="line12018" />
    <line
       x1="274"
       y1="210"
       x2="274"
       y2="226"
       id="line12020" />
    <line
       x1="274"
       y1="242"
       x2="274"
       y2="274"
       id="line12022" />
    <line
       x1="274"
       y1="290"
       x2="274"
       y2="338"
       id="line12024" />
    <line
       x1="274"
       y1="370"
       x2="274"
       y2="386"
       id="line12026" />
    <line
       x1="274"
       y1="402"
       x2="274"
       y2="450"
       id="line12028" />
    <line
       x1="290"
       y1="34"
       x2="290"
       y2="50"
       id="line12030" />
    <line
       x1="290"
       y1="130"
       x2="290"
       y2="210"
       id="line12032" />
    <line
       x1="290"
       y1="306"
       x2="290"
       y2="322"
       id="line12034" />
    <line
       x1="290"
       y1="338"
       x2="290"
       y2="370"
       id="line12036" />
    <line
       x1="290"
       y1="386"
       x2="290"
       y2="402"
       id="line12038" />
    <line
       x1="290"
       y1="450"
       x2="290"
       y2="466"
       id="line12040" />
    <line
       x1="306"
       y1="2"
       x2="306"
       y2="66"
       id="line12042" />
    <line
       x1="306"
       y1="82"
       x2="306"
       y2="146"
       id="line12044" />
    <line
       x1="306"
       y1="162"
       x2="306"
       y2="210"
       id="line12046" />
    <line
       x1="306"
       y1="258"
       x2="306"
       y2="306"
       id="line12048" />
    <line
       x1="306"
       y1="322"
       x2="306"
       y2="386"
       id="line12050" />
    <line
       x1="306"
       y1="402"
       x2="306"
       y2="418"
       id="line12052" />
    <line
       x1="306"
       y1="434"
       x2="306"
       y2="450"
       id="line12054" />
    <line
       x1="306"
       y1="466"
       x2="306"
       y2="482"
       id="line12056" />
    <line
       x1="322"
       y1="18"
       x2="322"
       y2="34"
       id="line12058" />
    <line
       x1="322"
       y1="50"
       x2="322"
       y2="82"
       id="line12060" />
    <line
       x1="322"
       y1="114"
       x2="322"
       y2="130"
       id="line12062" />
    <line
       x1="322"
       y1="162"
       x2="322"
       y2="178"
       id="line12064" />
    <line
       x1="322"
       y1="194"
       x2="322"
       y2="258"
       id="line12066" />
    <line
       x1="322"
       y1="306"
       x2="322"
       y2="322"
       id="line12068" />
    <line
       x1="322"
       y1="434"
       x2="322"
       y2="450"
       id="line12070" />
    <line
       x1="338"
       y1="18"
       x2="338"
       y2="50"
       id="line12072" />
    <line
       x1="338"
       y1="98"
       x2="338"
       y2="114"
       id="line12074" />
    <line
       x1="338"
       y1="130"
       x2="338"
       y2="162"
       id="line12076" />
    <line
       x1="338"
       y1="178"
       x2="338"
       y2="194"
       id="line12078" />
    <line
       x1="338"
       y1="210"
       x2="338"
       y2="226"
       id="line12080" />
    <line
       x1="338"
       y1="258"
       x2="338"
       y2="274"
       id="line12082" />
    <line
       x1="338"
       y1="290"
       x2="338"
       y2="338"
       id="line12084" />
    <line
       x1="338"
       y1="370"
       x2="338"
       y2="386"
       id="line12086" />
    <line
       x1="354"
       y1="2"
       x2="354"
       y2="66"
       id="line12088" />
    <line
       x1="354"
       y1="82"
       x2="354"
       y2="98"
       id="line12090" />
    <line
       x1="354"
       y1="146"
       x2="354"
       y2="178"
       id="line12092" />
    <line
       x1="354"
       y1="194"
       x2="354"
       y2="210"
       id="line12094" />
    <line
       x1="354"
       y1="226"
       x2="354"
       y2="258"
       id="line12096" />
    <line
       x1="354"
       y1="322"
       x2="354"
       y2="370"
       id="line12098" />
    <line
       x1="354"
       y1="418"
       x2="354"
       y2="482"
       id="line12100" />
    <line
       x1="370"
       y1="34"
       x2="370"
       y2="66"
       id="line12102" />
    <line
       x1="370"
       y1="82"
       x2="370"
       y2="114"
       id="line12104" />
    <line
       x1="370"
       y1="130"
       x2="370"
       y2="146"
       id="line12106" />
    <line
       x1="370"
       y1="162"
       x2="370"
       y2="178"
       id="line12108" />
    <line
       x1="370"
       y1="194"
       x2="370"
       y2="226"
       id="line12110" />
    <line
       x1="370"
       y1="258"
       x2="370"
       y2="290"
       id="line12112" />
    <line
       x1="370"
       y1="306"
       x2="370"
       y2="354"
       id="line12114" />
    <line
       x1="370"
       y1="370"
       x2="370"
       y2="402"
       id="line12116" />
    <line
       x1="370"
       y1="434"
       x2="370"
       y2="466"
       id="line12118" />
    <line
       x1="386"
       y1="18"
       x2="386"
       y2="34"
       id="line12120" />
    <line
       x1="386"
       y1="66"
       x2="386"
       y2="98"
       id="line12122" />
    <line
       x1="386"
       y1="146"
       x2="386"
       y2="162"
       id="line12124" />
    <line
       x1="386"
       y1="178"
       x2="386"
       y2="194"
       id="line12126" />
    <line
       x1="386"
       y1="210"
       x2="386"
       y2="258"
       id="line12128" />
    <line
       x1="386"
       y1="322"
       x2="386"
       y2="354"
       id="line12130" />
    <line
       x1="386"
       y1="402"
       x2="386"
       y2="418"
       id="line12132" />
    <line
       x1="386"
       y1="434"
       x2="386"
       y2="450"
       id="line12134" />
    <line
       x1="402"
       y1="2"
       x2="402"
       y2="66"
       id="line12136" />
    <line
       x1="402"
       y1="98"
       x2="402"
       y2="226"
       id="line12138" />
    <line
       x1="402"
       y1="242"
       x2="402"
       y2="338"
       id="line12140" />
    <line
       x1="402"
       y1="354"
       x2="402"
       y2="402"
       id="line12142" />
    <line
       x1="402"
       y1="418"
       x2="402"
       y2="434"
       id="line12144" />
    <line
       x1="402"
       y1="450"
       x2="402"
       y2="482"
       id="line12146" />
    <line
       x1="418"
       y1="18"
       x2="418"
       y2="34"
       id="line12148" />
    <line
       x1="418"
       y1="50"
       x2="418"
       y2="82"
       id="line12150" />
    <line
       x1="418"
       y1="130"
       x2="418"
       y2="178"
       id="line12152" />
    <line
       x1="418"
       y1="194"
       x2="418"
       y2="242"
       id="line12154" />
    <line
       x1="418"
       y1="258"
       x2="418"
       y2="306"
       id="line12156" />
    <line
       x1="418"
       y1="370"
       x2="418"
       y2="386"
       id="line12158" />
    <line
       x1="418"
       y1="434"
       x2="418"
       y2="450"
       id="line12160" />
    <line
       x1="434"
       y1="2"
       x2="434"
       y2="18"
       id="line12162" />
    <line
       x1="434"
       y1="50"
       x2="434"
       y2="66"
       id="line12164" />
    <line
       x1="434"
       y1="162"
       x2="434"
       y2="194"
       id="line12166" />
    <line
       x1="434"
       y1="210"
       x2="434"
       y2="274"
       id="line12168" />
    <line
       x1="434"
       y1="306"
       x2="434"
       y2="338"
       id="line12170" />
    <line
       x1="434"
       y1="418"
       x2="434"
       y2="434"
       id="line12172" />
    <line
       x1="434"
       y1="450"
       x2="434"
       y2="482"
       id="line12174" />
    <line
       x1="450"
       y1="18"
       x2="450"
       y2="50"
       id="line12176" />
    <line
       x1="450"
       y1="66"
       x2="450"
       y2="82"
       id="line12178" />
    <line
       x1="450"
       y1="130"
       x2="450"
       y2="194"
       id="line12180" />
    <line
       x1="450"
       y1="210"
       x2="450"
       y2="242"
       id="line12182" />
    <line
       x1="450"
       y1="274"
       x2="450"
       y2="306"
       id="line12184" />
    <line
       x1="450"
       y1="338"
       x2="450"
       y2="370"
       id="line12186" />
    <line
       x1="450"
       y1="386"
       x2="450"
       y2="418"
       id="line12188" />
    <line
       x1="466"
       y1="34"
       x2="466"
       y2="50"
       id="line12190" />
    <line
       x1="466"
       y1="82"
       x2="466"
       y2="98"
       id="line12192" />
    <line
       x1="466"
       y1="114"
       x2="466"
       y2="130"
       id="line12194" />
    <line
       x1="466"
       y1="146"
       x2="466"
       y2="178"
       id="line12196" />
    <line
       x1="466"
       y1="194"
       x2="466"
       y2="210"
       id="line12198" />
    <line
       x1="466"
       y1="226"
       x2="466"
       y2="258"
       id="line12200" />
    <line
       x1="466"
       y1="290"
       x2="466"
       y2="306"
       id="line12202" />
    <line
       x1="466"
       y1="322"
       x2="466"
       y2="370"
       id="line12204" />
    <line
       x1="466"
       y1="386"
       x2="466"
       y2="402"
       id="line12206" />
    <line
       x1="466"
       y1="434"
       x2="466"
       y2="466"
       id="line12208" />
    <line
       x1="482"
       y1="2"
       x2="482"
       y2="482"
       id="line12210" />
  </g>
  <path
     style="fill:none;stroke:#000000;stroke-width:2;stroke-linecap:butt;stroke-linejoin:miter;stroke-opacity:1;stroke-miterlimit:4;stroke-dasharray:none"
     d="m 226,2 h 16"
     id="path12717" />
  <path
     style="fill:none;stroke:#000000;stroke-width:1px;stroke-linecap:butt;stroke-linejoin:miter;stroke-opacity:1"
     d="m 242,482 h 16"
     id="path12719" />
</svg>
