<?xml version="1.0" encoding="UTF-8" standalone="no"?>
<svg
   width="484"
   height="484"
   version="1.1"
   id="svg1818"
   sodipodi:docname="maze4.svg"
   inkscape:version="1.1.2 (0a00cf5339, 2022-02-04)"
   inkscape:export-filename="/home/nitron/ALSAI/worlds/pics/maze4.png"
   inkscape:export-xdpi="96.199997"
   inkscape:export-ydpi="96.199997"
   xmlns:inkscape="http://www.inkscape.org/namespaces/inkscape"
   xmlns:sodipodi="http://sodipodi.sourceforge.net/DTD/sodipodi-0.dtd"
   xmlns="http://www.w3.org/2000/svg"
   xmlns:svg="http://www.w3.org/2000/svg">
  <defs
     id="defs1822" />
  <sodipodi:namedview
     id="namedview1820"
     pagecolor="#ffffff"
     bordercolor="#666666"
     borderopacity="1.0"
     inkscape:pageshadow="2"
     inkscape:pageopacity="0.0"
     inkscape:pagecheckerboard="0"
     showgrid="false"
     inkscape:zoom="1.233054"
     inkscape:cx="256.67976"
     inkscape:cy="234.78291"
     inkscape:window-width="1858"
     inkscape:window-height="1016"
     inkscape:window-x="1982"
     inkscape:window-y="27"
     inkscape:window-maximized="1"
     inkscape:current-layer="svg1818" />
  <title
     id="title978">30 by 30 orthogonal maze</title>
  <desc
     id="desc980">30 by 30 orthogonal maze generated by The Maze Generator Website (https://www.mazegenerator.net/).</desc>
  <g
     fill="none"
     stroke="#000000"
     stroke-width="2"
     stroke-linecap="square"
     id="g1816">
    <line
       x1="2"
       y1="2"
       x2="226"
       y2="2"
       id="line982" />
    <line
       x1="242"
       y1="2"
       x2="482"
       y2="2"
       id="line984" />
    <line
       x1="50"
       y1="18"
       x2="82"
       y2="18"
       id="line986" />
    <line
       x1="98"
       y1="18"
       x2="146"
       y2="18"
       id="line988" />
    <line
       x1="178"
       y1="18"
       x2="226"
       y2="18"
       id="line990" />
    <line
       x1="242"
       y1="18"
       x2="290"
       y2="18"
       id="line992" />
    <line
       x1="322"
       y1="18"
       x2="338"
       y2="18"
       id="line994" />
    <line
       x1="386"
       y1="18"
       x2="418"
       y2="18"
       id="line996" />
    <line
       x1="450"
       y1="18"
       x2="466"
       y2="18"
       id="line998" />
    <line
       x1="2"
       y1="34"
       x2="66"
       y2="34"
       id="line1000" />
    <line
       x1="114"
       y1="34"
       x2="146"
       y2="34"
       id="line1002" />
    <line
       x1="194"
       y1="34"
       x2="210"
       y2="34"
       id="line1004" />
    <line
       x1="274"
       y1="34"
       x2="290"
       y2="34"
       id="line1006" />
    <line
       x1="338"
       y1="34"
       x2="354"
       y2="34"
       id="line1008" />
    <line
       x1="386"
       y1="34"
       x2="434"
       y2="34"
       id="line1010" />
    <line
       x1="466"
       y1="34"
       x2="482"
       y2="34"
       id="line1012" />
    <line
       x1="98"
       y1="50"
       x2="162"
       y2="50"
       id="line1014" />
    <line
       x1="178"
       y1="50"
       x2="194"
       y2="50"
       id="line1016" />
    <line
       x1="210"
       y1="50"
       x2="242"
       y2="50"
       id="line1018" />
    <line
       x1="258"
       y1="50"
       x2="274"
       y2="50"
       id="line1020" />
    <line
       x1="322"
       y1="50"
       x2="338"
       y2="50"
       id="line1022" />
    <line
       x1="370"
       y1="50"
       x2="434"
       y2="50"
       id="line1024" />
    <line
       x1="450"
       y1="50"
       x2="482"
       y2="50"
       id="line1026" />
    <line
       x1="18"
       y1="66"
       x2="34"
       y2="66"
       id="line1028" />
    <line
       x1="114"
       y1="66"
       x2="146"
       y2="66"
       id="line1030" />
    <line
       x1="194"
       y1="66"
       x2="210"
       y2="66"
       id="line1032" />
    <line
       x1="274"
       y1="66"
       x2="290"
       y2="66"
       id="line1034" />
    <line
       x1="306"
       y1="66"
       x2="322"
       y2="66"
       id="line1036" />
    <line
       x1="338"
       y1="66"
       x2="370"
       y2="66"
       id="line1038" />
    <line
       x1="402"
       y1="66"
       x2="450"
       y2="66"
       id="line1040" />
    <line
       x1="2"
       y1="82"
       x2="50"
       y2="82"
       id="line1042" />
    <line
       x1="66"
       y1="82"
       x2="98"
       y2="82"
       id="line1044" />
    <line
       x1="162"
       y1="82"
       x2="194"
       y2="82"
       id="line1046" />
    <line
       x1="226"
       y1="82"
       x2="322"
       y2="82"
       id="line1048" />
    <line
       x1="354"
       y1="82"
       x2="370"
       y2="82"
       id="line1050" />
    <line
       x1="418"
       y1="82"
       x2="434"
       y2="82"
       id="line1052" />
    <line
       x1="34"
       y1="98"
       x2="50"
       y2="98"
       id="line1054" />
    <line
       x1="146"
       y1="98"
       x2="162"
       y2="98"
       id="line1056" />
    <line
       x1="194"
       y1="98"
       x2="226"
       y2="98"
       id="line1058" />
    <line
       x1="242"
       y1="98"
       x2="274"
       y2="98"
       id="line1060" />
    <line
       x1="290"
       y1="98"
       x2="306"
       y2="98"
       id="line1062" />
    <line
       x1="402"
       y1="98"
       x2="418"
       y2="98"
       id="line1064" />
    <line
       x1="466"
       y1="98"
       x2="482"
       y2="98"
       id="line1066" />
    <line
       x1="18"
       y1="114"
       x2="34"
       y2="114"
       id="line1068" />
    <line
       x1="50"
       y1="114"
       x2="66"
       y2="114"
       id="line1070" />
    <line
       x1="98"
       y1="114"
       x2="130"
       y2="114"
       id="line1072" />
    <line
       x1="178"
       y1="114"
       x2="210"
       y2="114"
       id="line1074" />
    <line
       x1="242"
       y1="114"
       x2="258"
       y2="114"
       id="line1076" />
    <line
       x1="274"
       y1="114"
       x2="354"
       y2="114"
       id="line1078" />
    <line
       x1="402"
       y1="114"
       x2="434"
       y2="114"
       id="line1080" />
    <line
       x1="450"
       y1="114"
       x2="466"
       y2="114"
       id="line1082" />
    <line
       x1="18"
       y1="130"
       x2="50"
       y2="130"
       id="line1084" />
    <line
       x1="66"
       y1="130"
       x2="82"
       y2="130"
       id="line1086" />
    <line
       x1="114"
       y1="130"
       x2="162"
       y2="130"
       id="line1088" />
    <line
       x1="194"
       y1="130"
       x2="210"
       y2="130"
       id="line1090" />
    <line
       x1="226"
       y1="130"
       x2="242"
       y2="130"
       id="line1092" />
    <line
       x1="290"
       y1="130"
       x2="370"
       y2="130"
       id="line1094" />
    <line
       x1="386"
       y1="130"
       x2="418"
       y2="130"
       id="line1096" />
    <line
       x1="466"
       y1="130"
       x2="482"
       y2="130"
       id="line1098" />
    <line
       x1="18"
       y1="146"
       x2="66"
       y2="146"
       id="line1100" />
    <line
       x1="82"
       y1="146"
       x2="114"
       y2="146"
       id="line1102" />
    <line
       x1="130"
       y1="146"
       x2="146"
       y2="146"
       id="line1104" />
    <line
       x1="178"
       y1="146"
       x2="194"
       y2="146"
       id="line1106" />
    <line
       x1="226"
       y1="146"
       x2="274"
       y2="146"
       id="line1108" />
    <line
       x1="338"
       y1="146"
       x2="354"
       y2="146"
       id="line1110" />
    <line
       x1="418"
       y1="146"
       x2="450"
       y2="146"
       id="line1112" />
    <line
       x1="66"
       y1="162"
       x2="82"
       y2="162"
       id="line1114" />
    <line
       x1="98"
       y1="162"
       x2="130"
       y2="162"
       id="line1116" />
    <line
       x1="146"
       y1="162"
       x2="178"
       y2="162"
       id="line1118" />
    <line
       x1="210"
       y1="162"
       x2="242"
       y2="162"
       id="line1120" />
    <line
       x1="258"
       y1="162"
       x2="290"
       y2="162"
       id="line1122" />
    <line
       x1="306"
       y1="162"
       x2="338"
       y2="162"
       id="line1124" />
    <line
       x1="370"
       y1="162"
       x2="402"
       y2="162"
       id="line1126" />
    <line
       x1="418"
       y1="162"
       x2="434"
       y2="162"
       id="line1128" />
    <line
       x1="34"
       y1="178"
       x2="98"
       y2="178"
       id="line1130" />
    <line
       x1="130"
       y1="178"
       x2="162"
       y2="178"
       id="line1132" />
    <line
       x1="194"
       y1="178"
       x2="258"
       y2="178"
       id="line1134" />
    <line
       x1="274"
       y1="178"
       x2="306"
       y2="178"
       id="line1136" />
    <line
       x1="338"
       y1="178"
       x2="386"
       y2="178"
       id="line1138" />
    <line
       x1="402"
       y1="178"
       x2="418"
       y2="178"
       id="line1140" />
    <line
       x1="434"
       y1="178"
       x2="450"
       y2="178"
       id="line1142" />
    <line
       x1="18"
       y1="194"
       x2="34"
       y2="194"
       id="line1144" />
    <line
       x1="50"
       y1="194"
       x2="162"
       y2="194"
       id="line1146" />
    <line
       x1="178"
       y1="194"
       x2="242"
       y2="194"
       id="line1148" />
    <line
       x1="306"
       y1="194"
       x2="338"
       y2="194"
       id="line1150" />
    <line
       x1="386"
       y1="194"
       x2="402"
       y2="194"
       id="line1152" />
    <line
       x1="418"
       y1="194"
       x2="434"
       y2="194"
       id="line1154" />
    <line
       x1="450"
       y1="194"
       x2="466"
       y2="194"
       id="line1156" />
    <line
       x1="2"
       y1="210"
       x2="66"
       y2="210"
       id="line1158" />
    <line
       x1="130"
       y1="210"
       x2="146"
       y2="210"
       id="line1160" />
    <line
       x1="162"
       y1="210"
       x2="178"
       y2="210"
       id="line1162" />
    <line
       x1="194"
       y1="210"
       x2="210"
       y2="210"
       id="line1164" />
    <line
       x1="290"
       y1="210"
       x2="322"
       y2="210"
       id="line1166" />
    <line
       x1="354"
       y1="210"
       x2="418"
       y2="210"
       id="line1168" />
    <line
       x1="434"
       y1="210"
       x2="450"
       y2="210"
       id="line1170" />
    <line
       x1="466"
       y1="210"
       x2="482"
       y2="210"
       id="line1172" />
    <line
       x1="50"
       y1="226"
       x2="82"
       y2="226"
       id="line1174" />
    <line
       x1="98"
       y1="226"
       x2="130"
       y2="226"
       id="line1176" />
    <line
       x1="146"
       y1="226"
       x2="162"
       y2="226"
       id="line1178" />
    <line
       x1="210"
       y1="226"
       x2="242"
       y2="226"
       id="line1180" />
    <line
       x1="258"
       y1="226"
       x2="290"
       y2="226"
       id="line1182" />
    <line
       x1="322"
       y1="226"
       x2="386"
       y2="226"
       id="line1184" />
    <line
       x1="418"
       y1="226"
       x2="434"
       y2="226"
       id="line1186" />
    <line
       x1="18"
       y1="242"
       x2="50"
       y2="242"
       id="line1188" />
    <line
       x1="82"
       y1="242"
       x2="98"
       y2="242"
       id="line1190" />
    <line
       x1="130"
       y1="242"
       x2="162"
       y2="242"
       id="line1192" />
    <line
       x1="178"
       y1="242"
       x2="210"
       y2="242"
       id="line1194" />
    <line
       x1="242"
       y1="242"
       x2="274"
       y2="242"
       id="line1196" />
    <line
       x1="290"
       y1="242"
       x2="322"
       y2="242"
       id="line1198" />
    <line
       x1="338"
       y1="242"
       x2="370"
       y2="242"
       id="line1200" />
    <line
       x1="418"
       y1="242"
       x2="466"
       y2="242"
       id="line1202" />
    <line
       x1="50"
       y1="258"
       x2="66"
       y2="258"
       id="line1204" />
    <line
       x1="130"
       y1="258"
       x2="146"
       y2="258"
       id="line1206" />
    <line
       x1="162"
       y1="258"
       x2="178"
       y2="258"
       id="line1208" />
    <line
       x1="210"
       y1="258"
       x2="226"
       y2="258"
       id="line1210" />
    <line
       x1="274"
       y1="258"
       x2="354"
       y2="258"
       id="line1212" />
    <line
       x1="402"
       y1="258"
       x2="450"
       y2="258"
       id="line1214" />
    <line
       x1="2"
       y1="274"
       x2="34"
       y2="274"
       id="line1216" />
    <line
       x1="114"
       y1="274"
       x2="130"
       y2="274"
       id="line1218" />
    <line
       x1="194"
       y1="274"
       x2="210"
       y2="274"
       id="line1220" />
    <line
       x1="258"
       y1="274"
       x2="274"
       y2="274"
       id="line1222" />
    <line
       x1="306"
       y1="274"
       x2="402"
       y2="274"
       id="line1224" />
    <line
       x1="418"
       y1="274"
       x2="434"
       y2="274"
       id="line1226" />
    <line
       x1="450"
       y1="274"
       x2="482"
       y2="274"
       id="line1228" />
    <line
       x1="34"
       y1="290"
       x2="50"
       y2="290"
       id="line1230" />
    <line
       x1="66"
       y1="290"
       x2="98"
       y2="290"
       id="line1232" />
    <line
       x1="178"
       y1="290"
       x2="194"
       y2="290"
       id="line1234" />
    <line
       x1="210"
       y1="290"
       x2="258"
       y2="290"
       id="line1236" />
    <line
       x1="290"
       y1="290"
       x2="306"
       y2="290"
       id="line1238" />
    <line
       x1="338"
       y1="290"
       x2="354"
       y2="290"
       id="line1240" />
    <line
       x1="370"
       y1="290"
       x2="386"
       y2="290"
       id="line1242" />
    <line
       x1="402"
       y1="290"
       x2="418"
       y2="290"
       id="line1244" />
    <line
       x1="434"
       y1="290"
       x2="450"
       y2="290"
       id="line1246" />
    <line
       x1="18"
       y1="306"
       x2="34"
       y2="306"
       id="line1248" />
    <line
       x1="50"
       y1="306"
       x2="130"
       y2="306"
       id="line1250" />
    <line
       x1="162"
       y1="306"
       x2="178"
       y2="306"
       id="line1252" />
    <line
       x1="194"
       y1="306"
       x2="226"
       y2="306"
       id="line1254" />
    <line
       x1="242"
       y1="306"
       x2="274"
       y2="306"
       id="line1256" />
    <line
       x1="290"
       y1="306"
       x2="338"
       y2="306"
       id="line1258" />
    <line
       x1="354"
       y1="306"
       x2="370"
       y2="306"
       id="line1260" />
    <line
       x1="386"
       y1="306"
       x2="434"
       y2="306"
       id="line1262" />
    <line
       x1="2"
       y1="322"
       x2="18"
       y2="322"
       id="line1264" />
    <line
       x1="66"
       y1="322"
       x2="114"
       y2="322"
       id="line1266" />
    <line
       x1="146"
       y1="322"
       x2="162"
       y2="322"
       id="line1268" />
    <line
       x1="226"
       y1="322"
       x2="242"
       y2="322"
       id="line1270" />
    <line
       x1="274"
       y1="322"
       x2="290"
       y2="322"
       id="line1272" />
    <line
       x1="370"
       y1="322"
       x2="386"
       y2="322"
       id="line1274" />
    <line
       x1="434"
       y1="322"
       x2="450"
       y2="322"
       id="line1276" />
    <line
       x1="34"
       y1="338"
       x2="146"
       y2="338"
       id="line1278" />
    <line
       x1="178"
       y1="338"
       x2="194"
       y2="338"
       id="line1280" />
    <line
       x1="210"
       y1="338"
       x2="226"
       y2="338"
       id="line1282" />
    <line
       x1="242"
       y1="338"
       x2="258"
       y2="338"
       id="line1284" />
    <line
       x1="322"
       y1="338"
       x2="370"
       y2="338"
       id="line1286" />
    <line
       x1="450"
       y1="338"
       x2="466"
       y2="338"
       id="line1288" />
    <line
       x1="98"
       y1="354"
       x2="210"
       y2="354"
       id="line1290" />
    <line
       x1="226"
       y1="354"
       x2="242"
       y2="354"
       id="line1292" />
    <line
       x1="258"
       y1="354"
       x2="306"
       y2="354"
       id="line1294" />
    <line
       x1="322"
       y1="354"
       x2="338"
       y2="354"
       id="line1296" />
    <line
       x1="370"
       y1="354"
       x2="386"
       y2="354"
       id="line1298" />
    <line
       x1="418"
       y1="354"
       x2="466"
       y2="354"
       id="line1300" />
    <line
       x1="50"
       y1="370"
       x2="66"
       y2="370"
       id="line1302" />
    <line
       x1="82"
       y1="370"
       x2="114"
       y2="370"
       id="line1304" />
    <line
       x1="178"
       y1="370"
       x2="226"
       y2="370"
       id="line1306" />
    <line
       x1="242"
       y1="370"
       x2="274"
       y2="370"
       id="line1308" />
    <line
       x1="290"
       y1="370"
       x2="322"
       y2="370"
       id="line1310" />
    <line
       x1="354"
       y1="370"
       x2="370"
       y2="370"
       id="line1312" />
    <line
       x1="434"
       y1="370"
       x2="450"
       y2="370"
       id="line1314" />
    <line
       x1="34"
       y1="386"
       x2="82"
       y2="386"
       id="line1316" />
    <line
       x1="98"
       y1="386"
       x2="210"
       y2="386"
       id="line1318" />
    <line
       x1="226"
       y1="386"
       x2="290"
       y2="386"
       id="line1320" />
    <line
       x1="322"
       y1="386"
       x2="354"
       y2="386"
       id="line1322" />
    <line
       x1="370"
       y1="386"
       x2="386"
       y2="386"
       id="line1324" />
    <line
       x1="402"
       y1="386"
       x2="434"
       y2="386"
       id="line1326" />
    <line
       x1="2"
       y1="402"
       x2="18"
       y2="402"
       id="line1328" />
    <line
       x1="34"
       y1="402"
       x2="50"
       y2="402"
       id="line1330" />
    <line
       x1="82"
       y1="402"
       x2="130"
       y2="402"
       id="line1332" />
    <line
       x1="162"
       y1="402"
       x2="178"
       y2="402"
       id="line1334" />
    <line
       x1="194"
       y1="402"
       x2="210"
       y2="402"
       id="line1336" />
    <line
       x1="258"
       y1="402"
       x2="274"
       y2="402"
       id="line1338" />
    <line
       x1="386"
       y1="402"
       x2="402"
       y2="402"
       id="line1340" />
    <line
       x1="18"
       y1="418"
       x2="50"
       y2="418"
       id="line1342" />
    <line
       x1="66"
       y1="418"
       x2="82"
       y2="418"
       id="line1344" />
    <line
       x1="98"
       y1="418"
       x2="146"
       y2="418"
       id="line1346" />
    <line
       x1="178"
       y1="418"
       x2="210"
       y2="418"
       id="line1348" />
    <line
       x1="274"
       y1="418"
       x2="306"
       y2="418"
       id="line1350" />
    <line
       x1="322"
       y1="418"
       x2="338"
       y2="418"
       id="line1352" />
    <line
       x1="354"
       y1="418"
       x2="370"
       y2="418"
       id="line1354" />
    <line
       x1="418"
       y1="418"
       x2="434"
       y2="418"
       id="line1356" />
    <line
       x1="34"
       y1="434"
       x2="98"
       y2="434"
       id="line1358" />
    <line
       x1="114"
       y1="434"
       x2="130"
       y2="434"
       id="line1360" />
    <line
       x1="162"
       y1="434"
       x2="194"
       y2="434"
       id="line1362" />
    <line
       x1="258"
       y1="434"
       x2="322"
       y2="434"
       id="line1364" />
    <line
       x1="338"
       y1="434"
       x2="370"
       y2="434"
       id="line1366" />
    <line
       x1="386"
       y1="434"
       x2="418"
       y2="434"
       id="line1368" />
    <line
       x1="434"
       y1="434"
       x2="450"
       y2="434"
       id="line1370" />
    <line
       x1="18"
       y1="450"
       x2="66"
       y2="450"
       id="line1372" />
    <line
       x1="98"
       y1="450"
       x2="114"
       y2="450"
       id="line1374" />
    <line
       x1="130"
       y1="450"
       x2="162"
       y2="450"
       id="line1376" />
    <line
       x1="194"
       y1="450"
       x2="210"
       y2="450"
       id="line1378" />
    <line
       x1="242"
       y1="450"
       x2="274"
       y2="450"
       id="line1380" />
    <line
       x1="370"
       y1="450"
       x2="386"
       y2="450"
       id="line1382" />
    <line
       x1="402"
       y1="450"
       x2="418"
       y2="450"
       id="line1384" />
    <line
       x1="450"
       y1="450"
       x2="482"
       y2="450"
       id="line1386" />
    <line
       x1="66"
       y1="466"
       x2="98"
       y2="466"
       id="line1388" />
    <line
       x1="130"
       y1="466"
       x2="146"
       y2="466"
       id="line1390" />
    <line
       x1="178"
       y1="466"
       x2="194"
       y2="466"
       id="line1392" />
    <line
       x1="258"
       y1="466"
       x2="290"
       y2="466"
       id="line1394" />
    <line
       x1="306"
       y1="466"
       x2="322"
       y2="466"
       id="line1396" />
    <line
       x1="370"
       y1="466"
       x2="402"
       y2="466"
       id="line1398" />
    <line
       x1="434"
       y1="466"
       x2="466"
       y2="466"
       id="line1400" />
    <line
       x1="2"
       y1="482"
       x2="242"
       y2="482"
       id="line1402" />
    <line
       x1="258"
       y1="482"
       x2="482"
       y2="482"
       id="line1404" />
    <line
       x1="2"
       y1="2"
       x2="2"
       y2="482"
       id="line1406" />
    <line
       x1="18"
       y1="18"
       x2="18"
       y2="34"
       id="line1408" />
    <line
       x1="18"
       y1="50"
       x2="18"
       y2="66"
       id="line1410" />
    <line
       x1="18"
       y1="82"
       x2="18"
       y2="114"
       id="line1412" />
    <line
       x1="18"
       y1="146"
       x2="18"
       y2="178"
       id="line1414" />
    <line
       x1="18"
       y1="226"
       x2="18"
       y2="258"
       id="line1416" />
    <line
       x1="18"
       y1="290"
       x2="18"
       y2="306"
       id="line1418" />
    <line
       x1="18"
       y1="338"
       x2="18"
       y2="402"
       id="line1420" />
    <line
       x1="18"
       y1="418"
       x2="18"
       y2="466"
       id="line1422" />
    <line
       x1="34"
       y1="2"
       x2="34"
       y2="18"
       id="line1424" />
    <line
       x1="34"
       y1="34"
       x2="34"
       y2="66"
       id="line1426" />
    <line
       x1="34"
       y1="162"
       x2="34"
       y2="178"
       id="line1428" />
    <line
       x1="34"
       y1="194"
       x2="34"
       y2="226"
       id="line1430" />
    <line
       x1="34"
       y1="242"
       x2="34"
       y2="290"
       id="line1432" />
    <line
       x1="34"
       y1="306"
       x2="34"
       y2="402"
       id="line1434" />
    <line
       x1="34"
       y1="466"
       x2="34"
       y2="482"
       id="line1436" />
    <line
       x1="50"
       y1="50"
       x2="50"
       y2="130"
       id="line1438" />
    <line
       x1="50"
       y1="146"
       x2="50"
       y2="194"
       id="line1440" />
    <line
       x1="50"
       y1="226"
       x2="50"
       y2="242"
       id="line1442" />
    <line
       x1="50"
       y1="258"
       x2="50"
       y2="274"
       id="line1444" />
    <line
       x1="50"
       y1="290"
       x2="50"
       y2="322"
       id="line1446" />
    <line
       x1="50"
       y1="354"
       x2="50"
       y2="370"
       id="line1448" />
    <line
       x1="50"
       y1="418"
       x2="50"
       y2="434"
       id="line1450" />
    <line
       x1="50"
       y1="450"
       x2="50"
       y2="466"
       id="line1452" />
    <line
       x1="66"
       y1="34"
       x2="66"
       y2="66"
       id="line1454" />
    <line
       x1="66"
       y1="82"
       x2="66"
       y2="98"
       id="line1456" />
    <line
       x1="66"
       y1="130"
       x2="66"
       y2="146"
       id="line1458" />
    <line
       x1="66"
       y1="242"
       x2="66"
       y2="290"
       id="line1460" />
    <line
       x1="66"
       y1="322"
       x2="66"
       y2="370"
       id="line1462" />
    <line
       x1="66"
       y1="386"
       x2="66"
       y2="418"
       id="line1464" />
    <line
       x1="82"
       y1="2"
       x2="82"
       y2="66"
       id="line1466" />
    <line
       x1="82"
       y1="98"
       x2="82"
       y2="130"
       id="line1468" />
    <line
       x1="82"
       y1="146"
       x2="82"
       y2="162"
       id="line1470" />
    <line
       x1="82"
       y1="194"
       x2="82"
       y2="210"
       id="line1472" />
    <line
       x1="82"
       y1="226"
       x2="82"
       y2="274"
       id="line1474" />
    <line
       x1="82"
       y1="354"
       x2="82"
       y2="386"
       id="line1476" />
    <line
       x1="82"
       y1="402"
       x2="82"
       y2="418"
       id="line1478" />
    <line
       x1="82"
       y1="434"
       x2="82"
       y2="466"
       id="line1480" />
    <line
       x1="98"
       y1="18"
       x2="98"
       y2="98"
       id="line1482" />
    <line
       x1="98"
       y1="114"
       x2="98"
       y2="146"
       id="line1484" />
    <line
       x1="98"
       y1="162"
       x2="98"
       y2="178"
       id="line1486" />
    <line
       x1="98"
       y1="210"
       x2="98"
       y2="226"
       id="line1488" />
    <line
       x1="98"
       y1="242"
       x2="98"
       y2="290"
       id="line1490" />
    <line
       x1="98"
       y1="338"
       x2="98"
       y2="354"
       id="line1492" />
    <line
       x1="98"
       y1="418"
       x2="98"
       y2="434"
       id="line1494" />
    <line
       x1="114"
       y1="82"
       x2="114"
       y2="114"
       id="line1496" />
    <line
       x1="114"
       y1="130"
       x2="114"
       y2="146"
       id="line1498" />
    <line
       x1="114"
       y1="178"
       x2="114"
       y2="210"
       id="line1500" />
    <line
       x1="114"
       y1="242"
       x2="114"
       y2="290"
       id="line1502" />
    <line
       x1="114"
       y1="434"
       x2="114"
       y2="482"
       id="line1504" />
    <line
       x1="130"
       y1="66"
       x2="130"
       y2="114"
       id="line1506" />
    <line
       x1="130"
       y1="146"
       x2="130"
       y2="178"
       id="line1508" />
    <line
       x1="130"
       y1="210"
       x2="130"
       y2="226"
       id="line1510" />
    <line
       x1="130"
       y1="274"
       x2="130"
       y2="338"
       id="line1512" />
    <line
       x1="130"
       y1="354"
       x2="130"
       y2="370"
       id="line1514" />
    <line
       x1="130"
       y1="434"
       x2="130"
       y2="450"
       id="line1516" />
    <line
       x1="146"
       y1="18"
       x2="146"
       y2="34"
       id="line1518" />
    <line
       x1="146"
       y1="66"
       x2="146"
       y2="82"
       id="line1520" />
    <line
       x1="146"
       y1="98"
       x2="146"
       y2="114"
       id="line1522" />
    <line
       x1="146"
       y1="210"
       x2="146"
       y2="226"
       id="line1524" />
    <line
       x1="146"
       y1="258"
       x2="146"
       y2="322"
       id="line1526" />
    <line
       x1="146"
       y1="370"
       x2="146"
       y2="434"
       id="line1528" />
    <line
       x1="146"
       y1="466"
       x2="146"
       y2="482"
       id="line1530" />
    <line
       x1="162"
       y1="2"
       x2="162"
       y2="98"
       id="line1532" />
    <line
       x1="162"
       y1="114"
       x2="162"
       y2="162"
       id="line1534" />
    <line
       x1="162"
       y1="194"
       x2="162"
       y2="210"
       id="line1536" />
    <line
       x1="162"
       y1="226"
       x2="162"
       y2="306"
       id="line1538" />
    <line
       x1="162"
       y1="322"
       x2="162"
       y2="386"
       id="line1540" />
    <line
       x1="162"
       y1="418"
       x2="162"
       y2="466"
       id="line1542" />
    <line
       x1="178"
       y1="18"
       x2="178"
       y2="66"
       id="line1544" />
    <line
       x1="178"
       y1="98"
       x2="178"
       y2="146"
       id="line1546" />
    <line
       x1="178"
       y1="162"
       x2="178"
       y2="242"
       id="line1548" />
    <line
       x1="178"
       y1="274"
       x2="178"
       y2="290"
       id="line1550" />
    <line
       x1="178"
       y1="306"
       x2="178"
       y2="338"
       id="line1552" />
    <line
       x1="178"
       y1="386"
       x2="178"
       y2="418"
       id="line1554" />
    <line
       x1="178"
       y1="434"
       x2="178"
       y2="450"
       id="line1556" />
    <line
       x1="178"
       y1="466"
       x2="178"
       y2="482"
       id="line1558" />
    <line
       x1="194"
       y1="34"
       x2="194"
       y2="50"
       id="line1560" />
    <line
       x1="194"
       y1="66"
       x2="194"
       y2="98"
       id="line1562" />
    <line
       x1="194"
       y1="146"
       x2="194"
       y2="178"
       id="line1564" />
    <line
       x1="194"
       y1="226"
       x2="194"
       y2="322"
       id="line1566" />
    <line
       x1="194"
       y1="338"
       x2="194"
       y2="354"
       id="line1568" />
    <line
       x1="210"
       y1="50"
       x2="210"
       y2="82"
       id="line1570" />
    <line
       x1="210"
       y1="114"
       x2="210"
       y2="162"
       id="line1572" />
    <line
       x1="210"
       y1="210"
       x2="210"
       y2="226"
       id="line1574" />
    <line
       x1="210"
       y1="242"
       x2="210"
       y2="258"
       id="line1576" />
    <line
       x1="210"
       y1="322"
       x2="210"
       y2="338"
       id="line1578" />
    <line
       x1="210"
       y1="386"
       x2="210"
       y2="402"
       id="line1580" />
    <line
       x1="210"
       y1="418"
       x2="210"
       y2="466"
       id="line1582" />
    <line
       x1="226"
       y1="2"
       x2="226"
       y2="18"
       id="line1584" />
    <line
       x1="226"
       y1="34"
       x2="226"
       y2="50"
       id="line1586" />
    <line
       x1="226"
       y1="66"
       x2="226"
       y2="146"
       id="line1588" />
    <line
       x1="226"
       y1="194"
       x2="226"
       y2="210"
       id="line1590" />
    <line
       x1="226"
       y1="226"
       x2="226"
       y2="242"
       id="line1592" />
    <line
       x1="226"
       y1="258"
       x2="226"
       y2="274"
       id="line1594" />
    <line
       x1="226"
       y1="290"
       x2="226"
       y2="322"
       id="line1596" />
    <line
       x1="226"
       y1="338"
       x2="226"
       y2="466"
       id="line1598" />
    <line
       x1="242"
       y1="18"
       x2="242"
       y2="34"
       id="line1600" />
    <line
       x1="242"
       y1="50"
       x2="242"
       y2="66"
       id="line1602" />
    <line
       x1="242"
       y1="178"
       x2="242"
       y2="194"
       id="line1604" />
    <line
       x1="242"
       y1="210"
       x2="242"
       y2="290"
       id="line1606" />
    <line
       x1="242"
       y1="322"
       x2="242"
       y2="338"
       id="line1608" />
    <line
       x1="242"
       y1="354"
       x2="242"
       y2="370"
       id="line1610" />
    <line
       x1="242"
       y1="386"
       x2="242"
       y2="482"
       id="line1612" />
    <line
       x1="258"
       y1="18"
       x2="258"
       y2="82"
       id="line1614" />
    <line
       x1="258"
       y1="114"
       x2="258"
       y2="146"
       id="line1616" />
    <line
       x1="258"
       y1="162"
       x2="258"
       y2="178"
       id="line1618" />
    <line
       x1="258"
       y1="194"
       x2="258"
       y2="226"
       id="line1620" />
    <line
       x1="258"
       y1="258"
       x2="258"
       y2="274"
       id="line1622" />
    <line
       x1="258"
       y1="306"
       x2="258"
       y2="338"
       id="line1624" />
    <line
       x1="258"
       y1="402"
       x2="258"
       y2="434"
       id="line1626" />
    <line
       x1="258"
       y1="466"
       x2="258"
       y2="482"
       id="line1628" />
    <line
       x1="274"
       y1="98"
       x2="274"
       y2="130"
       id="line1630" />
    <line
       x1="274"
       y1="178"
       x2="274"
       y2="226"
       id="line1632" />
    <line
       x1="274"
       y1="242"
       x2="274"
       y2="258"
       id="line1634" />
    <line
       x1="274"
       y1="274"
       x2="274"
       y2="322"
       id="line1636" />
    <line
       x1="274"
       y1="338"
       x2="274"
       y2="354"
       id="line1638" />
    <line
       x1="290"
       y1="18"
       x2="290"
       y2="66"
       id="line1640" />
    <line
       x1="290"
       y1="82"
       x2="290"
       y2="98"
       id="line1642" />
    <line
       x1="290"
       y1="130"
       x2="290"
       y2="178"
       id="line1644" />
    <line
       x1="290"
       y1="194"
       x2="290"
       y2="210"
       id="line1646" />
    <line
       x1="290"
       y1="258"
       x2="290"
       y2="274"
       id="line1648" />
    <line
       x1="290"
       y1="290"
       x2="290"
       y2="306"
       id="line1650" />
    <line
       x1="290"
       y1="322"
       x2="290"
       y2="338"
       id="line1652" />
    <line
       x1="290"
       y1="370"
       x2="290"
       y2="418"
       id="line1654" />
    <line
       x1="290"
       y1="434"
       x2="290"
       y2="466"
       id="line1656" />
    <line
       x1="306"
       y1="2"
       x2="306"
       y2="34"
       id="line1658" />
    <line
       x1="306"
       y1="50"
       x2="306"
       y2="66"
       id="line1660" />
    <line
       x1="306"
       y1="146"
       x2="306"
       y2="162"
       id="line1662" />
    <line
       x1="306"
       y1="210"
       x2="306"
       y2="242"
       id="line1664" />
    <line
       x1="306"
       y1="274"
       x2="306"
       y2="290"
       id="line1666" />
    <line
       x1="306"
       y1="306"
       x2="306"
       y2="322"
       id="line1668" />
    <line
       x1="306"
       y1="338"
       x2="306"
       y2="370"
       id="line1670" />
    <line
       x1="306"
       y1="386"
       x2="306"
       y2="418"
       id="line1672" />
    <line
       x1="306"
       y1="450"
       x2="306"
       y2="466"
       id="line1674" />
    <line
       x1="322"
       y1="34"
       x2="322"
       y2="50"
       id="line1676" />
    <line
       x1="322"
       y1="66"
       x2="322"
       y2="114"
       id="line1678" />
    <line
       x1="322"
       y1="130"
       x2="322"
       y2="146"
       id="line1680" />
    <line
       x1="322"
       y1="162"
       x2="322"
       y2="194"
       id="line1682" />
    <line
       x1="322"
       y1="242"
       x2="322"
       y2="258"
       id="line1684" />
    <line
       x1="322"
       y1="290"
       x2="322"
       y2="322"
       id="line1686" />
    <line
       x1="322"
       y1="338"
       x2="322"
       y2="354"
       id="line1688" />
    <line
       x1="322"
       y1="370"
       x2="322"
       y2="402"
       id="line1690" />
    <line
       x1="322"
       y1="418"
       x2="322"
       y2="450"
       id="line1692" />
    <line
       x1="322"
       y1="466"
       x2="322"
       y2="482"
       id="line1694" />
    <line
       x1="338"
       y1="18"
       x2="338"
       y2="34"
       id="line1696" />
    <line
       x1="338"
       y1="50"
       x2="338"
       y2="98"
       id="line1698" />
    <line
       x1="338"
       y1="146"
       x2="338"
       y2="162"
       id="line1700" />
    <line
       x1="338"
       y1="178"
       x2="338"
       y2="226"
       id="line1702" />
    <line
       x1="338"
       y1="322"
       x2="338"
       y2="338"
       id="line1704" />
    <line
       x1="338"
       y1="354"
       x2="338"
       y2="370"
       id="line1706" />
    <line
       x1="338"
       y1="402"
       x2="338"
       y2="466"
       id="line1708" />
    <line
       x1="354"
       y1="2"
       x2="354"
       y2="50"
       id="line1710" />
    <line
       x1="354"
       y1="82"
       x2="354"
       y2="114"
       id="line1712" />
    <line
       x1="354"
       y1="162"
       x2="354"
       y2="178"
       id="line1714" />
    <line
       x1="354"
       y1="194"
       x2="354"
       y2="210"
       id="line1716" />
    <line
       x1="354"
       y1="274"
       x2="354"
       y2="322"
       id="line1718" />
    <line
       x1="354"
       y1="338"
       x2="354"
       y2="418"
       id="line1720" />
    <line
       x1="354"
       y1="450"
       x2="354"
       y2="482"
       id="line1722" />
    <line
       x1="370"
       y1="18"
       x2="370"
       y2="66"
       id="line1724" />
    <line
       x1="370"
       y1="82"
       x2="370"
       y2="162"
       id="line1726" />
    <line
       x1="370"
       y1="194"
       x2="370"
       y2="210"
       id="line1728" />
    <line
       x1="370"
       y1="242"
       x2="370"
       y2="274"
       id="line1730" />
    <line
       x1="370"
       y1="386"
       x2="370"
       y2="418"
       id="line1732" />
    <line
       x1="370"
       y1="434"
       x2="370"
       y2="450"
       id="line1734" />
    <line
       x1="386"
       y1="2"
       x2="386"
       y2="18"
       id="line1736" />
    <line
       x1="386"
       y1="50"
       x2="386"
       y2="146"
       id="line1738" />
    <line
       x1="386"
       y1="178"
       x2="386"
       y2="194"
       id="line1740" />
    <line
       x1="386"
       y1="226"
       x2="386"
       y2="274"
       id="line1742" />
    <line
       x1="386"
       y1="290"
       x2="386"
       y2="386"
       id="line1744" />
    <line
       x1="386"
       y1="402"
       x2="386"
       y2="450"
       id="line1746" />
    <line
       x1="402"
       y1="66"
       x2="402"
       y2="114"
       id="line1748" />
    <line
       x1="402"
       y1="146"
       x2="402"
       y2="194"
       id="line1750" />
    <line
       x1="402"
       y1="210"
       x2="402"
       y2="258"
       id="line1752" />
    <line
       x1="402"
       y1="322"
       x2="402"
       y2="402"
       id="line1754" />
    <line
       x1="402"
       y1="418"
       x2="402"
       y2="434"
       id="line1756" />
    <line
       x1="402"
       y1="450"
       x2="402"
       y2="466"
       id="line1758" />
    <line
       x1="418"
       y1="130"
       x2="418"
       y2="146"
       id="line1760" />
    <line
       x1="418"
       y1="194"
       x2="418"
       y2="210"
       id="line1762" />
    <line
       x1="418"
       y1="226"
       x2="418"
       y2="242"
       id="line1764" />
    <line
       x1="418"
       y1="274"
       x2="418"
       y2="370"
       id="line1766" />
    <line
       x1="418"
       y1="402"
       x2="418"
       y2="418"
       id="line1768" />
    <line
       x1="418"
       y1="450"
       x2="418"
       y2="482"
       id="line1770" />
    <line
       x1="434"
       y1="2"
       x2="434"
       y2="34"
       id="line1772" />
    <line
       x1="434"
       y1="82"
       x2="434"
       y2="130"
       id="line1774" />
    <line
       x1="434"
       y1="162"
       x2="434"
       y2="194"
       id="line1776" />
    <line
       x1="434"
       y1="210"
       x2="434"
       y2="226"
       id="line1778" />
    <line
       x1="434"
       y1="258"
       x2="434"
       y2="274"
       id="line1780" />
    <line
       x1="434"
       y1="322"
       x2="434"
       y2="338"
       id="line1782" />
    <line
       x1="434"
       y1="370"
       x2="434"
       y2="402"
       id="line1784" />
    <line
       x1="434"
       y1="418"
       x2="434"
       y2="466"
       id="line1786" />
    <line
       x1="450"
       y1="18"
       x2="450"
       y2="66"
       id="line1788" />
    <line
       x1="450"
       y1="82"
       x2="450"
       y2="114"
       id="line1790" />
    <line
       x1="450"
       y1="130"
       x2="450"
       y2="178"
       id="line1792" />
    <line
       x1="450"
       y1="194"
       x2="450"
       y2="226"
       id="line1794" />
    <line
       x1="450"
       y1="274"
       x2="450"
       y2="322"
       id="line1796" />
    <line
       x1="450"
       y1="370"
       x2="450"
       y2="418"
       id="line1798" />
    <line
       x1="450"
       y1="434"
       x2="450"
       y2="450"
       id="line1800" />
    <line
       x1="466"
       y1="66"
       x2="466"
       y2="98"
       id="line1802" />
    <line
       x1="466"
       y1="114"
       x2="466"
       y2="130"
       id="line1804" />
    <line
       x1="466"
       y1="146"
       x2="466"
       y2="194"
       id="line1806" />
    <line
       x1="466"
       y1="210"
       x2="466"
       y2="226"
       id="line1808" />
    <line
       x1="466"
       y1="242"
       x2="466"
       y2="274"
       id="line1810" />
    <line
       x1="466"
       y1="290"
       x2="466"
       y2="434"
       id="line1812" />
    <line
       x1="482"
       y1="2"
       x2="482"
       y2="482"
       id="line1814" />
  </g>
  <path
     style="fill:#000000;stroke:#000000;stroke-width:2.006;stroke-linecap:butt;stroke-linejoin:miter;stroke-opacity:1;stroke-miterlimit:4;stroke-dasharray:none"
     d="m 226,2 h 16.2"
     id="path2474" />
  <path
     style="fill:none;stroke:#000000;stroke-width:1.9;stroke-linecap:butt;stroke-linejoin:miter;stroke-opacity:1;stroke-miterlimit:4;stroke-dasharray:none"
     d="m 242,482 h 16"
     id="path3528" />
</svg>
