<?xml version="1.0" encoding="UTF-8" standalone="no"?>
<svg
   width="324"
   height="324"
   version="1.1"
   id="svg765"
   sodipodi:docname="20 by 20 orthogonal maze.svg"
   inkscape:version="1.1.2 (0a00cf5339, 2022-02-04)"
   inkscape:export-filename="/home/nitron/ALSAI/worlds/pics/maze3.png"
   inkscape:export-xdpi="96"
   inkscape:export-ydpi="96"
   xmlns:inkscape="http://www.inkscape.org/namespaces/inkscape"
   xmlns:sodipodi="http://sodipodi.sourceforge.net/DTD/sodipodi-0.dtd"
   xmlns="http://www.w3.org/2000/svg"
   xmlns:svg="http://www.w3.org/2000/svg">
  <defs
     id="defs769" />
  <sodipodi:namedview
     id="namedview767"
     pagecolor="#ffffff"
     bordercolor="#666666"
     borderopacity="1.0"
     inkscape:pageshadow="2"
     inkscape:pageopacity="0.0"
     inkscape:pagecheckerboard="0"
     showgrid="false"
     inkscape:zoom="2.4907407"
     inkscape:cx="162"
     inkscape:cy="162"
     inkscape:window-width="1858"
     inkscape:window-height="1016"
     inkscape:window-x="1982"
     inkscape:window-y="27"
     inkscape:window-maximized="1"
     inkscape:current-layer="g763" />
  <title
     id="title413">20 by 20 orthogonal maze</title>
  <desc
     id="desc415">20 by 20 orthogonal maze generated by The Maze Generator Website (https://www.mazegenerator.net/).</desc>
  <g
     fill="none"
     stroke="#000000"
     stroke-width="2"
     stroke-linecap="square"
     id="g763">
    <line
       x1="2"
       y1="2"
       x2="162"
       y2="2"
       id="line417"
       style="stroke-width:2.10819" />
    <line
       x1="162"
       y1="2"
       x2="322"
       y2="2"
       id="line419" />
    <line
       x1="162"
       y1="18"
       x2="178"
       y2="18"
       id="line425" />
    <line
       x1="274"
       y1="18"
       x2="290"
       y2="18"
       id="line429" />
    <line
       x1="33.742424"
       y1="34"
       x2="81.257599"
       y2="34"
       id="line433"
       style="stroke-width:1.72328" />
    <line
       x1="290"
       y1="34"
       x2="306"
       y2="34"
       id="line443" />
    <line
       x1="306"
       y1="50"
       x2="322"
       y2="50"
       id="line453" />
    <line
       x1="50.656857"
       y1="66"
       x2="66.504753"
       y2="66"
       id="line455"
       style="stroke-width:1.40748" />
    <line
       x1="126.47655"
       y1="66"
       x2="194.29358"
       y2="66"
       id="line457"
       style="stroke-width:1.68098" />
    <line
       x1="2"
       y1="153.18657"
       x2="18"
       y2="153.18657"
       id="line471" />
    <line
       x1="35.661621"
       y1="98"
       x2="66"
       y2="98"
       id="line473"
       style="stroke-width:2.75401" />
    <line
       x1="98"
       y1="98"
       x2="146"
       y2="98"
       id="line475" />
    <line
       x1="178"
       y1="98"
       x2="194"
       y2="98"
       id="line477" />
    <line
       x1="18"
       y1="114"
       x2="34"
       y2="114"
       id="line483" />
    <line
       x1="130"
       y1="130"
       x2="194"
       y2="130"
       id="line495" />
    <line
       x1="226"
       y1="130"
       x2="274"
       y2="130"
       id="line497" />
    <line
       x1="66"
       y1="162"
       x2="98"
       y2="162"
       id="line511" />
    <line
       x1="242"
       y1="177.94612"
       x2="274"
       y2="177.94612"
       id="line515" />
    <line
       x1="226"
       y1="178"
       x2="242"
       y2="178"
       id="line521" />
    <line
       x1="178"
       y1="194"
       x2="210"
       y2="194"
       id="line529"
       style="stroke-width:2.82843" />
    <line
       x1="210"
       y1="194"
       x2="226"
       y2="194"
       id="line531"
       style="stroke-width:0.816497" />
    <line
       x1="66"
       y1="210"
       x2="82"
       y2="210"
       id="line535" />
    <line
       x1="178"
       y1="210"
       x2="258"
       y2="210"
       id="line539" />
    <line
       x1="258"
       y1="226"
       x2="274"
       y2="226"
       id="line547"
       style="stroke-width:1.1547" />
    <line
       x1="4.3825836"
       y1="242"
       x2="34"
       y2="242"
       id="line549"
       style="stroke-width:2.72109" />
    <line
       x1="66"
       y1="242"
       x2="82"
       y2="242"
       id="line551" />
    <line
       x1="82"
       y1="242"
       x2="98"
       y2="242"
       id="line553" />
    <line
       x1="132.72964"
       y1="258"
       x2="161.21939"
       y2="258"
       id="line563"
       style="stroke-width:2.66879" />
    <line
       x1="194"
       y1="274"
       x2="226"
       y2="274"
       id="line573"
       style="stroke-width:1.63299" />
    <line
       x1="258"
       y1="274"
       x2="290"
       y2="274"
       id="line575" />
    <line
       x1="82.430649"
       y1="290"
       x2="128.21138"
       y2="290"
       id="line579"
       style="stroke-width:2.39219" />
    <line
       x1="162"
       y1="290"
       x2="194"
       y2="290"
       id="line581" />
    <line
       x1="290"
       y1="290"
       x2="322"
       y2="290"
       id="line585" />
    <line
       x1="2"
       y1="322"
       x2="322"
       y2="322"
       id="line591" />
    <line
       x1="2"
       y1="2"
       x2="2"
       y2="322"
       id="line593" />
    <line
       x1="18"
       y1="113.41429"
       x2="18"
       y2="153.18657"
       id="line599"
       style="stroke-width:1.28731" />
    <line
       x1="34"
       y1="2"
       x2="34"
       y2="34"
       id="line605" />
    <line
       x1="34"
       y1="96.704025"
       x2="34"
       y2="114.44558"
       id="line609"
       style="stroke-width:1.48919" />
    <line
       x1="34"
       y1="210"
       x2="34"
       y2="290"
       id="line613" />
    <line
       x1="34"
       y1="290"
       x2="34"
       y2="322"
       id="line615"
       style="stroke-width:2.82843" />
    <line
       x1="50"
       y1="33.660686"
       x2="50"
       y2="65.37368"
       id="line617"
       style="stroke-width:1.62565" />
    <line
       x1="66"
       y1="66"
       x2="66"
       y2="114"
       id="line625" />
    <line
       x1="66"
       y1="210"
       x2="66"
       y2="242"
       id="line629"
       style="stroke-width:2.82843" />
    <line
       x1="82"
       y1="163.09944"
       x2="82"
       y2="210"
       id="line637"
       style="stroke-width:1.7121" />
    <line
       x1="98"
       y1="130"
       x2="98"
       y2="242"
       id="line645" />
    <line
       x1="114"
       y1="290"
       x2="114"
       y2="322"
       id="line657" />
    <line
       x1="130"
       y1="130"
       x2="130"
       y2="194"
       id="line663" />
    <line
       x1="130"
       y1="225.82944"
       x2="130"
       y2="289.78336"
       id="line665"
       style="stroke-width:1.78821" />
    <line
       x1="146"
       y1="50"
       x2="146"
       y2="66"
       id="line669" />
    <line
       x1="162"
       y1="2"
       x2="162"
       y2="18"
       id="line673" />
    <line
       x1="162"
       y1="258"
       x2="162"
       y2="290"
       id="line681"
       style="stroke-width:1.41421" />
    <line
       x1="178"
       y1="3.8890152"
       x2="178"
       y2="34"
       id="line683"
       style="stroke-width:2.74367" />
    <line
       x1="178"
       y1="194"
       x2="178"
       y2="226"
       id="line685" />
    <line
       x1="194"
       y1="66"
       x2="194"
       y2="98"
       id="line693" />
    <line
       x1="194"
       y1="274"
       x2="194"
       y2="290"
       id="line699"
       style="stroke-width:1.41421" />
    <line
       x1="226"
       y1="306"
       x2="226"
       y2="322"
       id="line707" />
    <line
       x1="226"
       y1="178"
       x2="226"
       y2="194"
       id="line711"
       style="stroke-width:1.1547" />
    <line
       x1="226"
       y1="274"
       x2="226"
       y2="306"
       id="line715" />
    <line
       x1="237.8578"
       y1="32.61195"
       x2="237.8578"
       y2="80.611946"
       id="line719" />
    <line
       x1="258"
       y1="98"
       x2="258"
       y2="130"
       id="line727" />
    <line
       x1="258"
       y1="210"
       x2="258"
       y2="226"
       id="line731" />
    <line
       x1="258"
       y1="258"
       x2="258"
       y2="274"
       id="line733" />
    <line
       x1="274"
       y1="130"
       x2="274"
       y2="226"
       id="line741" />
    <line
       x1="290"
       y1="2"
       x2="290"
       y2="82"
       id="line745" />
    <line
       x1="290"
       y1="274.43481"
       x2="290"
       y2="320.3493"
       id="line749"
       style="stroke-width:2.39569" />
    <line
       x1="306"
       y1="34"
       x2="306"
       y2="50"
       id="line753" />
    <line
       x1="322"
       y1="2"
       x2="322"
       y2="322"
       id="line761" />
  </g>
</svg>
