<?xml version="1.0" encoding="UTF-8" standalone="no"?>
<svg
   width="235"
   height="385.051177665153"
   version="1.1"
   id="svg699"
   sodipodi:docname="maze5.svg"
   inkscape:version="1.1.2 (0a00cf5339, 2022-02-04)"
   inkscape:export-filename="/home/nitron/ALSAI/worlds/pics/maze1.png"
   inkscape:export-xdpi="96"
   inkscape:export-ydpi="96"
   xmlns:inkscape="http://www.inkscape.org/namespaces/inkscape"
   xmlns:sodipodi="http://sodipodi.sourceforge.net/DTD/sodipodi-0.dtd"
   xmlns="http://www.w3.org/2000/svg"
   xmlns:svg="http://www.w3.org/2000/svg">
  <defs
     id="defs703" />
  <sodipodi:namedview
     id="namedview701"
     pagecolor="#ffffff"
     bordercolor="#666666"
     borderopacity="1.0"
     inkscape:pageshadow="2"
     inkscape:pageopacity="0.0"
     inkscape:pagecheckerboard="0"
     showgrid="false"
     inkscape:zoom="2.9639446"
     inkscape:cx="91.263515"
     inkscape:cy="205.63812"
     inkscape:window-width="1858"
     inkscape:window-height="1016"
     inkscape:window-x="1982"
     inkscape:window-y="27"
     inkscape:window-maximized="1"
     inkscape:current-layer="g697" />
  <title
     id="title365">20 by 20 delta maze</title>
  <desc
     id="desc367">20 by 20 delta maze generated by The Maze Generator Website (https://www.mazegenerator.net/).</desc>
  <g
     fill="none"
     stroke="#000000"
     stroke-width="2"
     stroke-linecap="round"
     stroke-linejoin="round"
     id="g697">
    <line
       x1="13"
       y1="1.9999999999999911"
       x2="101"
       y2="1.9999999999999911"
       id="line369" />
    <line
       x1="123"
       y1="1.9999999999999911"
       x2="233"
       y2="1.9999999999999911"
       id="line371" />
    <line
       x1="101"
       y1="2"
       x2="123"
       y2="2"
       id="line373" />
    <line
       x1="46"
       y1="97.262794416288244"
       x2="90"
       y2="97.262794416288244"
       id="line397" />
    <line
       x1="46"
       y1="135.3679"
       x2="68"
       y2="135.3679"
       id="line399" />
    <line
       x1="101"
       y1="154.4204710660612"
       x2="167"
       y2="154.4204710660612"
       id="line409" />
    <line
       x1="77.235977"
       y1="296.32532"
       x2="99.235977"
       y2="296.32532"
       id="line429" />
    <line
       x1="105.44365"
       y1="330.53848"
       x2="127.44365"
       y2="330.53848"
       id="line433" />
    <line
       x1="123"
       y1="306.84094213212234"
       x2="145"
       y2="306.84094213212234"
       id="line439" />
    <line
       x1="13"
       y1="383.051177665153"
       x2="233"
       y2="383.051177665153"
       id="line453" />
    <polyline
       points="13,1.9999999999999911 2,21.052558883257639 13,40.105117766515292 2,59.157676649772938"
       id="polyline455" />
    <line
       x1="2"
       y1="59.157676649772945"
       x2="13"
       y2="78.2102355330306"
       id="line457" />
    <line
       x1="13"
       y1="78.210235533030584"
       x2="2"
       y2="97.262794416288244"
       id="line459" />
    <polyline
       points="2,97.26279441628823 13,116.31535329954589 2,135.36791218280354 13,154.42047106606117"
       id="polyline461" />
    <line
       x1="13"
       y1="154.4204710660612"
       x2="2"
       y2="173.47302994931883"
       id="line463" />
    <polyline
       points="2,173.47302994931886 13,192.52558883257649 2,211.57814771583412"
       id="polyline465" />
    <line
       x1="2"
       y1="211.57814771583415"
       x2="13"
       y2="230.63070659909178"
       id="line467" />
    <line
       x1="13"
       y1="230.63070659909181"
       x2="2"
       y2="249.68326548234944"
       id="line469" />
    <polyline
       points="2,249.68326548234941 13,268.73582436560707 2,287.78838324886476 13,306.84094213212245"
       id="polyline471" />
    <polyline
       points="13,306.84094213212234 2,325.89350101538 13,344.94605989863771 2,363.9986187818954"
       id="polyline473" />
    <line
       x1="2"
       y1="363.99861878189529"
       x2="13"
       y2="383.051177665153"
       id="line475" />
    <line
       x1="79"
       y1="344.94604"
       x2="68"
       y2="363.9986"
       id="line495" />
    <line
       x1="46"
       y1="59.157676649772945"
       x2="57"
       y2="78.2102355330306"
       id="line507" />
    <line
       x1="57"
       y1="78.210235533030584"
       x2="46"
       y2="97.262794416288244"
       id="line509" />
    <line
       x1="79"
       y1="116.31535"
       x2="68"
       y2="135.3679"
       id="line509-3" />
    <line
       x1="57"
       y1="230.63071"
       x2="68"
       y2="249.68327"
       id="line517" />
    <line
       x1="79"
       y1="1.9999999999999911"
       x2="68"
       y2="21.052558883257639"
       id="line529" />
    <polyline
       points="79,116.31535329954589 68,135.36791218280354 79,154.42047106606117"
       id="polyline535"
       transform="matrix(0,0,0,0.4999998,68,58.1577)" />
    <line
       x1="90"
       y1="173.47302"
       x2="90"
       y2="173.47302"
       id="line545"
       style="stroke-width:0" />
    <line
       x1="46"
       y1="249.68326"
       x2="57"
       y2="268.73581"
       id="line549" />
    <line
       x1="101"
       y1="154.4204710660612"
       x2="90"
       y2="173.47302994931883"
       id="line553" />
    <polyline
       points="90,173.47302994931886 101,192.52558883257649 90,211.57814771583412"
       id="polyline555" />
    <line
       x1="57"
       y1="230.63071"
       x2="46"
       y2="249.68326"
       id="line561" />
    <line
       x1="112"
       y1="135.36791218280354"
       x2="101"
       y2="154.42047106606117"
       id="line565" />
    <line
       x1="145"
       y1="2"
       x2="156"
       y2="21.052559"
       id="line571" />
    <line
       x1="99.235977"
       y1="296.32532"
       x2="120.95809"
       y2="306.79904"
       id="line587"
       style="stroke-width:2.08381" />
    <line
       x1="134"
       y1="59.157676649772945"
       x2="145"
       y2="78.2102355330306"
       id="line591" />
    <line
       x1="145"
       y1="154.4204710660612"
       x2="134"
       y2="173.47302994931883"
       id="line593" />
    <line
       x1="145"
       y1="78.210235533030584"
       x2="156"
       y2="97.262794416288244"
       id="line601" />
    <line
       x1="112"
       y1="21.052559"
       x2="101"
       y2="40.105118"
       id="line603" />
    <line
       x1="156"
       y1="287.78838324886476"
       x2="145"
       y2="306.84094213212245"
       id="line607" />
    <line
       x1="79"
       y1="344.94604"
       x2="90"
       y2="363.99863"
       id="line609" />
    <line
       x1="167"
       y1="192.52557"
       x2="174.48805"
       y2="205.32668"
       id="line613"
       style="stroke-width:1.35259" />
    <line
       x1="167"
       y1="230.63070659909181"
       x2="156"
       y2="249.68326548234944"
       id="line615" />
    <polyline
       points="156,249.68326548234941 167,268.73582436560707 156,287.78838324886476"
       id="polyline617" />
    <line
       x1="167"
       y1="154.4204710660612"
       x2="178"
       y2="173.47302994931883"
       id="line625" />
    <line
       x1="167"
       y1="192.52558883257649"
       x2="178"
       y2="211.57814771583412"
       id="line627" />
    <line
       x1="178"
       y1="211.57814771583415"
       x2="167"
       y2="230.63070659909178"
       id="line629" />
    <line
       x1="178"
       y1="173.47302"
       x2="167"
       y2="192.52557"
       id="line631" />
    <line
       x1="101"
       y1="2"
       x2="112"
       y2="21.052559"
       id="line645" />
    <line
       x1="178"
       y1="135.3679"
       x2="167"
       y2="154.42047"
       id="line649" />
    <line
       x1="167"
       y1="344.94608"
       x2="156"
       y2="363.99863"
       id="line655" />
    <line
       x1="179.92941"
       y1="46.848549"
       x2="190.92941"
       y2="65.901108"
       id="line667" />
    <polyline
       points="233,1.9999999999999911 222,21.052558883257639 233,40.105117766515292 222,59.157676649772938"
       id="polyline675" />
    <line
       x1="222"
       y1="59.157676649772945"
       x2="233"
       y2="78.2102355330306"
       id="line677" />
    <line
       x1="233"
       y1="78.210235533030584"
       x2="222"
       y2="97.262794416288244"
       id="line679" />
    <polyline
       points="222,97.26279441628823 233,116.31535329954589 222,135.36791218280354 233,154.42047106606117"
       id="polyline681" />
    <line
       x1="233"
       y1="154.4204710660612"
       x2="222"
       y2="173.47302994931883"
       id="line683" />
    <polyline
       points="222,173.47302994931886 233,192.52558883257649 222,211.57814771583412"
       id="polyline685" />
    <line
       x1="222"
       y1="211.57814771583415"
       x2="233"
       y2="230.63070659909178"
       id="line687" />
    <line
       x1="233"
       y1="230.63070659909181"
       x2="222"
       y2="249.68326548234944"
       id="line689" />
    <polyline
       points="222,249.68326548234941 233,268.73582436560707 222,287.78838324886476 233,306.84094213212245"
       id="polyline691" />
    <polyline
       points="233,306.84094213212234 222,325.89350101538 233,344.94605989863771 222,363.9986187818954"
       id="polyline693" />
    <line
       x1="222"
       y1="363.99861878189529"
       x2="233"
       y2="383.051177665153"
       id="line695" />
    <path
       style="fill:none;stroke:#000000;stroke-width:1px;stroke-linecap:butt;stroke-linejoin:miter;stroke-opacity:1"
       d="M 41.738364,310.00646 55.338456,328.3996 41.143862,346.13077"
       id="path2149" />
    <path
       style="fill:none;stroke:#000000;stroke-width:1px;stroke-linecap:butt;stroke-linejoin:miter;stroke-opacity:1"
       d="m 195.05835,315.96508 -12.7259,-11.42909 18.39798,-23.4301 -8.49682,-15.64838"
       id="path3224" />
    <path
       style="fill:none;stroke:#000000;stroke-width:1px;stroke-linecap:butt;stroke-linejoin:miter;stroke-opacity:1"
       d="m 222,135.36791 v 0 l -21.75666,18.31149"
       id="path3226" />
    <path
       style="fill:none;stroke:#000000;stroke-width:1px;stroke-linecap:butt;stroke-linejoin:miter;stroke-opacity:1"
       d="M 190.92941,65.901108 156,97.262794"
       id="path3228" />
    <path
       style="fill:none;stroke:#000000;stroke-width:1px;stroke-linecap:butt;stroke-linejoin:miter;stroke-opacity:1"
       d="m 156,21.052559 28.78035,-4.774005"
       id="path3230" />
    <path
       style="fill:none;stroke:#000000;stroke-width:1px;stroke-linecap:butt;stroke-linejoin:miter;stroke-opacity:1"
       d="M 46,59.157677 41.140367,35.239602"
       id="path3232" />
    <path
       style="fill:none;stroke:#000000;stroke-width:1px;stroke-linecap:butt;stroke-linejoin:miter;stroke-opacity:1"
       d="m 101,40.105118 0.88514,26.375563"
       id="path3234" />
    <path
       style="fill:none;stroke:#000000;stroke-width:1px;stroke-linecap:butt;stroke-linejoin:miter;stroke-opacity:1"
       d="M 138.85089,126.9661 128.34166,112.11259"
       id="path3236" />
    <path
       style="fill:none;stroke:#000000;stroke-width:1px;stroke-linecap:butt;stroke-linejoin:miter;stroke-opacity:1"
       d="M 128.34166,112.11259 156,97.262794"
       id="path3238" />
    <path
       style="fill:none;stroke:#000000;stroke-width:1px;stroke-linecap:butt;stroke-linejoin:miter;stroke-opacity:1"
       d="m 90,211.57815 4.617038,2.23104 36.307292,-1.31832 -9.15394,26.14277"
       id="path3240" />
    <path
       style="fill:none;stroke:#000000;stroke-width:1px;stroke-linecap:butt;stroke-linejoin:miter;stroke-opacity:1"
       d="M 122.20606,270.03838 105.63521,258.843"
       id="path3242" />
    <path
       style="fill:none;stroke:#000000;stroke-width:1px;stroke-linecap:butt;stroke-linejoin:miter;stroke-opacity:1"
       d="m 42.256157,175.34466 4.757004,21.1416 18.738598,-7.56362 -2.06669,-24.8182"
       id="path3244" />
    <path
       style="fill:none;stroke:#000000;stroke-width:1px;stroke-linecap:butt;stroke-linejoin:miter;stroke-opacity:1"
       d="m 167,344.94608 27.23297,1.94286"
       id="path3246" />
    <path
       style="fill:none;stroke:#000000;stroke-width:1px;stroke-linecap:butt;stroke-linejoin:miter;stroke-opacity:1"
       d="M 200.73043,281.10589 222,287.78838"
       id="path3248" />
    <path
       style="fill:none;stroke:#000000;stroke-width:1px;stroke-linecap:butt;stroke-linejoin:miter;stroke-opacity:1"
       d="m 112,21.052559 16.51744,6.669067"
       id="path3250" />
    <path
       style="fill:none;stroke:#000000;stroke-width:1px;stroke-linecap:butt;stroke-linejoin:miter;stroke-opacity:1"
       d="M 41.738364,310.00646 77.235977,296.32532"
       id="path3252" />
    <path
       style="fill:none;stroke:#000000;stroke-width:1px;stroke-linecap:butt;stroke-linejoin:miter;stroke-opacity:1"
       d="m 90,363.99863 38.42815,-0.9244"
       id="path3527" />
  </g>
</svg>
