<?xml version="1.0" encoding="UTF-8" standalone="no"?>
<svg
   width="484"
   height="484"
   version="1.1"
   id="svg6296"
   sodipodi:docname="maze5.svg"
   inkscape:version="1.1.2 (0a00cf5339, 2022-02-04)"
   inkscape:export-filename="/home/nitron/ALSAI/worlds/pics/maze5.png"
   inkscape:export-xdpi="96.199997"
   inkscape:export-ydpi="96.199997"
   xmlns:inkscape="http://www.inkscape.org/namespaces/inkscape"
   xmlns:sodipodi="http://sodipodi.sourceforge.net/DTD/sodipodi-0.dtd"
   xmlns="http://www.w3.org/2000/svg"
   xmlns:svg="http://www.w3.org/2000/svg">
  <defs
     id="defs6300" />
  <sodipodi:namedview
     id="namedview6298"
     pagecolor="#ffffff"
     bordercolor="#666666"
     borderopacity="1.0"
     inkscape:pageshadow="2"
     inkscape:pageopacity="0.0"
     inkscape:pagecheckerboard="0"
     showgrid="false"
     inkscape:zoom="1.233054"
     inkscape:cx="234.78291"
     inkscape:cy="214.50805"
     inkscape:window-width="1858"
     inkscape:window-height="1016"
     inkscape:window-x="1982"
     inkscape:window-y="27"
     inkscape:window-maximized="1"
     inkscape:current-layer="svg6296" />
  <title
     id="title5444">30 by 30 orthogonal maze</title>
  <desc
     id="desc5446">30 by 30 orthogonal maze generated by The Maze Generator Website (https://www.mazegenerator.net/).</desc>
  <g
     fill="none"
     stroke="#000000"
     stroke-width="2"
     stroke-linecap="square"
     id="g6294">
    <line
       x1="2"
       y1="2"
       x2="226"
       y2="2"
       id="line5448" />
    <line
       x1="242"
       y1="2"
       x2="482"
       y2="2"
       id="line5450" />
    <line
       x1="82"
       y1="18"
       x2="98"
       y2="18"
       id="line5452" />
    <line
       x1="114"
       y1="18"
       x2="130"
       y2="18"
       id="line5454" />
    <line
       x1="178"
       y1="18"
       x2="210"
       y2="18"
       id="line5456" />
    <line
       x1="274"
       y1="18"
       x2="290"
       y2="18"
       id="line5458" />
    <line
       x1="322"
       y1="18"
       x2="354"
       y2="18"
       id="line5460" />
    <line
       x1="402"
       y1="18"
       x2="418"
       y2="18"
       id="line5462" />
    <line
       x1="434"
       y1="18"
       x2="466"
       y2="18"
       id="line5464" />
    <line
       x1="98"
       y1="34"
       x2="114"
       y2="34"
       id="line5466" />
    <line
       x1="242"
       y1="34"
       x2="274"
       y2="34"
       id="line5468" />
    <line
       x1="338"
       y1="34"
       x2="354"
       y2="34"
       id="line5470" />
    <line
       x1="386"
       y1="34"
       x2="402"
       y2="34"
       id="line5472" />
    <line
       x1="418"
       y1="34"
       x2="450"
       y2="34"
       id="line5474" />
    <line
       x1="2"
       y1="50"
       x2="130"
       y2="50"
       id="line5476" />
    <line
       x1="146"
       y1="50"
       x2="178"
       y2="50"
       id="line5478" />
    <line
       x1="194"
       y1="50"
       x2="226"
       y2="50"
       id="line5480" />
    <line
       x1="274"
       y1="50"
       x2="306"
       y2="50"
       id="line5482" />
    <line
       x1="322"
       y1="50"
       x2="338"
       y2="50"
       id="line5484" />
    <line
       x1="370"
       y1="50"
       x2="386"
       y2="50"
       id="line5486" />
    <line
       x1="402"
       y1="50"
       x2="418"
       y2="50"
       id="line5488" />
    <line
       x1="466"
       y1="50"
       x2="482"
       y2="50"
       id="line5490" />
    <line
       x1="50"
       y1="66"
       x2="114"
       y2="66"
       id="line5492" />
    <line
       x1="146"
       y1="66"
       x2="178"
       y2="66"
       id="line5494" />
    <line
       x1="242"
       y1="66"
       x2="258"
       y2="66"
       id="line5496" />
    <line
       x1="322"
       y1="66"
       x2="370"
       y2="66"
       id="line5498" />
    <line
       x1="386"
       y1="66"
       x2="402"
       y2="66"
       id="line5500" />
    <line
       x1="418"
       y1="66"
       x2="466"
       y2="66"
       id="line5502" />
    <line
       x1="82"
       y1="82"
       x2="98"
       y2="82"
       id="line5504" />
    <line
       x1="130"
       y1="82"
       x2="162"
       y2="82"
       id="line5506" />
    <line
       x1="258"
       y1="82"
       x2="306"
       y2="82"
       id="line5508" />
    <line
       x1="338"
       y1="82"
       x2="354"
       y2="82"
       id="line5510" />
    <line
       x1="386"
       y1="82"
       x2="402"
       y2="82"
       id="line5512" />
    <line
       x1="450"
       y1="82"
       x2="482"
       y2="82"
       id="line5514" />
    <line
       x1="50"
       y1="98"
       x2="82"
       y2="98"
       id="line5516" />
    <line
       x1="130"
       y1="98"
       x2="194"
       y2="98"
       id="line5518" />
    <line
       x1="210"
       y1="98"
       x2="242"
       y2="98"
       id="line5520" />
    <line
       x1="258"
       y1="98"
       x2="290"
       y2="98"
       id="line5522" />
    <line
       x1="354"
       y1="98"
       x2="370"
       y2="98"
       id="line5524" />
    <line
       x1="386"
       y1="98"
       x2="402"
       y2="98"
       id="line5526" />
    <line
       x1="434"
       y1="98"
       x2="466"
       y2="98"
       id="line5528" />
    <line
       x1="18"
       y1="114"
       x2="50"
       y2="114"
       id="line5530" />
    <line
       x1="82"
       y1="114"
       x2="114"
       y2="114"
       id="line5532" />
    <line
       x1="162"
       y1="114"
       x2="178"
       y2="114"
       id="line5534" />
    <line
       x1="194"
       y1="114"
       x2="210"
       y2="114"
       id="line5536" />
    <line
       x1="306"
       y1="114"
       x2="338"
       y2="114"
       id="line5538" />
    <line
       x1="370"
       y1="114"
       x2="386"
       y2="114"
       id="line5540" />
    <line
       x1="402"
       y1="114"
       x2="418"
       y2="114"
       id="line5542" />
    <line
       x1="34"
       y1="130"
       x2="66"
       y2="130"
       id="line5544" />
    <line
       x1="130"
       y1="130"
       x2="146"
       y2="130"
       id="line5546" />
    <line
       x1="178"
       y1="130"
       x2="194"
       y2="130"
       id="line5548" />
    <line
       x1="210"
       y1="130"
       x2="258"
       y2="130"
       id="line5550" />
    <line
       x1="274"
       y1="130"
       x2="322"
       y2="130"
       id="line5552" />
    <line
       x1="354"
       y1="130"
       x2="402"
       y2="130"
       id="line5554" />
    <line
       x1="418"
       y1="130"
       x2="450"
       y2="130"
       id="line5556" />
    <line
       x1="2"
       y1="146"
       x2="34"
       y2="146"
       id="line5558" />
    <line
       x1="50"
       y1="146"
       x2="66"
       y2="146"
       id="line5560" />
    <line
       x1="98"
       y1="146"
       x2="178"
       y2="146"
       id="line5562" />
    <line
       x1="194"
       y1="146"
       x2="210"
       y2="146"
       id="line5564" />
    <line
       x1="242"
       y1="146"
       x2="274"
       y2="146"
       id="line5566" />
    <line
       x1="322"
       y1="146"
       x2="386"
       y2="146"
       id="line5568" />
    <line
       x1="402"
       y1="146"
       x2="450"
       y2="146"
       id="line5570" />
    <line
       x1="18"
       y1="162"
       x2="34"
       y2="162"
       id="line5572" />
    <line
       x1="50"
       y1="162"
       x2="66"
       y2="162"
       id="line5574" />
    <line
       x1="98"
       y1="162"
       x2="114"
       y2="162"
       id="line5576" />
    <line
       x1="146"
       y1="162"
       x2="162"
       y2="162"
       id="line5578" />
    <line
       x1="178"
       y1="162"
       x2="194"
       y2="162"
       id="line5580" />
    <line
       x1="226"
       y1="162"
       x2="242"
       y2="162"
       id="line5582" />
    <line
       x1="274"
       y1="162"
       x2="306"
       y2="162"
       id="line5584" />
    <line
       x1="354"
       y1="162"
       x2="370"
       y2="162"
       id="line5586" />
    <line
       x1="386"
       y1="162"
       x2="402"
       y2="162"
       id="line5588" />
    <line
       x1="418"
       y1="162"
       x2="466"
       y2="162"
       id="line5590" />
    <line
       x1="66"
       y1="178"
       x2="82"
       y2="178"
       id="line5592" />
    <line
       x1="114"
       y1="178"
       x2="130"
       y2="178"
       id="line5594" />
    <line
       x1="242"
       y1="178"
       x2="258"
       y2="178"
       id="line5596" />
    <line
       x1="290"
       y1="178"
       x2="322"
       y2="178"
       id="line5598" />
    <line
       x1="338"
       y1="178"
       x2="386"
       y2="178"
       id="line5600" />
    <line
       x1="402"
       y1="178"
       x2="418"
       y2="178"
       id="line5602" />
    <line
       x1="34"
       y1="194"
       x2="50"
       y2="194"
       id="line5604" />
    <line
       x1="66"
       y1="194"
       x2="82"
       y2="194"
       id="line5606" />
    <line
       x1="114"
       y1="194"
       x2="162"
       y2="194"
       id="line5608" />
    <line
       x1="178"
       y1="194"
       x2="194"
       y2="194"
       id="line5610" />
    <line
       x1="242"
       y1="194"
       x2="338"
       y2="194"
       id="line5612" />
    <line
       x1="354"
       y1="194"
       x2="402"
       y2="194"
       id="line5614" />
    <line
       x1="418"
       y1="194"
       x2="434"
       y2="194"
       id="line5616" />
    <line
       x1="450"
       y1="194"
       x2="466"
       y2="194"
       id="line5618" />
    <line
       x1="50"
       y1="210"
       x2="66"
       y2="210"
       id="line5620" />
    <line
       x1="98"
       y1="210"
       x2="146"
       y2="210"
       id="line5622" />
    <line
       x1="162"
       y1="210"
       x2="178"
       y2="210"
       id="line5624" />
    <line
       x1="194"
       y1="210"
       x2="242"
       y2="210"
       id="line5626" />
    <line
       x1="258"
       y1="210"
       x2="322"
       y2="210"
       id="line5628" />
    <line
       x1="338"
       y1="210"
       x2="386"
       y2="210"
       id="line5630" />
    <line
       x1="418"
       y1="210"
       x2="450"
       y2="210"
       id="line5632" />
    <line
       x1="466"
       y1="210"
       x2="482"
       y2="210"
       id="line5634" />
    <line
       x1="18"
       y1="226"
       x2="50"
       y2="226"
       id="line5636" />
    <line
       x1="114"
       y1="226"
       x2="130"
       y2="226"
       id="line5638" />
    <line
       x1="162"
       y1="226"
       x2="210"
       y2="226"
       id="line5640" />
    <line
       x1="242"
       y1="226"
       x2="290"
       y2="226"
       id="line5642" />
    <line
       x1="322"
       y1="226"
       x2="354"
       y2="226"
       id="line5644" />
    <line
       x1="386"
       y1="226"
       x2="402"
       y2="226"
       id="line5646" />
    <line
       x1="450"
       y1="226"
       x2="466"
       y2="226"
       id="line5648" />
    <line
       x1="34"
       y1="242"
       x2="66"
       y2="242"
       id="line5650" />
    <line
       x1="98"
       y1="242"
       x2="130"
       y2="242"
       id="line5652" />
    <line
       x1="162"
       y1="242"
       x2="194"
       y2="242"
       id="line5654" />
    <line
       x1="210"
       y1="242"
       x2="338"
       y2="242"
       id="line5656" />
    <line
       x1="402"
       y1="242"
       x2="466"
       y2="242"
       id="line5658" />
    <line
       x1="18"
       y1="258"
       x2="34"
       y2="258"
       id="line5660" />
    <line
       x1="66"
       y1="258"
       x2="98"
       y2="258"
       id="line5662" />
    <line
       x1="114"
       y1="258"
       x2="130"
       y2="258"
       id="line5664" />
    <line
       x1="146"
       y1="258"
       x2="178"
       y2="258"
       id="line5666" />
    <line
       x1="194"
       y1="258"
       x2="210"
       y2="258"
       id="line5668" />
    <line
       x1="306"
       y1="258"
       x2="338"
       y2="258"
       id="line5670" />
    <line
       x1="386"
       y1="258"
       x2="418"
       y2="258"
       id="line5672" />
    <line
       x1="18"
       y1="274"
       x2="34"
       y2="274"
       id="line5674" />
    <line
       x1="50"
       y1="274"
       x2="82"
       y2="274"
       id="line5676" />
    <line
       x1="130"
       y1="274"
       x2="194"
       y2="274"
       id="line5678" />
    <line
       x1="210"
       y1="274"
       x2="258"
       y2="274"
       id="line5680" />
    <line
       x1="274"
       y1="274"
       x2="290"
       y2="274"
       id="line5682" />
    <line
       x1="306"
       y1="274"
       x2="354"
       y2="274"
       id="line5684" />
    <line
       x1="370"
       y1="274"
       x2="402"
       y2="274"
       id="line5686" />
    <line
       x1="450"
       y1="274"
       x2="482"
       y2="274"
       id="line5688" />
    <line
       x1="2"
       y1="290"
       x2="18"
       y2="290"
       id="line5690" />
    <line
       x1="34"
       y1="290"
       x2="50"
       y2="290"
       id="line5692" />
    <line
       x1="82"
       y1="290"
       x2="98"
       y2="290"
       id="line5694" />
    <line
       x1="194"
       y1="290"
       x2="274"
       y2="290"
       id="line5696" />
    <line
       x1="290"
       y1="290"
       x2="306"
       y2="290"
       id="line5698" />
    <line
       x1="402"
       y1="290"
       x2="418"
       y2="290"
       id="line5700" />
    <line
       x1="434"
       y1="290"
       x2="466"
       y2="290"
       id="line5702" />
    <line
       x1="18"
       y1="306"
       x2="34"
       y2="306"
       id="line5704" />
    <line
       x1="50"
       y1="306"
       x2="114"
       y2="306"
       id="line5706" />
    <line
       x1="178"
       y1="306"
       x2="258"
       y2="306"
       id="line5708" />
    <line
       x1="274"
       y1="306"
       x2="290"
       y2="306"
       id="line5710" />
    <line
       x1="354"
       y1="306"
       x2="402"
       y2="306"
       id="line5712" />
    <line
       x1="418"
       y1="306"
       x2="450"
       y2="306"
       id="line5714" />
    <line
       x1="162"
       y1="322"
       x2="178"
       y2="322"
       id="line5716" />
    <line
       x1="210"
       y1="322"
       x2="226"
       y2="322"
       id="line5718" />
    <line
       x1="274"
       y1="322"
       x2="290"
       y2="322"
       id="line5720" />
    <line
       x1="354"
       y1="322"
       x2="466"
       y2="322"
       id="line5722" />
    <line
       x1="98"
       y1="338"
       x2="130"
       y2="338"
       id="line5724" />
    <line
       x1="178"
       y1="338"
       x2="210"
       y2="338"
       id="line5726" />
    <line
       x1="226"
       y1="338"
       x2="274"
       y2="338"
       id="line5728" />
    <line
       x1="306"
       y1="338"
       x2="322"
       y2="338"
       id="line5730" />
    <line
       x1="338"
       y1="338"
       x2="386"
       y2="338"
       id="line5732" />
    <line
       x1="450"
       y1="338"
       x2="466"
       y2="338"
       id="line5734" />
    <line
       x1="18"
       y1="354"
       x2="66"
       y2="354"
       id="line5736" />
    <line
       x1="98"
       y1="354"
       x2="162"
       y2="354"
       id="line5738" />
    <line
       x1="226"
       y1="354"
       x2="258"
       y2="354"
       id="line5740" />
    <line
       x1="290"
       y1="354"
       x2="306"
       y2="354"
       id="line5742" />
    <line
       x1="338"
       y1="354"
       x2="354"
       y2="354"
       id="line5744" />
    <line
       x1="370"
       y1="354"
       x2="386"
       y2="354"
       id="line5746" />
    <line
       x1="434"
       y1="354"
       x2="450"
       y2="354"
       id="line5748" />
    <line
       x1="50"
       y1="370"
       x2="98"
       y2="370"
       id="line5750" />
    <line
       x1="130"
       y1="370"
       x2="146"
       y2="370"
       id="line5752" />
    <line
       x1="194"
       y1="370"
       x2="226"
       y2="370"
       id="line5754" />
    <line
       x1="258"
       y1="370"
       x2="306"
       y2="370"
       id="line5756" />
    <line
       x1="322"
       y1="370"
       x2="386"
       y2="370"
       id="line5758" />
    <line
       x1="402"
       y1="370"
       x2="434"
       y2="370"
       id="line5760" />
    <line
       x1="2"
       y1="386"
       x2="66"
       y2="386"
       id="line5762" />
    <line
       x1="82"
       y1="386"
       x2="98"
       y2="386"
       id="line5764" />
    <line
       x1="114"
       y1="386"
       x2="130"
       y2="386"
       id="line5766" />
    <line
       x1="178"
       y1="386"
       x2="210"
       y2="386"
       id="line5768" />
    <line
       x1="242"
       y1="386"
       x2="258"
       y2="386"
       id="line5770" />
    <line
       x1="274"
       y1="386"
       x2="290"
       y2="386"
       id="line5772" />
    <line
       x1="306"
       y1="386"
       x2="322"
       y2="386"
       id="line5774" />
    <line
       x1="386"
       y1="386"
       x2="450"
       y2="386"
       id="line5776" />
    <line
       x1="466"
       y1="386"
       x2="482"
       y2="386"
       id="line5778" />
    <line
       x1="66"
       y1="402"
       x2="82"
       y2="402"
       id="line5780" />
    <line
       x1="98"
       y1="402"
       x2="114"
       y2="402"
       id="line5782" />
    <line
       x1="146"
       y1="402"
       x2="178"
       y2="402"
       id="line5784" />
    <line
       x1="194"
       y1="402"
       x2="226"
       y2="402"
       id="line5786" />
    <line
       x1="258"
       y1="402"
       x2="274"
       y2="402"
       id="line5788" />
    <line
       x1="322"
       y1="402"
       x2="354"
       y2="402"
       id="line5790" />
    <line
       x1="418"
       y1="402"
       x2="466"
       y2="402"
       id="line5792" />
    <line
       x1="2"
       y1="418"
       x2="18"
       y2="418"
       id="line5794" />
    <line
       x1="34"
       y1="418"
       x2="66"
       y2="418"
       id="line5796" />
    <line
       x1="82"
       y1="418"
       x2="98"
       y2="418"
       id="line5798" />
    <line
       x1="178"
       y1="418"
       x2="194"
       y2="418"
       id="line5800" />
    <line
       x1="210"
       y1="418"
       x2="258"
       y2="418"
       id="line5802" />
    <line
       x1="274"
       y1="418"
       x2="290"
       y2="418"
       id="line5804" />
    <line
       x1="354"
       y1="418"
       x2="402"
       y2="418"
       id="line5806" />
    <line
       x1="418"
       y1="418"
       x2="434"
       y2="418"
       id="line5808" />
    <line
       x1="450"
       y1="418"
       x2="482"
       y2="418"
       id="line5810" />
    <line
       x1="66"
       y1="434"
       x2="114"
       y2="434"
       id="line5812" />
    <line
       x1="130"
       y1="434"
       x2="162"
       y2="434"
       id="line5814" />
    <line
       x1="194"
       y1="434"
       x2="210"
       y2="434"
       id="line5816" />
    <line
       x1="226"
       y1="434"
       x2="242"
       y2="434"
       id="line5818" />
    <line
       x1="258"
       y1="434"
       x2="274"
       y2="434"
       id="line5820" />
    <line
       x1="290"
       y1="434"
       x2="322"
       y2="434"
       id="line5822" />
    <line
       x1="338"
       y1="434"
       x2="370"
       y2="434"
       id="line5824" />
    <line
       x1="386"
       y1="434"
       x2="402"
       y2="434"
       id="line5826" />
    <line
       x1="434"
       y1="434"
       x2="450"
       y2="434"
       id="line5828" />
    <line
       x1="18"
       y1="450"
       x2="50"
       y2="450"
       id="line5830" />
    <line
       x1="98"
       y1="450"
       x2="146"
       y2="450"
       id="line5832" />
    <line
       x1="162"
       y1="450"
       x2="194"
       y2="450"
       id="line5834" />
    <line
       x1="210"
       y1="450"
       x2="242"
       y2="450"
       id="line5836" />
    <line
       x1="274"
       y1="450"
       x2="290"
       y2="450"
       id="line5838" />
    <line
       x1="322"
       y1="450"
       x2="354"
       y2="450"
       id="line5840" />
    <line
       x1="370"
       y1="450"
       x2="386"
       y2="450"
       id="line5842" />
    <line
       x1="402"
       y1="450"
       x2="434"
       y2="450"
       id="line5844" />
    <line
       x1="2"
       y1="466"
       x2="18"
       y2="466"
       id="line5846" />
    <line
       x1="34"
       y1="466"
       x2="82"
       y2="466"
       id="line5848" />
    <line
       x1="98"
       y1="466"
       x2="114"
       y2="466"
       id="line5850" />
    <line
       x1="146"
       y1="466"
       x2="178"
       y2="466"
       id="line5852" />
    <line
       x1="194"
       y1="466"
       x2="226"
       y2="466"
       id="line5854" />
    <line
       x1="242"
       y1="466"
       x2="258"
       y2="466"
       id="line5856" />
    <line
       x1="290"
       y1="466"
       x2="322"
       y2="466"
       id="line5858" />
    <line
       x1="354"
       y1="466"
       x2="370"
       y2="466"
       id="line5860" />
    <line
       x1="386"
       y1="466"
       x2="402"
       y2="466"
       id="line5862" />
    <line
       x1="418"
       y1="466"
       x2="466"
       y2="466"
       id="line5864" />
    <line
       x1="2"
       y1="482"
       x2="242"
       y2="482"
       id="line5866" />
    <line
       x1="258"
       y1="482"
       x2="482"
       y2="482"
       id="line5868" />
    <line
       x1="2"
       y1="2"
       x2="2"
       y2="482"
       id="line5870" />
    <line
       x1="18"
       y1="18"
       x2="18"
       y2="50"
       id="line5872" />
    <line
       x1="18"
       y1="66"
       x2="18"
       y2="130"
       id="line5874" />
    <line
       x1="18"
       y1="178"
       x2="18"
       y2="274"
       id="line5876" />
    <line
       x1="18"
       y1="306"
       x2="18"
       y2="370"
       id="line5878" />
    <line
       x1="18"
       y1="402"
       x2="18"
       y2="418"
       id="line5880" />
    <line
       x1="18"
       y1="434"
       x2="18"
       y2="450"
       id="line5882" />
    <line
       x1="34"
       y1="2"
       x2="34"
       y2="34"
       id="line5884" />
    <line
       x1="34"
       y1="50"
       x2="34"
       y2="98"
       id="line5886" />
    <line
       x1="34"
       y1="130"
       x2="34"
       y2="226"
       id="line5888" />
    <line
       x1="34"
       y1="290"
       x2="34"
       y2="338"
       id="line5890" />
    <line
       x1="34"
       y1="370"
       x2="34"
       y2="386"
       id="line5892" />
    <line
       x1="34"
       y1="402"
       x2="34"
       y2="434"
       id="line5894" />
    <line
       x1="34"
       y1="450"
       x2="34"
       y2="466"
       id="line5896" />
    <line
       x1="50"
       y1="18"
       x2="50"
       y2="50"
       id="line5898" />
    <line
       x1="50"
       y1="82"
       x2="50"
       y2="114"
       id="line5900" />
    <line
       x1="50"
       y1="146"
       x2="50"
       y2="194"
       id="line5902" />
    <line
       x1="50"
       y1="242"
       x2="50"
       y2="290"
       id="line5904" />
    <line
       x1="50"
       y1="306"
       x2="50"
       y2="338"
       id="line5906" />
    <line
       x1="50"
       y1="354"
       x2="50"
       y2="370"
       id="line5908" />
    <line
       x1="50"
       y1="386"
       x2="50"
       y2="402"
       id="line5910" />
    <line
       x1="50"
       y1="434"
       x2="50"
       y2="450"
       id="line5912" />
    <line
       x1="66"
       y1="2"
       x2="66"
       y2="34"
       id="line5914" />
    <line
       x1="66"
       y1="82"
       x2="66"
       y2="98"
       id="line5916" />
    <line
       x1="66"
       y1="114"
       x2="66"
       y2="130"
       id="line5918" />
    <line
       x1="66"
       y1="178"
       x2="66"
       y2="194"
       id="line5920" />
    <line
       x1="66"
       y1="210"
       x2="66"
       y2="242"
       id="line5922" />
    <line
       x1="66"
       y1="274"
       x2="66"
       y2="306"
       id="line5924" />
    <line
       x1="66"
       y1="322"
       x2="66"
       y2="354"
       id="line5926" />
    <line
       x1="66"
       y1="386"
       x2="66"
       y2="450"
       id="line5928" />
    <line
       x1="82"
       y1="18"
       x2="82"
       y2="50"
       id="line5930" />
    <line
       x1="82"
       y1="66"
       x2="82"
       y2="82"
       id="line5932" />
    <line
       x1="82"
       y1="98"
       x2="82"
       y2="178"
       id="line5934" />
    <line
       x1="82"
       y1="194"
       x2="82"
       y2="258"
       id="line5936" />
    <line
       x1="82"
       y1="306"
       x2="82"
       y2="354"
       id="line5938" />
    <line
       x1="82"
       y1="450"
       x2="82"
       y2="482"
       id="line5940" />
    <line
       x1="98"
       y1="82"
       x2="98"
       y2="98"
       id="line5942" />
    <line
       x1="98"
       y1="130"
       x2="98"
       y2="146"
       id="line5944" />
    <line
       x1="98"
       y1="162"
       x2="98"
       y2="290"
       id="line5946" />
    <line
       x1="98"
       y1="322"
       x2="98"
       y2="386"
       id="line5948" />
    <line
       x1="98"
       y1="402"
       x2="98"
       y2="418"
       id="line5950" />
    <line
       x1="98"
       y1="450"
       x2="98"
       y2="466"
       id="line5952" />
    <line
       x1="114"
       y1="18"
       x2="114"
       y2="34"
       id="line5954" />
    <line
       x1="114"
       y1="66"
       x2="114"
       y2="146"
       id="line5956" />
    <line
       x1="114"
       y1="274"
       x2="114"
       y2="322"
       id="line5958" />
    <line
       x1="114"
       y1="370"
       x2="114"
       y2="402"
       id="line5960" />
    <line
       x1="114"
       y1="418"
       x2="114"
       y2="434"
       id="line5962" />
    <line
       x1="130"
       y1="2"
       x2="130"
       y2="18"
       id="line5964" />
    <line
       x1="130"
       y1="34"
       x2="130"
       y2="82"
       id="line5966" />
    <line
       x1="130"
       y1="114"
       x2="130"
       y2="130"
       id="line5968" />
    <line
       x1="130"
       y1="146"
       x2="130"
       y2="194"
       id="line5970" />
    <line
       x1="130"
       y1="226"
       x2="130"
       y2="242"
       id="line5972" />
    <line
       x1="130"
       y1="258"
       x2="130"
       y2="338"
       id="line5974" />
    <line
       x1="130"
       y1="354"
       x2="130"
       y2="370"
       id="line5976" />
    <line
       x1="130"
       y1="386"
       x2="130"
       y2="434"
       id="line5978" />
    <line
       x1="130"
       y1="450"
       x2="130"
       y2="482"
       id="line5980" />
    <line
       x1="146"
       y1="18"
       x2="146"
       y2="66"
       id="line5982" />
    <line
       x1="146"
       y1="98"
       x2="146"
       y2="130"
       id="line5984" />
    <line
       x1="146"
       y1="162"
       x2="146"
       y2="178"
       id="line5986" />
    <line
       x1="146"
       y1="210"
       x2="146"
       y2="258"
       id="line5988" />
    <line
       x1="146"
       y1="290"
       x2="146"
       y2="354"
       id="line5990" />
    <line
       x1="146"
       y1="370"
       x2="146"
       y2="386"
       id="line5992" />
    <line
       x1="146"
       y1="402"
       x2="146"
       y2="418"
       id="line5994" />
    <line
       x1="146"
       y1="434"
       x2="146"
       y2="450"
       id="line5996" />
    <line
       x1="162"
       y1="2"
       x2="162"
       y2="34"
       id="line5998" />
    <line
       x1="162"
       y1="130"
       x2="162"
       y2="146"
       id="line6000" />
    <line
       x1="162"
       y1="162"
       x2="162"
       y2="210"
       id="line6002" />
    <line
       x1="162"
       y1="274"
       x2="162"
       y2="338"
       id="line6004" />
    <line
       x1="162"
       y1="354"
       x2="162"
       y2="402"
       id="line6006" />
    <line
       x1="162"
       y1="418"
       x2="162"
       y2="434"
       id="line6008" />
    <line
       x1="162"
       y1="450"
       x2="162"
       y2="466"
       id="line6010" />
    <line
       x1="178"
       y1="18"
       x2="178"
       y2="50"
       id="line6012" />
    <line
       x1="178"
       y1="66"
       x2="178"
       y2="130"
       id="line6014" />
    <line
       x1="178"
       y1="146"
       x2="178"
       y2="194"
       id="line6016" />
    <line
       x1="178"
       y1="210"
       x2="178"
       y2="226"
       id="line6018" />
    <line
       x1="178"
       y1="290"
       x2="178"
       y2="306"
       id="line6020" />
    <line
       x1="178"
       y1="338"
       x2="178"
       y2="386"
       id="line6022" />
    <line
       x1="178"
       y1="402"
       x2="178"
       y2="434"
       id="line6024" />
    <line
       x1="194"
       y1="34"
       x2="194"
       y2="98"
       id="line6026" />
    <line
       x1="194"
       y1="130"
       x2="194"
       y2="146"
       id="line6028" />
    <line
       x1="194"
       y1="178"
       x2="194"
       y2="210"
       id="line6030" />
    <line
       x1="194"
       y1="242"
       x2="194"
       y2="290"
       id="line6032" />
    <line
       x1="194"
       y1="306"
       x2="194"
       y2="338"
       id="line6034" />
    <line
       x1="194"
       y1="354"
       x2="194"
       y2="370"
       id="line6036" />
    <line
       x1="194"
       y1="386"
       x2="194"
       y2="402"
       id="line6038" />
    <line
       x1="194"
       y1="434"
       x2="194"
       y2="466"
       id="line6040" />
    <line
       x1="210"
       y1="18"
       x2="210"
       y2="34"
       id="line6042" />
    <line
       x1="210"
       y1="66"
       x2="210"
       y2="130"
       id="line6044" />
    <line
       x1="210"
       y1="146"
       x2="210"
       y2="194"
       id="line6046" />
    <line
       x1="210"
       y1="226"
       x2="210"
       y2="242"
       id="line6048" />
    <line
       x1="210"
       y1="338"
       x2="210"
       y2="354"
       id="line6050" />
    <line
       x1="210"
       y1="402"
       x2="210"
       y2="434"
       id="line6052" />
    <line
       x1="226"
       y1="2"
       x2="226"
       y2="82"
       id="line6054" />
    <line
       x1="226"
       y1="114"
       x2="226"
       y2="226"
       id="line6056" />
    <line
       x1="226"
       y1="242"
       x2="226"
       y2="274"
       id="line6058" />
    <line
       x1="226"
       y1="322"
       x2="226"
       y2="370"
       id="line6060" />
    <line
       x1="226"
       y1="386"
       x2="226"
       y2="402"
       id="line6062" />
    <line
       x1="226"
       y1="434"
       x2="226"
       y2="450"
       id="line6064" />
    <line
       x1="226"
       y1="466"
       x2="226"
       y2="482"
       id="line6066" />
    <line
       x1="242"
       y1="18"
       x2="242"
       y2="50"
       id="line6068" />
    <line
       x1="242"
       y1="82"
       x2="242"
       y2="114"
       id="line6070" />
    <line
       x1="242"
       y1="194"
       x2="242"
       y2="210"
       id="line6072" />
    <line
       x1="242"
       y1="242"
       x2="242"
       y2="258"
       id="line6074" />
    <line
       x1="242"
       y1="306"
       x2="242"
       y2="322"
       id="line6076" />
    <line
       x1="242"
       y1="370"
       x2="242"
       y2="418"
       id="line6078" />
    <line
       x1="242"
       y1="450"
       x2="242"
       y2="466"
       id="line6080" />
    <line
       x1="258"
       y1="2"
       x2="258"
       y2="18"
       id="line6082" />
    <line
       x1="258"
       y1="50"
       x2="258"
       y2="82"
       id="line6084" />
    <line
       x1="258"
       y1="98"
       x2="258"
       y2="130"
       id="line6086" />
    <line
       x1="258"
       y1="146"
       x2="258"
       y2="178"
       id="line6088" />
    <line
       x1="258"
       y1="258"
       x2="258"
       y2="274"
       id="line6090" />
    <line
       x1="258"
       y1="306"
       x2="258"
       y2="338"
       id="line6092" />
    <line
       x1="258"
       y1="370"
       x2="258"
       y2="386"
       id="line6094" />
    <line
       x1="258"
       y1="418"
       x2="258"
       y2="450"
       id="line6096" />
    <line
       x1="258"
       y1="466"
       x2="258"
       y2="482"
       id="line6098" />
    <line
       x1="274"
       y1="18"
       x2="274"
       y2="66"
       id="line6100" />
    <line
       x1="274"
       y1="114"
       x2="274"
       y2="146"
       id="line6102" />
    <line
       x1="274"
       y1="162"
       x2="274"
       y2="194"
       id="line6104" />
    <line
       x1="274"
       y1="258"
       x2="274"
       y2="306"
       id="line6106" />
    <line
       x1="274"
       y1="354"
       x2="274"
       y2="370"
       id="line6108" />
    <line
       x1="274"
       y1="386"
       x2="274"
       y2="402"
       id="line6110" />
    <line
       x1="274"
       y1="418"
       x2="274"
       y2="434"
       id="line6112" />
    <line
       x1="274"
       y1="466"
       x2="274"
       y2="482"
       id="line6114" />
    <line
       x1="290"
       y1="18"
       x2="290"
       y2="34"
       id="line6116" />
    <line
       x1="290"
       y1="66"
       x2="290"
       y2="82"
       id="line6118" />
    <line
       x1="290"
       y1="98"
       x2="290"
       y2="114"
       id="line6120" />
    <line
       x1="290"
       y1="130"
       x2="290"
       y2="146"
       id="line6122" />
    <line
       x1="290"
       y1="210"
       x2="290"
       y2="226"
       id="line6124" />
    <line
       x1="290"
       y1="242"
       x2="290"
       y2="274"
       id="line6126" />
    <line
       x1="290"
       y1="306"
       x2="290"
       y2="354"
       id="line6128" />
    <line
       x1="290"
       y1="386"
       x2="290"
       y2="418"
       id="line6130" />
    <line
       x1="290"
       y1="434"
       x2="290"
       y2="466"
       id="line6132" />
    <line
       x1="306"
       y1="2"
       x2="306"
       y2="66"
       id="line6134" />
    <line
       x1="306"
       y1="82"
       x2="306"
       y2="114"
       id="line6136" />
    <line
       x1="306"
       y1="146"
       x2="306"
       y2="162"
       id="line6138" />
    <line
       x1="306"
       y1="226"
       x2="306"
       y2="242"
       id="line6140" />
    <line
       x1="306"
       y1="274"
       x2="306"
       y2="338"
       id="line6142" />
    <line
       x1="306"
       y1="354"
       x2="306"
       y2="402"
       id="line6144" />
    <line
       x1="306"
       y1="418"
       x2="306"
       y2="434"
       id="line6146" />
    <line
       x1="306"
       y1="450"
       x2="306"
       y2="466"
       id="line6148" />
    <line
       x1="322"
       y1="18"
       x2="322"
       y2="98"
       id="line6150" />
    <line
       x1="322"
       y1="130"
       x2="322"
       y2="178"
       id="line6152" />
    <line
       x1="322"
       y1="210"
       x2="322"
       y2="226"
       id="line6154" />
    <line
       x1="322"
       y1="274"
       x2="322"
       y2="290"
       id="line6156" />
    <line
       x1="322"
       y1="306"
       x2="322"
       y2="370"
       id="line6158" />
    <line
       x1="322"
       y1="402"
       x2="322"
       y2="450"
       id="line6160" />
    <line
       x1="338"
       y1="82"
       x2="338"
       y2="146"
       id="line6162" />
    <line
       x1="338"
       y1="162"
       x2="338"
       y2="210"
       id="line6164" />
    <line
       x1="338"
       y1="242"
       x2="338"
       y2="258"
       id="line6166" />
    <line
       x1="338"
       y1="290"
       x2="338"
       y2="338"
       id="line6168" />
    <line
       x1="338"
       y1="370"
       x2="338"
       y2="402"
       id="line6170" />
    <line
       x1="338"
       y1="418"
       x2="338"
       y2="434"
       id="line6172" />
    <line
       x1="338"
       y1="450"
       x2="338"
       y2="482"
       id="line6174" />
    <line
       x1="354"
       y1="18"
       x2="354"
       y2="50"
       id="line6176" />
    <line
       x1="354"
       y1="98"
       x2="354"
       y2="130"
       id="line6178" />
    <line
       x1="354"
       y1="226"
       x2="354"
       y2="306"
       id="line6180" />
    <line
       x1="354"
       y1="338"
       x2="354"
       y2="354"
       id="line6182" />
    <line
       x1="354"
       y1="386"
       x2="354"
       y2="402"
       id="line6184" />
    <line
       x1="354"
       y1="434"
       x2="354"
       y2="450"
       id="line6186" />
    <line
       x1="370"
       y1="2"
       x2="370"
       y2="98"
       id="line6188" />
    <line
       x1="370"
       y1="162"
       x2="370"
       y2="178"
       id="line6190" />
    <line
       x1="370"
       y1="210"
       x2="370"
       y2="290"
       id="line6192" />
    <line
       x1="370"
       y1="354"
       x2="370"
       y2="370"
       id="line6194" />
    <line
       x1="370"
       y1="386"
       x2="370"
       y2="418"
       id="line6196" />
    <line
       x1="370"
       y1="450"
       x2="370"
       y2="482"
       id="line6198" />
    <line
       x1="386"
       y1="18"
       x2="386"
       y2="34"
       id="line6200" />
    <line
       x1="386"
       y1="50"
       x2="386"
       y2="66"
       id="line6202" />
    <line
       x1="386"
       y1="98"
       x2="386"
       y2="130"
       id="line6204" />
    <line
       x1="386"
       y1="146"
       x2="386"
       y2="162"
       id="line6206" />
    <line
       x1="386"
       y1="226"
       x2="386"
       y2="258"
       id="line6208" />
    <line
       x1="386"
       y1="290"
       x2="386"
       y2="306"
       id="line6210" />
    <line
       x1="386"
       y1="322"
       x2="386"
       y2="338"
       id="line6212" />
    <line
       x1="386"
       y1="370"
       x2="386"
       y2="402"
       id="line6214" />
    <line
       x1="402"
       y1="2"
       x2="402"
       y2="18"
       id="line6216" />
    <line
       x1="402"
       y1="34"
       x2="402"
       y2="50"
       id="line6218" />
    <line
       x1="402"
       y1="66"
       x2="402"
       y2="82"
       id="line6220" />
    <line
       x1="402"
       y1="130"
       x2="402"
       y2="146"
       id="line6222" />
    <line
       x1="402"
       y1="162"
       x2="402"
       y2="226"
       id="line6224" />
    <line
       x1="402"
       y1="274"
       x2="402"
       y2="290"
       id="line6226" />
    <line
       x1="402"
       y1="306"
       x2="402"
       y2="322"
       id="line6228" />
    <line
       x1="402"
       y1="338"
       x2="402"
       y2="370"
       id="line6230" />
    <line
       x1="402"
       y1="386"
       x2="402"
       y2="434"
       id="line6232" />
    <line
       x1="402"
       y1="450"
       x2="402"
       y2="482"
       id="line6234" />
    <line
       x1="418"
       y1="18"
       x2="418"
       y2="34"
       id="line6236" />
    <line
       x1="418"
       y1="50"
       x2="418"
       y2="130"
       id="line6238" />
    <line
       x1="418"
       y1="146"
       x2="418"
       y2="162"
       id="line6240" />
    <line
       x1="418"
       y1="194"
       x2="418"
       y2="226"
       id="line6242" />
    <line
       x1="418"
       y1="258"
       x2="418"
       y2="306"
       id="line6244" />
    <line
       x1="418"
       y1="322"
       x2="418"
       y2="370"
       id="line6246" />
    <line
       x1="418"
       y1="402"
       x2="418"
       y2="434"
       id="line6248" />
    <line
       x1="434"
       y1="34"
       x2="434"
       y2="50"
       id="line6250" />
    <line
       x1="434"
       y1="66"
       x2="434"
       y2="114"
       id="line6252" />
    <line
       x1="434"
       y1="162"
       x2="434"
       y2="194"
       id="line6254" />
    <line
       x1="434"
       y1="226"
       x2="434"
       y2="290"
       id="line6256" />
    <line
       x1="434"
       y1="338"
       x2="434"
       y2="354"
       id="line6258" />
    <line
       x1="450"
       y1="50"
       x2="450"
       y2="66"
       id="line6260" />
    <line
       x1="450"
       y1="114"
       x2="450"
       y2="130"
       id="line6262" />
    <line
       x1="450"
       y1="162"
       x2="450"
       y2="178"
       id="line6264" />
    <line
       x1="450"
       y1="210"
       x2="450"
       y2="226"
       id="line6266" />
    <line
       x1="450"
       y1="258"
       x2="450"
       y2="274"
       id="line6268" />
    <line
       x1="450"
       y1="322"
       x2="450"
       y2="338"
       id="line6270" />
    <line
       x1="450"
       y1="354"
       x2="450"
       y2="386"
       id="line6272" />
    <line
       x1="450"
       y1="418"
       x2="450"
       y2="466"
       id="line6274" />
    <line
       x1="466"
       y1="18"
       x2="466"
       y2="50"
       id="line6276" />
    <line
       x1="466"
       y1="98"
       x2="466"
       y2="162"
       id="line6278" />
    <line
       x1="466"
       y1="178"
       x2="466"
       y2="210"
       id="line6280" />
    <line
       x1="466"
       y1="242"
       x2="466"
       y2="258"
       id="line6282" />
    <line
       x1="466"
       y1="290"
       x2="466"
       y2="322"
       id="line6284" />
    <line
       x1="466"
       y1="338"
       x2="466"
       y2="370"
       id="line6286" />
    <line
       x1="466"
       y1="386"
       x2="466"
       y2="402"
       id="line6288" />
    <line
       x1="466"
       y1="434"
       x2="466"
       y2="466"
       id="line6290" />
    <line
       x1="482"
       y1="2"
       x2="482"
       y2="482"
       id="line6292" />
  </g>
  <path
     style="fill:none;stroke:#000000;stroke-width:1px;stroke-linecap:butt;stroke-linejoin:miter;stroke-opacity:1"
     d="m 226,2 h 16"
     id="path6760" />
  <path
     style="fill:none;stroke:#000000;stroke-width:2;stroke-linecap:butt;stroke-linejoin:miter;stroke-opacity:1;stroke-miterlimit:4;stroke-dasharray:none"
     d="m 242,482 h 16"
     id="path6875" />
</svg>
