<?xml version="1.0" encoding="UTF-8" standalone="no"?>
<svg
   width="235"
   height="385.051177665153"
   version="1.1"
   id="svg699"
   sodipodi:docname="20 by 20 delta maze.svg"
   inkscape:version="1.1.2 (0a00cf5339, 2022-02-04)"
   inkscape:export-filename="/home/nitron/ALSAI/worlds/pics/maze1.png"
   inkscape:export-xdpi="96"
   inkscape:export-ydpi="96"
   xmlns:inkscape="http://www.inkscape.org/namespaces/inkscape"
   xmlns:sodipodi="http://sodipodi.sourceforge.net/DTD/sodipodi-0.dtd"
   xmlns="http://www.w3.org/2000/svg"
   xmlns:svg="http://www.w3.org/2000/svg">
  <defs
     id="defs703" />
  <sodipodi:namedview
     id="namedview701"
     pagecolor="#ffffff"
     bordercolor="#666666"
     borderopacity="1.0"
     inkscape:pageshadow="2"
     inkscape:pageopacity="0.0"
     inkscape:pagecheckerboard="0"
     showgrid="false"
     inkscape:zoom="2.0958253"
     inkscape:cx="117.61477"
     inkscape:cy="192.52559"
     inkscape:window-width="1858"
     inkscape:window-height="1016"
     inkscape:window-x="1982"
     inkscape:window-y="27"
     inkscape:window-maximized="1"
     inkscape:current-layer="g697" />
  <title
     id="title365">20 by 20 delta maze</title>
  <desc
     id="desc367">20 by 20 delta maze generated by The Maze Generator Website (https://www.mazegenerator.net/).</desc>
  <g
     fill="none"
     stroke="#000000"
     stroke-width="2"
     stroke-linecap="round"
     stroke-linejoin="round"
     id="g697">
    <line
       x1="13"
       y1="1.9999999999999911"
       x2="101"
       y2="1.9999999999999911"
       id="line369" />
    <line
       x1="123"
       y1="1.9999999999999911"
       x2="233"
       y2="1.9999999999999911"
       id="line371" />
    <line
       x1="101"
       y1="2"
       x2="123"
       y2="2"
       id="line373" />
    <line
       x1="79"
       y1="40.105118"
       x2="101"
       y2="40.105118"
       id="line375" />
    <line
       x1="156"
       y1="21.052558883257639"
       x2="200"
       y2="21.052558883257639"
       id="line377" />
    <line
       x1="134"
       y1="59.157676649772938"
       x2="178"
       y2="59.157676649772938"
       id="line391" />
    <line
       x1="57"
       y1="78.210236"
       x2="79"
       y2="78.210236"
       id="line395" />
    <line
       x1="46"
       y1="97.262794416288244"
       x2="90"
       y2="97.262794416288244"
       id="line397" />
    <line
       x1="46"
       y1="135.3679"
       x2="68"
       y2="135.3679"
       id="line399" />
    <line
       x1="101"
       y1="154.4204710660612"
       x2="167"
       y2="154.4204710660612"
       id="line409" />
    <line
       x1="134"
       y1="249.68326548234944"
       x2="156"
       y2="249.68326548234944"
       id="line423" />
    <line
       x1="112"
       y1="287.78839"
       x2="134"
       y2="287.78839"
       id="line429" />
    <line
       x1="90"
       y1="287.78838324886476"
       x2="112"
       y2="287.78838324886476"
       id="line433" />
    <line
       x1="2"
       y1="363.99863"
       x2="24"
       y2="363.99863"
       id="line437" />
    <line
       x1="123"
       y1="306.84094213212234"
       x2="145"
       y2="306.84094213212234"
       id="line439" />
    <line
       x1="145"
       y1="344.94604"
       x2="167"
       y2="344.94604"
       id="line449" />
    <line
       x1="24"
       y1="363.99861878189529"
       x2="134"
       y2="363.99861878189529"
       id="line451" />
    <line
       x1="13"
       y1="383.051177665153"
       x2="233"
       y2="383.051177665153"
       id="line453" />
    <polyline
       points="13,1.9999999999999911 2,21.052558883257639 13,40.105117766515292 2,59.157676649772938"
       id="polyline455" />
    <line
       x1="2"
       y1="59.157676649772945"
       x2="13"
       y2="78.2102355330306"
       id="line457" />
    <line
       x1="13"
       y1="78.210235533030584"
       x2="2"
       y2="97.262794416288244"
       id="line459" />
    <polyline
       points="2,97.26279441628823 13,116.31535329954589 2,135.36791218280354 13,154.42047106606117"
       id="polyline461" />
    <line
       x1="13"
       y1="154.4204710660612"
       x2="2"
       y2="173.47302994931883"
       id="line463" />
    <polyline
       points="2,173.47302994931886 13,192.52558883257649 2,211.57814771583412"
       id="polyline465" />
    <line
       x1="2"
       y1="211.57814771583415"
       x2="13"
       y2="230.63070659909178"
       id="line467" />
    <line
       x1="13"
       y1="230.63070659909181"
       x2="2"
       y2="249.68326548234944"
       id="line469" />
    <polyline
       points="2,249.68326548234941 13,268.73582436560707 2,287.78838324886476 13,306.84094213212245"
       id="polyline471" />
    <polyline
       points="13,306.84094213212234 2,325.89350101538 13,344.94605989863771 2,363.9986187818954"
       id="polyline473" />
    <line
       x1="2"
       y1="363.99861878189529"
       x2="13"
       y2="383.051177665153"
       id="line475" />
    <line
       x1="79"
       y1="344.94604"
       x2="68"
       y2="363.9986"
       id="line495" />
    <line
       x1="35"
       y1="192.52558883257649"
       x2="46"
       y2="211.57814771583412"
       id="line497" />
    <line
       x1="46"
       y1="59.157676649772945"
       x2="57"
       y2="78.2102355330306"
       id="line507" />
    <line
       x1="57"
       y1="78.210235533030584"
       x2="46"
       y2="97.262794416288244"
       id="line509" />
    <line
       x1="79"
       y1="116.31535"
       x2="68"
       y2="135.3679"
       id="line509-3" />
    <line
       x1="46"
       y1="211.57814771583415"
       x2="57"
       y2="230.63070659909178"
       id="line517" />
    <line
       x1="57"
       y1="230.63070659909181"
       x2="68"
       y2="249.68326548234944"
       id="line525" />
    <line
       x1="79"
       y1="1.9999999999999911"
       x2="68"
       y2="21.052558883257639"
       id="line529" />
    <line
       x1="79"
       y1="78.210235533030584"
       x2="68"
       y2="97.262794416288244"
       id="line533" />
    <polyline
       points="79,116.31535329954589 68,135.36791218280354 79,154.42047106606117"
       id="polyline535"
       transform="matrix(0,0,0,0.4999998,68,58.1577)" />
    <line
       x1="68"
       y1="135.3679"
       x2="57"
       y2="154.42046"
       id="line537" />
    <line
       x1="68"
       y1="325.89350101538"
       x2="79"
       y2="344.94605989863771"
       id="line541" />
    <line
       x1="90"
       y1="173.47302994931886"
       x2="79"
       y2="192.52558883257649"
       id="line545" />
    <line
       x1="68"
       y1="249.68326"
       x2="57"
       y2="268.73581"
       id="line547" />
    <line
       x1="46"
       y1="249.68326"
       x2="57"
       y2="268.73581"
       id="line549" />
    <line
       x1="101"
       y1="154.4204710660612"
       x2="90"
       y2="173.47302994931883"
       id="line553" />
    <polyline
       points="90,173.47302994931886 101,192.52558883257649 90,211.57814771583412"
       id="polyline555" />
    <line
       x1="90"
       y1="211.57814771583415"
       x2="101"
       y2="230.63070659909178"
       id="line557" />
    <line
       x1="57"
       y1="230.63071"
       x2="46"
       y2="249.68326"
       id="line561" />
    <line
       x1="112"
       y1="135.36791218280354"
       x2="101"
       y2="154.42047106606117"
       id="line565" />
    <line
       x1="68"
       y1="21.052559"
       x2="79"
       y2="40.105118"
       id="line569" />
    <line
       x1="145"
       y1="2"
       x2="156"
       y2="21.052559"
       id="line571" />
    <line
       x1="123"
       y1="268.73582436560707"
       x2="112"
       y2="287.78838324886476"
       id="line577" />
    <line
       x1="134"
       y1="249.68326548234941"
       x2="123"
       y2="268.73582436560707"
       id="line585" />
    <line
       x1="134"
       y1="287.78838324886476"
       x2="123"
       y2="306.84094213212245"
       id="line587" />
    <line
       x1="134"
       y1="59.157676649772945"
       x2="145"
       y2="78.2102355330306"
       id="line591" />
    <line
       x1="145"
       y1="154.4204710660612"
       x2="134"
       y2="173.47302994931883"
       id="line593" />
    <polyline
       points="134,173.47302994931886 145,192.52558883257649 134,211.57814771583412"
       id="polyline595" />
    <line
       x1="134"
       y1="211.57814771583415"
       x2="145"
       y2="230.63070659909178"
       id="line597" />
    <line
       x1="134"
       y1="363.99861878189529"
       x2="145"
       y2="383.051177665153"
       id="line599" />
    <line
       x1="145"
       y1="78.210235533030584"
       x2="156"
       y2="97.262794416288244"
       id="line601" />
    <line
       x1="112"
       y1="21.052559"
       x2="101"
       y2="40.105118"
       id="line603" />
    <line
       x1="145"
       y1="192.52558883257649"
       x2="156"
       y2="211.57814771583412"
       id="line605" />
    <line
       x1="156"
       y1="287.78838324886476"
       x2="145"
       y2="306.84094213212245"
       id="line607" />
    <line
       x1="79"
       y1="344.94604"
       x2="90"
       y2="363.99863"
       id="line609" />
    <line
       x1="156"
       y1="173.47302994931886"
       x2="167"
       y2="192.52558883257649"
       id="line613" />
    <line
       x1="167"
       y1="230.63070659909181"
       x2="156"
       y2="249.68326548234944"
       id="line615" />
    <polyline
       points="156,249.68326548234941 167,268.73582436560707 156,287.78838324886476"
       id="polyline617" />
    <line
       x1="145"
       y1="344.94604"
       x2="134"
       y2="363.99863"
       id="line619" />
    <line
       x1="167"
       y1="154.4204710660612"
       x2="178"
       y2="173.47302994931883"
       id="line625" />
    <line
       x1="167"
       y1="192.52558883257649"
       x2="178"
       y2="211.57814771583412"
       id="line627" />
    <line
       x1="178"
       y1="211.57814771583415"
       x2="167"
       y2="230.63070659909178"
       id="line629" />
    <line
       x1="178"
       y1="173.47302"
       x2="167"
       y2="192.52557"
       id="line631" />
    <line
       x1="189"
       y1="116.31535329954589"
       x2="178"
       y2="135.36791218280354"
       id="line637" />
    <line
       x1="145"
       y1="230.63069"
       x2="156"
       y2="249.68326"
       id="line639" />
    <polyline
       points="178,325.89350101538 189,344.94605989863771 178,363.9986187818954"
       id="polyline643"
       transform="translate(-33,19.052559)" />
    <line
       x1="101"
       y1="2"
       x2="112"
       y2="21.052559"
       id="line645" />
    <line
       x1="178"
       y1="135.3679"
       x2="167"
       y2="154.42047"
       id="line649" />
    <line
       x1="167"
       y1="344.94608"
       x2="156"
       y2="363.99863"
       id="line655" />
    <line
       x1="200"
       y1="21.052558883257639"
       x2="211"
       y2="40.105117766515292"
       id="line657" />
    <line
       x1="178"
       y1="325.89349"
       x2="167"
       y2="344.94608"
       id="line665" />
    <line
       x1="211"
       y1="40.105117766515292"
       x2="222"
       y2="59.157676649772938"
       id="line667" />
    <line
       x1="222"
       y1="249.68326548234941"
       x2="211"
       y2="268.73582436560707"
       id="line671" />
    <polyline
       points="233,1.9999999999999911 222,21.052558883257639 233,40.105117766515292 222,59.157676649772938"
       id="polyline675" />
    <line
       x1="222"
       y1="59.157676649772945"
       x2="233"
       y2="78.2102355330306"
       id="line677" />
    <line
       x1="233"
       y1="78.210235533030584"
       x2="222"
       y2="97.262794416288244"
       id="line679" />
    <polyline
       points="222,97.26279441628823 233,116.31535329954589 222,135.36791218280354 233,154.42047106606117"
       id="polyline681" />
    <line
       x1="233"
       y1="154.4204710660612"
       x2="222"
       y2="173.47302994931883"
       id="line683" />
    <polyline
       points="222,173.47302994931886 233,192.52558883257649 222,211.57814771583412"
       id="polyline685" />
    <line
       x1="222"
       y1="211.57814771583415"
       x2="233"
       y2="230.63070659909178"
       id="line687" />
    <line
       x1="233"
       y1="230.63070659909181"
       x2="222"
       y2="249.68326548234944"
       id="line689" />
    <polyline
       points="222,249.68326548234941 233,268.73582436560707 222,287.78838324886476 233,306.84094213212245"
       id="polyline691" />
    <polyline
       points="233,306.84094213212234 222,325.89350101538 233,344.94605989863771 222,363.9986187818954"
       id="polyline693" />
    <line
       x1="222"
       y1="363.99861878189529"
       x2="233"
       y2="383.051177665153"
       id="line695" />
  </g>
</svg>
