<?xml version="1.0" encoding="UTF-8" standalone="no"?>
<svg
   width="484"
   height="484"
   version="1.1"
   id="svg9319"
   sodipodi:docname="maze6.svg"
   inkscape:version="1.1.2 (0a00cf5339, 2022-02-04)"
   inkscape:export-filename="/home/nitron/ALSAI/worlds/pics/maze6.png"
   inkscape:export-xdpi="96.199997"
   inkscape:export-ydpi="96.199997"
   xmlns:inkscape="http://www.inkscape.org/namespaces/inkscape"
   xmlns:sodipodi="http://sodipodi.sourceforge.net/DTD/sodipodi-0.dtd"
   xmlns="http://www.w3.org/2000/svg"
   xmlns:svg="http://www.w3.org/2000/svg">
  <defs
     id="defs9323" />
  <sodipodi:namedview
     id="namedview9321"
     pagecolor="#ffffff"
     bordercolor="#666666"
     borderopacity="1.0"
     inkscape:pageshadow="2"
     inkscape:pageopacity="0.0"
     inkscape:pagecheckerboard="0"
     showgrid="false"
     inkscape:zoom="0.87190083"
     inkscape:cx="270.09953"
     inkscape:cy="181.78673"
     inkscape:window-width="1858"
     inkscape:window-height="1016"
     inkscape:window-x="1982"
     inkscape:window-y="27"
     inkscape:window-maximized="1"
     inkscape:current-layer="svg9319" />
  <title
     id="title8401">30 by 30 orthogonal maze</title>
  <desc
     id="desc8403">30 by 30 orthogonal maze generated by The Maze Generator Website (https://www.mazegenerator.net/).</desc>
  <g
     fill="none"
     stroke="#000000"
     stroke-width="2"
     stroke-linecap="square"
     id="g9317">
    <line
       x1="2"
       y1="2"
       x2="226"
       y2="2"
       id="line8405" />
    <line
       x1="242"
       y1="2"
       x2="482"
       y2="2"
       id="line8407" />
    <line
       x1="18"
       y1="18"
       x2="82"
       y2="18"
       id="line8409" />
    <line
       x1="114"
       y1="18"
       x2="178"
       y2="18"
       id="line8411" />
    <line
       x1="210"
       y1="18"
       x2="258"
       y2="18"
       id="line8413" />
    <line
       x1="290"
       y1="18"
       x2="370"
       y2="18"
       id="line8415" />
    <line
       x1="386"
       y1="18"
       x2="402"
       y2="18"
       id="line8417" />
    <line
       x1="418"
       y1="18"
       x2="434"
       y2="18"
       id="line8419" />
    <line
       x1="450"
       y1="18"
       x2="466"
       y2="18"
       id="line8421" />
    <line
       x1="2"
       y1="34"
       x2="50"
       y2="34"
       id="line8423" />
    <line
       x1="66"
       y1="34"
       x2="210"
       y2="34"
       id="line8425" />
    <line
       x1="242"
       y1="34"
       x2="258"
       y2="34"
       id="line8427" />
    <line
       x1="274"
       y1="34"
       x2="290"
       y2="34"
       id="line8429" />
    <line
       x1="322"
       y1="34"
       x2="338"
       y2="34"
       id="line8431" />
    <line
       x1="354"
       y1="34"
       x2="386"
       y2="34"
       id="line8433" />
    <line
       x1="402"
       y1="34"
       x2="450"
       y2="34"
       id="line8435" />
    <line
       x1="18"
       y1="50"
       x2="34"
       y2="50"
       id="line8437" />
    <line
       x1="50"
       y1="50"
       x2="66"
       y2="50"
       id="line8439" />
    <line
       x1="82"
       y1="50"
       x2="114"
       y2="50"
       id="line8441" />
    <line
       x1="146"
       y1="50"
       x2="162"
       y2="50"
       id="line8443" />
    <line
       x1="178"
       y1="50"
       x2="194"
       y2="50"
       id="line8445" />
    <line
       x1="210"
       y1="50"
       x2="226"
       y2="50"
       id="line8447" />
    <line
       x1="258"
       y1="50"
       x2="274"
       y2="50"
       id="line8449" />
    <line
       x1="290"
       y1="50"
       x2="354"
       y2="50"
       id="line8451" />
    <line
       x1="386"
       y1="50"
       x2="434"
       y2="50"
       id="line8453" />
    <line
       x1="50"
       y1="66"
       x2="130"
       y2="66"
       id="line8455" />
    <line
       x1="146"
       y1="66"
       x2="178"
       y2="66"
       id="line8457" />
    <line
       x1="194"
       y1="66"
       x2="258"
       y2="66"
       id="line8459" />
    <line
       x1="274"
       y1="66"
       x2="290"
       y2="66"
       id="line8461" />
    <line
       x1="322"
       y1="66"
       x2="338"
       y2="66"
       id="line8463" />
    <line
       x1="370"
       y1="66"
       x2="386"
       y2="66"
       id="line8465" />
    <line
       x1="450"
       y1="66"
       x2="466"
       y2="66"
       id="line8467" />
    <line
       x1="34"
       y1="82"
       x2="50"
       y2="82"
       id="line8469" />
    <line
       x1="82"
       y1="82"
       x2="114"
       y2="82"
       id="line8471" />
    <line
       x1="130"
       y1="82"
       x2="162"
       y2="82"
       id="line8473" />
    <line
       x1="210"
       y1="82"
       x2="226"
       y2="82"
       id="line8475" />
    <line
       x1="258"
       y1="82"
       x2="274"
       y2="82"
       id="line8477" />
    <line
       x1="306"
       y1="82"
       x2="322"
       y2="82"
       id="line8479" />
    <line
       x1="338"
       y1="82"
       x2="370"
       y2="82"
       id="line8481" />
    <line
       x1="402"
       y1="82"
       x2="450"
       y2="82"
       id="line8483" />
    <line
       x1="466"
       y1="82"
       x2="482"
       y2="82"
       id="line8485" />
    <line
       x1="18"
       y1="98"
       x2="50"
       y2="98"
       id="line8487" />
    <line
       x1="66"
       y1="98"
       x2="82"
       y2="98"
       id="line8489" />
    <line
       x1="114"
       y1="98"
       x2="130"
       y2="98"
       id="line8491" />
    <line
       x1="146"
       y1="98"
       x2="178"
       y2="98"
       id="line8493" />
    <line
       x1="242"
       y1="98"
       x2="306"
       y2="98"
       id="line8495" />
    <line
       x1="322"
       y1="98"
       x2="354"
       y2="98"
       id="line8497" />
    <line
       x1="386"
       y1="98"
       x2="418"
       y2="98"
       id="line8499" />
    <line
       x1="450"
       y1="98"
       x2="466"
       y2="98"
       id="line8501" />
    <line
       x1="2"
       y1="114"
       x2="18"
       y2="114"
       id="line8503" />
    <line
       x1="50"
       y1="114"
       x2="66"
       y2="114"
       id="line8505" />
    <line
       x1="98"
       y1="114"
       x2="114"
       y2="114"
       id="line8507" />
    <line
       x1="130"
       y1="114"
       x2="146"
       y2="114"
       id="line8509" />
    <line
       x1="162"
       y1="114"
       x2="194"
       y2="114"
       id="line8511" />
    <line
       x1="226"
       y1="114"
       x2="242"
       y2="114"
       id="line8513" />
    <line
       x1="258"
       y1="114"
       x2="274"
       y2="114"
       id="line8515" />
    <line
       x1="290"
       y1="114"
       x2="322"
       y2="114"
       id="line8517" />
    <line
       x1="354"
       y1="114"
       x2="386"
       y2="114"
       id="line8519" />
    <line
       x1="418"
       y1="114"
       x2="434"
       y2="114"
       id="line8521" />
    <line
       x1="466"
       y1="114"
       x2="482"
       y2="114"
       id="line8523" />
    <line
       x1="18"
       y1="130"
       x2="34"
       y2="130"
       id="line8525" />
    <line
       x1="66"
       y1="130"
       x2="82"
       y2="130"
       id="line8527" />
    <line
       x1="114"
       y1="130"
       x2="130"
       y2="130"
       id="line8529" />
    <line
       x1="146"
       y1="130"
       x2="162"
       y2="130"
       id="line8531" />
    <line
       x1="178"
       y1="130"
       x2="226"
       y2="130"
       id="line8533" />
    <line
       x1="242"
       y1="130"
       x2="258"
       y2="130"
       id="line8535" />
    <line
       x1="274"
       y1="130"
       x2="290"
       y2="130"
       id="line8537" />
    <line
       x1="306"
       y1="130"
       x2="370"
       y2="130"
       id="line8539" />
    <line
       x1="386"
       y1="130"
       x2="418"
       y2="130"
       id="line8541" />
    <line
       x1="450"
       y1="130"
       x2="466"
       y2="130"
       id="line8543" />
    <line
       x1="2"
       y1="146"
       x2="18"
       y2="146"
       id="line8545" />
    <line
       x1="34"
       y1="146"
       x2="66"
       y2="146"
       id="line8547" />
    <line
       x1="82"
       y1="146"
       x2="114"
       y2="146"
       id="line8549" />
    <line
       x1="130"
       y1="146"
       x2="146"
       y2="146"
       id="line8551" />
    <line
       x1="162"
       y1="146"
       x2="210"
       y2="146"
       id="line8553" />
    <line
       x1="258"
       y1="146"
       x2="274"
       y2="146"
       id="line8555" />
    <line
       x1="290"
       y1="146"
       x2="306"
       y2="146"
       id="line8557" />
    <line
       x1="370"
       y1="146"
       x2="402"
       y2="146"
       id="line8559" />
    <line
       x1="418"
       y1="146"
       x2="434"
       y2="146"
       id="line8561" />
    <line
       x1="18"
       y1="162"
       x2="34"
       y2="162"
       id="line8563" />
    <line
       x1="114"
       y1="162"
       x2="162"
       y2="162"
       id="line8565" />
    <line
       x1="210"
       y1="162"
       x2="226"
       y2="162"
       id="line8567" />
    <line
       x1="242"
       y1="162"
       x2="258"
       y2="162"
       id="line8569" />
    <line
       x1="322"
       y1="162"
       x2="370"
       y2="162"
       id="line8571" />
    <line
       x1="386"
       y1="162"
       x2="402"
       y2="162"
       id="line8573" />
    <line
       x1="434"
       y1="162"
       x2="450"
       y2="162"
       id="line8575" />
    <line
       x1="466"
       y1="162"
       x2="482"
       y2="162"
       id="line8577" />
    <line
       x1="2"
       y1="178"
       x2="18"
       y2="178"
       id="line8579" />
    <line
       x1="66"
       y1="178"
       x2="82"
       y2="178"
       id="line8581" />
    <line
       x1="98"
       y1="178"
       x2="130"
       y2="178"
       id="line8583" />
    <line
       x1="178"
       y1="178"
       x2="194"
       y2="178"
       id="line8585" />
    <line
       x1="226"
       y1="178"
       x2="242"
       y2="178"
       id="line8587" />
    <line
       x1="274"
       y1="178"
       x2="322"
       y2="178"
       id="line8589" />
    <line
       x1="370"
       y1="178"
       x2="418"
       y2="178"
       id="line8591" />
    <line
       x1="18"
       y1="194"
       x2="178"
       y2="194"
       id="line8593" />
    <line
       x1="194"
       y1="194"
       x2="258"
       y2="194"
       id="line8595" />
    <line
       x1="306"
       y1="194"
       x2="322"
       y2="194"
       id="line8597" />
    <line
       x1="370"
       y1="194"
       x2="386"
       y2="194"
       id="line8599" />
    <line
       x1="418"
       y1="194"
       x2="434"
       y2="194"
       id="line8601" />
    <line
       x1="450"
       y1="194"
       x2="482"
       y2="194"
       id="line8603" />
    <line
       x1="2"
       y1="210"
       x2="18"
       y2="210"
       id="line8605" />
    <line
       x1="50"
       y1="210"
       x2="98"
       y2="210"
       id="line8607" />
    <line
       x1="162"
       y1="210"
       x2="194"
       y2="210"
       id="line8609" />
    <line
       x1="210"
       y1="210"
       x2="306"
       y2="210"
       id="line8611" />
    <line
       x1="338"
       y1="210"
       x2="370"
       y2="210"
       id="line8613" />
    <line
       x1="402"
       y1="210"
       x2="466"
       y2="210"
       id="line8615" />
    <line
       x1="34"
       y1="226"
       x2="50"
       y2="226"
       id="line8617" />
    <line
       x1="98"
       y1="226"
       x2="130"
       y2="226"
       id="line8619" />
    <line
       x1="178"
       y1="226"
       x2="194"
       y2="226"
       id="line8621" />
    <line
       x1="306"
       y1="226"
       x2="322"
       y2="226"
       id="line8623" />
    <line
       x1="338"
       y1="226"
       x2="354"
       y2="226"
       id="line8625" />
    <line
       x1="386"
       y1="226"
       x2="402"
       y2="226"
       id="line8627" />
    <line
       x1="418"
       y1="226"
       x2="434"
       y2="226"
       id="line8629" />
    <line
       x1="466"
       y1="226"
       x2="482"
       y2="226"
       id="line8631" />
    <line
       x1="34"
       y1="242"
       x2="66"
       y2="242"
       id="line8633" />
    <line
       x1="82"
       y1="242"
       x2="98"
       y2="242"
       id="line8635" />
    <line
       x1="130"
       y1="242"
       x2="178"
       y2="242"
       id="line8637" />
    <line
       x1="226"
       y1="242"
       x2="242"
       y2="242"
       id="line8639" />
    <line
       x1="274"
       y1="242"
       x2="306"
       y2="242"
       id="line8641" />
    <line
       x1="322"
       y1="242"
       x2="370"
       y2="242"
       id="line8643" />
    <line
       x1="386"
       y1="242"
       x2="418"
       y2="242"
       id="line8645" />
    <line
       x1="18"
       y1="258"
       x2="50"
       y2="258"
       id="line8647" />
    <line
       x1="114"
       y1="258"
       x2="130"
       y2="258"
       id="line8649" />
    <line
       x1="146"
       y1="258"
       x2="162"
       y2="258"
       id="line8651" />
    <line
       x1="194"
       y1="258"
       x2="258"
       y2="258"
       id="line8653" />
    <line
       x1="274"
       y1="258"
       x2="290"
       y2="258"
       id="line8655" />
    <line
       x1="306"
       y1="258"
       x2="322"
       y2="258"
       id="line8657" />
    <line
       x1="338"
       y1="258"
       x2="386"
       y2="258"
       id="line8659" />
    <line
       x1="418"
       y1="258"
       x2="466"
       y2="258"
       id="line8661" />
    <line
       x1="2"
       y1="274"
       x2="34"
       y2="274"
       id="line8663" />
    <line
       x1="82"
       y1="274"
       x2="114"
       y2="274"
       id="line8665" />
    <line
       x1="130"
       y1="274"
       x2="146"
       y2="274"
       id="line8667" />
    <line
       x1="162"
       y1="274"
       x2="210"
       y2="274"
       id="line8669" />
    <line
       x1="226"
       y1="274"
       x2="274"
       y2="274"
       id="line8671" />
    <line
       x1="290"
       y1="274"
       x2="306"
       y2="274"
       id="line8673" />
    <line
       x1="338"
       y1="274"
       x2="370"
       y2="274"
       id="line8675" />
    <line
       x1="18"
       y1="290"
       x2="50"
       y2="290"
       id="line8677" />
    <line
       x1="66"
       y1="290"
       x2="98"
       y2="290"
       id="line8679" />
    <line
       x1="114"
       y1="290"
       x2="130"
       y2="290"
       id="line8681" />
    <line
       x1="146"
       y1="290"
       x2="178"
       y2="290"
       id="line8683" />
    <line
       x1="210"
       y1="290"
       x2="306"
       y2="290"
       id="line8685" />
    <line
       x1="322"
       y1="290"
       x2="418"
       y2="290"
       id="line8687" />
    <line
       x1="434"
       y1="290"
       x2="450"
       y2="290"
       id="line8689" />
    <line
       x1="50"
       y1="306"
       x2="66"
       y2="306"
       id="line8691" />
    <line
       x1="98"
       y1="306"
       x2="114"
       y2="306"
       id="line8693" />
    <line
       x1="130"
       y1="306"
       x2="146"
       y2="306"
       id="line8695" />
    <line
       x1="194"
       y1="306"
       x2="258"
       y2="306"
       id="line8697" />
    <line
       x1="290"
       y1="306"
       x2="322"
       y2="306"
       id="line8699" />
    <line
       x1="354"
       y1="306"
       x2="386"
       y2="306"
       id="line8701" />
    <line
       x1="418"
       y1="306"
       x2="434"
       y2="306"
       id="line8703" />
    <line
       x1="450"
       y1="306"
       x2="466"
       y2="306"
       id="line8705" />
    <line
       x1="2"
       y1="322"
       x2="34"
       y2="322"
       id="line8707" />
    <line
       x1="66"
       y1="322"
       x2="82"
       y2="322"
       id="line8709" />
    <line
       x1="114"
       y1="322"
       x2="130"
       y2="322"
       id="line8711" />
    <line
       x1="162"
       y1="322"
       x2="178"
       y2="322"
       id="line8713" />
    <line
       x1="242"
       y1="322"
       x2="290"
       y2="322"
       id="line8715" />
    <line
       x1="386"
       y1="322"
       x2="418"
       y2="322"
       id="line8717" />
    <line
       x1="434"
       y1="322"
       x2="450"
       y2="322"
       id="line8719" />
    <line
       x1="18"
       y1="338"
       x2="66"
       y2="338"
       id="line8721" />
    <line
       x1="82"
       y1="338"
       x2="114"
       y2="338"
       id="line8723" />
    <line
       x1="130"
       y1="338"
       x2="162"
       y2="338"
       id="line8725" />
    <line
       x1="178"
       y1="338"
       x2="194"
       y2="338"
       id="line8727" />
    <line
       x1="210"
       y1="338"
       x2="258"
       y2="338"
       id="line8729" />
    <line
       x1="290"
       y1="338"
       x2="306"
       y2="338"
       id="line8731" />
    <line
       x1="338"
       y1="338"
       x2="402"
       y2="338"
       id="line8733" />
    <line
       x1="418"
       y1="338"
       x2="434"
       y2="338"
       id="line8735" />
    <line
       x1="450"
       y1="338"
       x2="466"
       y2="338"
       id="line8737" />
    <line
       x1="34"
       y1="354"
       x2="50"
       y2="354"
       id="line8739" />
    <line
       x1="66"
       y1="354"
       x2="98"
       y2="354"
       id="line8741" />
    <line
       x1="114"
       y1="354"
       x2="130"
       y2="354"
       id="line8743" />
    <line
       x1="162"
       y1="354"
       x2="194"
       y2="354"
       id="line8745" />
    <line
       x1="242"
       y1="354"
       x2="258"
       y2="354"
       id="line8747" />
    <line
       x1="290"
       y1="354"
       x2="322"
       y2="354"
       id="line8749" />
    <line
       x1="338"
       y1="354"
       x2="370"
       y2="354"
       id="line8751" />
    <line
       x1="402"
       y1="354"
       x2="418"
       y2="354"
       id="line8753" />
    <line
       x1="434"
       y1="354"
       x2="450"
       y2="354"
       id="line8755" />
    <line
       x1="466"
       y1="354"
       x2="482"
       y2="354"
       id="line8757" />
    <line
       x1="18"
       y1="370"
       x2="34"
       y2="370"
       id="line8759" />
    <line
       x1="50"
       y1="370"
       x2="66"
       y2="370"
       id="line8761" />
    <line
       x1="98"
       y1="370"
       x2="130"
       y2="370"
       id="line8763" />
    <line
       x1="146"
       y1="370"
       x2="194"
       y2="370"
       id="line8765" />
    <line
       x1="226"
       y1="370"
       x2="242"
       y2="370"
       id="line8767" />
    <line
       x1="258"
       y1="370"
       x2="274"
       y2="370"
       id="line8769" />
    <line
       x1="322"
       y1="370"
       x2="354"
       y2="370"
       id="line8771" />
    <line
       x1="34"
       y1="386"
       x2="50"
       y2="386"
       id="line8773" />
    <line
       x1="98"
       y1="386"
       x2="114"
       y2="386"
       id="line8775" />
    <line
       x1="130"
       y1="386"
       x2="162"
       y2="386"
       id="line8777" />
    <line
       x1="178"
       y1="386"
       x2="226"
       y2="386"
       id="line8779" />
    <line
       x1="242"
       y1="386"
       x2="258"
       y2="386"
       id="line8781" />
    <line
       x1="290"
       y1="386"
       x2="338"
       y2="386"
       id="line8783" />
    <line
       x1="402"
       y1="386"
       x2="418"
       y2="386"
       id="line8785" />
    <line
       x1="434"
       y1="386"
       x2="482"
       y2="386"
       id="line8787" />
    <line
       x1="18"
       y1="402"
       x2="34"
       y2="402"
       id="line8789" />
    <line
       x1="66"
       y1="402"
       x2="114"
       y2="402"
       id="line8791" />
    <line
       x1="130"
       y1="402"
       x2="146"
       y2="402"
       id="line8793" />
    <line
       x1="194"
       y1="402"
       x2="226"
       y2="402"
       id="line8795" />
    <line
       x1="258"
       y1="402"
       x2="290"
       y2="402"
       id="line8797" />
    <line
       x1="306"
       y1="402"
       x2="322"
       y2="402"
       id="line8799" />
    <line
       x1="338"
       y1="402"
       x2="370"
       y2="402"
       id="line8801" />
    <line
       x1="418"
       y1="402"
       x2="434"
       y2="402"
       id="line8803" />
    <line
       x1="450"
       y1="402"
       x2="466"
       y2="402"
       id="line8805" />
    <line
       x1="2"
       y1="418"
       x2="18"
       y2="418"
       id="line8807" />
    <line
       x1="66"
       y1="418"
       x2="82"
       y2="418"
       id="line8809" />
    <line
       x1="98"
       y1="418"
       x2="114"
       y2="418"
       id="line8811" />
    <line
       x1="146"
       y1="418"
       x2="194"
       y2="418"
       id="line8813" />
    <line
       x1="258"
       y1="418"
       x2="274"
       y2="418"
       id="line8815" />
    <line
       x1="290"
       y1="418"
       x2="354"
       y2="418"
       id="line8817" />
    <line
       x1="434"
       y1="418"
       x2="450"
       y2="418"
       id="line8819" />
    <line
       x1="18"
       y1="434"
       x2="50"
       y2="434"
       id="line8821" />
    <line
       x1="82"
       y1="434"
       x2="98"
       y2="434"
       id="line8823" />
    <line
       x1="114"
       y1="434"
       x2="130"
       y2="434"
       id="line8825" />
    <line
       x1="162"
       y1="434"
       x2="178"
       y2="434"
       id="line8827" />
    <line
       x1="210"
       y1="434"
       x2="242"
       y2="434"
       id="line8829" />
    <line
       x1="274"
       y1="434"
       x2="290"
       y2="434"
       id="line8831" />
    <line
       x1="306"
       y1="434"
       x2="322"
       y2="434"
       id="line8833" />
    <line
       x1="354"
       y1="434"
       x2="370"
       y2="434"
       id="line8835" />
    <line
       x1="386"
       y1="434"
       x2="418"
       y2="434"
       id="line8837" />
    <line
       x1="450"
       y1="434"
       x2="466"
       y2="434"
       id="line8839" />
    <line
       x1="18"
       y1="450"
       x2="66"
       y2="450"
       id="line8841" />
    <line
       x1="98"
       y1="450"
       x2="114"
       y2="450"
       id="line8843" />
    <line
       x1="130"
       y1="450"
       x2="162"
       y2="450"
       id="line8845" />
    <line
       x1="178"
       y1="450"
       x2="210"
       y2="450"
       id="line8847" />
    <line
       x1="226"
       y1="450"
       x2="274"
       y2="450"
       id="line8849" />
    <line
       x1="290"
       y1="450"
       x2="306"
       y2="450"
       id="line8851" />
    <line
       x1="322"
       y1="450"
       x2="338"
       y2="450"
       id="line8853" />
    <line
       x1="370"
       y1="450"
       x2="386"
       y2="450"
       id="line8855" />
    <line
       x1="418"
       y1="450"
       x2="450"
       y2="450"
       id="line8857" />
    <line
       x1="2"
       y1="466"
       x2="18"
       y2="466"
       id="line8859" />
    <line
       x1="34"
       y1="466"
       x2="50"
       y2="466"
       id="line8861" />
    <line
       x1="130"
       y1="466"
       x2="146"
       y2="466"
       id="line8863" />
    <line
       x1="194"
       y1="466"
       x2="226"
       y2="466"
       id="line8865" />
    <line
       x1="242"
       y1="466"
       x2="258"
       y2="466"
       id="line8867" />
    <line
       x1="338"
       y1="466"
       x2="354"
       y2="466"
       id="line8869" />
    <line
       x1="386"
       y1="466"
       x2="402"
       y2="466"
       id="line8871" />
    <line
       x1="418"
       y1="466"
       x2="450"
       y2="466"
       id="line8873" />
    <line
       x1="2"
       y1="482"
       x2="242"
       y2="482"
       id="line8875" />
    <line
       x1="258"
       y1="482"
       x2="482"
       y2="482"
       id="line8877" />
    <line
       x1="2"
       y1="2"
       x2="2"
       y2="482"
       id="line8879" />
    <line
       x1="18"
       y1="50"
       x2="18"
       y2="114"
       id="line8881" />
    <line
       x1="18"
       y1="226"
       x2="18"
       y2="258"
       id="line8883" />
    <line
       x1="18"
       y1="290"
       x2="18"
       y2="306"
       id="line8885" />
    <line
       x1="18"
       y1="338"
       x2="18"
       y2="402"
       id="line8887" />
    <line
       x1="18"
       y1="434"
       x2="18"
       y2="450"
       id="line8889" />
    <line
       x1="34"
       y1="66"
       x2="34"
       y2="82"
       id="line8891" />
    <line
       x1="34"
       y1="114"
       x2="34"
       y2="178"
       id="line8893" />
    <line
       x1="34"
       y1="194"
       x2="34"
       y2="226"
       id="line8895" />
    <line
       x1="34"
       y1="306"
       x2="34"
       y2="322"
       id="line8897" />
    <line
       x1="34"
       y1="370"
       x2="34"
       y2="386"
       id="line8899" />
    <line
       x1="34"
       y1="402"
       x2="34"
       y2="418"
       id="line8901" />
    <line
       x1="34"
       y1="466"
       x2="34"
       y2="482"
       id="line8903" />
    <line
       x1="50"
       y1="34"
       x2="50"
       y2="50"
       id="line8905" />
    <line
       x1="50"
       y1="82"
       x2="50"
       y2="130"
       id="line8907" />
    <line
       x1="50"
       y1="162"
       x2="50"
       y2="194"
       id="line8909" />
    <line
       x1="50"
       y1="258"
       x2="50"
       y2="338"
       id="line8911" />
    <line
       x1="50"
       y1="354"
       x2="50"
       y2="370"
       id="line8913" />
    <line
       x1="50"
       y1="386"
       x2="50"
       y2="434"
       id="line8915" />
    <line
       x1="66"
       y1="18"
       x2="66"
       y2="34"
       id="line8917" />
    <line
       x1="66"
       y1="66"
       x2="66"
       y2="98"
       id="line8919" />
    <line
       x1="66"
       y1="130"
       x2="66"
       y2="162"
       id="line8921" />
    <line
       x1="66"
       y1="226"
       x2="66"
       y2="290"
       id="line8923" />
    <line
       x1="66"
       y1="322"
       x2="66"
       y2="354"
       id="line8925" />
    <line
       x1="66"
       y1="370"
       x2="66"
       y2="402"
       id="line8927" />
    <line
       x1="66"
       y1="418"
       x2="66"
       y2="482"
       id="line8929" />
    <line
       x1="82"
       y1="34"
       x2="82"
       y2="50"
       id="line8931" />
    <line
       x1="82"
       y1="82"
       x2="82"
       y2="114"
       id="line8933" />
    <line
       x1="82"
       y1="130"
       x2="82"
       y2="178"
       id="line8935" />
    <line
       x1="82"
       y1="210"
       x2="82"
       y2="274"
       id="line8937" />
    <line
       x1="82"
       y1="306"
       x2="82"
       y2="322"
       id="line8939" />
    <line
       x1="82"
       y1="354"
       x2="82"
       y2="386"
       id="line8941" />
    <line
       x1="82"
       y1="402"
       x2="82"
       y2="418"
       id="line8943" />
    <line
       x1="82"
       y1="434"
       x2="82"
       y2="466"
       id="line8945" />
    <line
       x1="98"
       y1="2"
       x2="98"
       y2="34"
       id="line8947" />
    <line
       x1="98"
       y1="98"
       x2="98"
       y2="130"
       id="line8949" />
    <line
       x1="98"
       y1="162"
       x2="98"
       y2="178"
       id="line8951" />
    <line
       x1="98"
       y1="242"
       x2="98"
       y2="258"
       id="line8953" />
    <line
       x1="98"
       y1="290"
       x2="98"
       y2="338"
       id="line8955" />
    <line
       x1="98"
       y1="370"
       x2="98"
       y2="386"
       id="line8957" />
    <line
       x1="98"
       y1="418"
       x2="98"
       y2="450"
       id="line8959" />
    <line
       x1="98"
       y1="466"
       x2="98"
       y2="482"
       id="line8961" />
    <line
       x1="114"
       y1="82"
       x2="114"
       y2="114"
       id="line8963" />
    <line
       x1="114"
       y1="130"
       x2="114"
       y2="162"
       id="line8965" />
    <line
       x1="114"
       y1="194"
       x2="114"
       y2="242"
       id="line8967" />
    <line
       x1="114"
       y1="258"
       x2="114"
       y2="290"
       id="line8969" />
    <line
       x1="114"
       y1="306"
       x2="114"
       y2="322"
       id="line8971" />
    <line
       x1="114"
       y1="354"
       x2="114"
       y2="370"
       id="line8973" />
    <line
       x1="114"
       y1="402"
       x2="114"
       y2="418"
       id="line8975" />
    <line
       x1="114"
       y1="450"
       x2="114"
       y2="466"
       id="line8977" />
    <line
       x1="130"
       y1="34"
       x2="130"
       y2="82"
       id="line8979" />
    <line
       x1="130"
       y1="114"
       x2="130"
       y2="130"
       id="line8981" />
    <line
       x1="130"
       y1="162"
       x2="130"
       y2="178"
       id="line8983" />
    <line
       x1="130"
       y1="210"
       x2="130"
       y2="226"
       id="line8985" />
    <line
       x1="130"
       y1="242"
       x2="130"
       y2="258"
       id="line8987" />
    <line
       x1="130"
       y1="290"
       x2="130"
       y2="306"
       id="line8989" />
    <line
       x1="130"
       y1="322"
       x2="130"
       y2="354"
       id="line8991" />
    <line
       x1="130"
       y1="370"
       x2="130"
       y2="466"
       id="line8993" />
    <line
       x1="146"
       y1="82"
       x2="146"
       y2="98"
       id="line8995" />
    <line
       x1="146"
       y1="130"
       x2="146"
       y2="146"
       id="line8997" />
    <line
       x1="146"
       y1="178"
       x2="146"
       y2="242"
       id="line8999" />
    <line
       x1="146"
       y1="274"
       x2="146"
       y2="290"
       id="line9001" />
    <line
       x1="146"
       y1="306"
       x2="146"
       y2="322"
       id="line9003" />
    <line
       x1="146"
       y1="354"
       x2="146"
       y2="370"
       id="line9005" />
    <line
       x1="146"
       y1="418"
       x2="146"
       y2="434"
       id="line9007" />
    <line
       x1="162"
       y1="34"
       x2="162"
       y2="50"
       id="line9009" />
    <line
       x1="162"
       y1="114"
       x2="162"
       y2="130"
       id="line9011" />
    <line
       x1="162"
       y1="146"
       x2="162"
       y2="178"
       id="line9013" />
    <line
       x1="162"
       y1="210"
       x2="162"
       y2="226"
       id="line9015" />
    <line
       x1="162"
       y1="258"
       x2="162"
       y2="274"
       id="line9017" />
    <line
       x1="162"
       y1="290"
       x2="162"
       y2="354"
       id="line9019" />
    <line
       x1="162"
       y1="386"
       x2="162"
       y2="418"
       id="line9021" />
    <line
       x1="162"
       y1="434"
       x2="162"
       y2="450"
       id="line9023" />
    <line
       x1="162"
       y1="466"
       x2="162"
       y2="482"
       id="line9025" />
    <line
       x1="178"
       y1="2"
       x2="178"
       y2="18"
       id="line9027" />
    <line
       x1="178"
       y1="50"
       x2="178"
       y2="98"
       id="line9029" />
    <line
       x1="178"
       y1="162"
       x2="178"
       y2="194"
       id="line9031" />
    <line
       x1="178"
       y1="226"
       x2="178"
       y2="258"
       id="line9033" />
    <line
       x1="178"
       y1="306"
       x2="178"
       y2="322"
       id="line9035" />
    <line
       x1="178"
       y1="386"
       x2="178"
       y2="402"
       id="line9037" />
    <line
       x1="178"
       y1="450"
       x2="178"
       y2="482"
       id="line9039" />
    <line
       x1="194"
       y1="18"
       x2="194"
       y2="34"
       id="line9041" />
    <line
       x1="194"
       y1="66"
       x2="194"
       y2="114"
       id="line9043" />
    <line
       x1="194"
       y1="146"
       x2="194"
       y2="178"
       id="line9045" />
    <line
       x1="194"
       y1="194"
       x2="194"
       y2="210"
       id="line9047" />
    <line
       x1="194"
       y1="226"
       x2="194"
       y2="258"
       id="line9049" />
    <line
       x1="194"
       y1="274"
       x2="194"
       y2="338"
       id="line9051" />
    <line
       x1="194"
       y1="354"
       x2="194"
       y2="370"
       id="line9053" />
    <line
       x1="194"
       y1="402"
       x2="194"
       y2="450"
       id="line9055" />
    <line
       x1="210"
       y1="34"
       x2="210"
       y2="50"
       id="line9057" />
    <line
       x1="210"
       y1="82"
       x2="210"
       y2="130"
       id="line9059" />
    <line
       x1="210"
       y1="162"
       x2="210"
       y2="194"
       id="line9061" />
    <line
       x1="210"
       y1="210"
       x2="210"
       y2="242"
       id="line9063" />
    <line
       x1="210"
       y1="258"
       x2="210"
       y2="274"
       id="line9065" />
    <line
       x1="210"
       y1="322"
       x2="210"
       y2="386"
       id="line9067" />
    <line
       x1="210"
       y1="418"
       x2="210"
       y2="450"
       id="line9069" />
    <line
       x1="226"
       y1="18"
       x2="226"
       y2="50"
       id="line9071" />
    <line
       x1="226"
       y1="98"
       x2="226"
       y2="114"
       id="line9073" />
    <line
       x1="226"
       y1="130"
       x2="226"
       y2="178"
       id="line9075" />
    <line
       x1="226"
       y1="226"
       x2="226"
       y2="242"
       id="line9077" />
    <line
       x1="226"
       y1="274"
       x2="226"
       y2="290"
       id="line9079" />
    <line
       x1="226"
       y1="306"
       x2="226"
       y2="338"
       id="line9081" />
    <line
       x1="226"
       y1="354"
       x2="226"
       y2="370"
       id="line9083" />
    <line
       x1="226"
       y1="402"
       x2="226"
       y2="418"
       id="line9085" />
    <line
       x1="226"
       y1="466"
       x2="226"
       y2="482"
       id="line9087" />
    <line
       x1="242"
       y1="34"
       x2="242"
       y2="50"
       id="line9089" />
    <line
       x1="242"
       y1="66"
       x2="242"
       y2="98"
       id="line9091" />
    <line
       x1="242"
       y1="114"
       x2="242"
       y2="162"
       id="line9093" />
    <line
       x1="242"
       y1="210"
       x2="242"
       y2="242"
       id="line9095" />
    <line
       x1="242"
       y1="354"
       x2="242"
       y2="434"
       id="line9097" />
    <line
       x1="242"
       y1="450"
       x2="242"
       y2="466"
       id="line9099" />
    <line
       x1="258"
       y1="18"
       x2="258"
       y2="34"
       id="line9101" />
    <line
       x1="258"
       y1="66"
       x2="258"
       y2="82"
       id="line9103" />
    <line
       x1="258"
       y1="114"
       x2="258"
       y2="130"
       id="line9105" />
    <line
       x1="258"
       y1="162"
       x2="258"
       y2="194"
       id="line9107" />
    <line
       x1="258"
       y1="226"
       x2="258"
       y2="258"
       id="line9109" />
    <line
       x1="258"
       y1="338"
       x2="258"
       y2="354"
       id="line9111" />
    <line
       x1="258"
       y1="402"
       x2="258"
       y2="450"
       id="line9113" />
    <line
       x1="258"
       y1="466"
       x2="258"
       y2="482"
       id="line9115" />
    <line
       x1="274"
       y1="2"
       x2="274"
       y2="34"
       id="line9117" />
    <line
       x1="274"
       y1="50"
       x2="274"
       y2="66"
       id="line9119" />
    <line
       x1="274"
       y1="98"
       x2="274"
       y2="114"
       id="line9121" />
    <line
       x1="274"
       y1="130"
       x2="274"
       y2="194"
       id="line9123" />
    <line
       x1="274"
       y1="210"
       x2="274"
       y2="242"
       id="line9125" />
    <line
       x1="274"
       y1="258"
       x2="274"
       y2="274"
       id="line9127" />
    <line
       x1="274"
       y1="290"
       x2="274"
       y2="402"
       id="line9129" />
    <line
       x1="274"
       y1="450"
       x2="274"
       y2="466"
       id="line9131" />
    <line
       x1="290"
       y1="66"
       x2="290"
       y2="98"
       id="line9133" />
    <line
       x1="290"
       y1="114"
       x2="290"
       y2="130"
       id="line9135" />
    <line
       x1="290"
       y1="162"
       x2="290"
       y2="178"
       id="line9137" />
    <line
       x1="290"
       y1="194"
       x2="290"
       y2="226"
       id="line9139" />
    <line
       x1="290"
       y1="274"
       x2="290"
       y2="290"
       id="line9141" />
    <line
       x1="290"
       y1="306"
       x2="290"
       y2="322"
       id="line9143" />
    <line
       x1="290"
       y1="338"
       x2="290"
       y2="354"
       id="line9145" />
    <line
       x1="290"
       y1="370"
       x2="290"
       y2="386"
       id="line9147" />
    <line
       x1="290"
       y1="402"
       x2="290"
       y2="450"
       id="line9149" />
    <line
       x1="290"
       y1="466"
       x2="290"
       y2="482"
       id="line9151" />
    <line
       x1="306"
       y1="18"
       x2="306"
       y2="98"
       id="line9153" />
    <line
       x1="306"
       y1="130"
       x2="306"
       y2="162"
       id="line9155" />
    <line
       x1="306"
       y1="178"
       x2="306"
       y2="194"
       id="line9157" />
    <line
       x1="306"
       y1="226"
       x2="306"
       y2="274"
       id="line9159" />
    <line
       x1="306"
       y1="322"
       x2="306"
       y2="338"
       id="line9161" />
    <line
       x1="306"
       y1="370"
       x2="306"
       y2="402"
       id="line9163" />
    <line
       x1="306"
       y1="450"
       x2="306"
       y2="466"
       id="line9165" />
    <line
       x1="322"
       y1="98"
       x2="322"
       y2="130"
       id="line9167" />
    <line
       x1="322"
       y1="146"
       x2="322"
       y2="162"
       id="line9169" />
    <line
       x1="322"
       y1="194"
       x2="322"
       y2="226"
       id="line9171" />
    <line
       x1="322"
       y1="242"
       x2="322"
       y2="258"
       id="line9173" />
    <line
       x1="322"
       y1="274"
       x2="322"
       y2="370"
       id="line9175" />
    <line
       x1="322"
       y1="434"
       x2="322"
       y2="466"
       id="line9177" />
    <line
       x1="338"
       y1="34"
       x2="338"
       y2="50"
       id="line9179" />
    <line
       x1="338"
       y1="66"
       x2="338"
       y2="82"
       id="line9181" />
    <line
       x1="338"
       y1="98"
       x2="338"
       y2="114"
       id="line9183" />
    <line
       x1="338"
       y1="130"
       x2="338"
       y2="146"
       id="line9185" />
    <line
       x1="338"
       y1="162"
       x2="338"
       y2="194"
       id="line9187" />
    <line
       x1="338"
       y1="210"
       x2="338"
       y2="226"
       id="line9189" />
    <line
       x1="338"
       y1="258"
       x2="338"
       y2="274"
       id="line9191" />
    <line
       x1="338"
       y1="306"
       x2="338"
       y2="354"
       id="line9193" />
    <line
       x1="338"
       y1="386"
       x2="338"
       y2="402"
       id="line9195" />
    <line
       x1="338"
       y1="418"
       x2="338"
       y2="450"
       id="line9197" />
    <line
       x1="338"
       y1="466"
       x2="338"
       y2="482"
       id="line9199" />
    <line
       x1="354"
       y1="18"
       x2="354"
       y2="34"
       id="line9201" />
    <line
       x1="354"
       y1="50"
       x2="354"
       y2="66"
       id="line9203" />
    <line
       x1="354"
       y1="114"
       x2="354"
       y2="130"
       id="line9205" />
    <line
       x1="354"
       y1="146"
       x2="354"
       y2="162"
       id="line9207" />
    <line
       x1="354"
       y1="178"
       x2="354"
       y2="210"
       id="line9209" />
    <line
       x1="354"
       y1="290"
       x2="354"
       y2="322"
       id="line9211" />
    <line
       x1="354"
       y1="370"
       x2="354"
       y2="386"
       id="line9213" />
    <line
       x1="354"
       y1="434"
       x2="354"
       y2="466"
       id="line9215" />
    <line
       x1="370"
       y1="50"
       x2="370"
       y2="114"
       id="line9217" />
    <line
       x1="370"
       y1="130"
       x2="370"
       y2="162"
       id="line9219" />
    <line
       x1="370"
       y1="178"
       x2="370"
       y2="194"
       id="line9221" />
    <line
       x1="370"
       y1="210"
       x2="370"
       y2="242"
       id="line9223" />
    <line
       x1="370"
       y1="322"
       x2="370"
       y2="338"
       id="line9225" />
    <line
       x1="370"
       y1="354"
       x2="370"
       y2="450"
       id="line9227" />
    <line
       x1="370"
       y1="466"
       x2="370"
       y2="482"
       id="line9229" />
    <line
       x1="386"
       y1="2"
       x2="386"
       y2="50"
       id="line9231" />
    <line
       x1="386"
       y1="66"
       x2="386"
       y2="98"
       id="line9233" />
    <line
       x1="386"
       y1="162"
       x2="386"
       y2="178"
       id="line9235" />
    <line
       x1="386"
       y1="194"
       x2="386"
       y2="226"
       id="line9237" />
    <line
       x1="386"
       y1="242"
       x2="386"
       y2="290"
       id="line9239" />
    <line
       x1="386"
       y1="306"
       x2="386"
       y2="322"
       id="line9241" />
    <line
       x1="386"
       y1="338"
       x2="386"
       y2="418"
       id="line9243" />
    <line
       x1="402"
       y1="50"
       x2="402"
       y2="82"
       id="line9245" />
    <line
       x1="402"
       y1="98"
       x2="402"
       y2="114"
       id="line9247" />
    <line
       x1="402"
       y1="178"
       x2="402"
       y2="210"
       id="line9249" />
    <line
       x1="402"
       y1="242"
       x2="402"
       y2="274"
       id="line9251" />
    <line
       x1="402"
       y1="290"
       x2="402"
       y2="306"
       id="line9253" />
    <line
       x1="402"
       y1="370"
       x2="402"
       y2="482"
       id="line9255" />
    <line
       x1="418"
       y1="66"
       x2="418"
       y2="82"
       id="line9257" />
    <line
       x1="418"
       y1="114"
       x2="418"
       y2="178"
       id="line9259" />
    <line
       x1="418"
       y1="258"
       x2="418"
       y2="290"
       id="line9261" />
    <line
       x1="418"
       y1="306"
       x2="418"
       y2="338"
       id="line9263" />
    <line
       x1="418"
       y1="354"
       x2="418"
       y2="386"
       id="line9265" />
    <line
       x1="418"
       y1="402"
       x2="418"
       y2="418"
       id="line9267" />
    <line
       x1="418"
       y1="450"
       x2="418"
       y2="466"
       id="line9269" />
    <line
       x1="434"
       y1="18"
       x2="434"
       y2="34"
       id="line9271" />
    <line
       x1="434"
       y1="50"
       x2="434"
       y2="66"
       id="line9273" />
    <line
       x1="434"
       y1="98"
       x2="434"
       y2="130"
       id="line9275" />
    <line
       x1="434"
       y1="162"
       x2="434"
       y2="194"
       id="line9277" />
    <line
       x1="434"
       y1="226"
       x2="434"
       y2="258"
       id="line9279" />
    <line
       x1="434"
       y1="274"
       x2="434"
       y2="306"
       id="line9281" />
    <line
       x1="434"
       y1="338"
       x2="434"
       y2="354"
       id="line9283" />
    <line
       x1="434"
       y1="370"
       x2="434"
       y2="402"
       id="line9285" />
    <line
       x1="434"
       y1="418"
       x2="434"
       y2="450"
       id="line9287" />
    <line
       x1="450"
       y1="34"
       x2="450"
       y2="66"
       id="line9289" />
    <line
       x1="450"
       y1="82"
       x2="450"
       y2="178"
       id="line9291" />
    <line
       x1="450"
       y1="194"
       x2="450"
       y2="242"
       id="line9293" />
    <line
       x1="450"
       y1="258"
       x2="450"
       y2="274"
       id="line9295" />
    <line
       x1="450"
       y1="322"
       x2="450"
       y2="338"
       id="line9297" />
    <line
       x1="450"
       y1="354"
       x2="450"
       y2="370"
       id="line9299" />
    <line
       x1="450"
       y1="402"
       x2="450"
       y2="418"
       id="line9301" />
    <line
       x1="466"
       y1="18"
       x2="466"
       y2="82"
       id="line9303" />
    <line
       x1="466"
       y1="146"
       x2="466"
       y2="162"
       id="line9305" />
    <line
       x1="466"
       y1="178"
       x2="466"
       y2="194"
       id="line9307" />
    <line
       x1="466"
       y1="242"
       x2="466"
       y2="338"
       id="line9309" />
    <line
       x1="466"
       y1="354"
       x2="466"
       y2="370"
       id="line9311" />
    <line
       x1="466"
       y1="402"
       x2="466"
       y2="482"
       id="line9313" />
    <line
       x1="482"
       y1="2"
       x2="482"
       y2="482"
       id="line9315" />
  </g>
  <path
     style="fill:none;stroke:#000000;stroke-width:2;stroke-linecap:butt;stroke-linejoin:miter;stroke-opacity:1;stroke-miterlimit:4;stroke-dasharray:none"
     d="m 226,2 h 16"
     id="path9789" />
  <path
     style="fill:none;stroke:#000000;stroke-width:1px;stroke-linecap:butt;stroke-linejoin:miter;stroke-opacity:1"
     d="m 242,482 h 16"
     id="path9791" />
</svg>
