<?xml version="1.0" encoding="UTF-8" standalone="no"?>
<svg
   width="244"
   height="244"
   version="1.1"
   id="svg240"
   sodipodi:docname="maze6.svg"
   inkscape:version="1.1.2 (0a00cf5339, 2022-02-04)"
   inkscape:export-filename="/home/nitron/ALSAI/worlds/pics/maze6.png"
   inkscape:export-xdpi="96.199997"
   inkscape:export-ydpi="96.199997"
   xmlns:inkscape="http://www.inkscape.org/namespaces/inkscape"
   xmlns:sodipodi="http://sodipodi.sourceforge.net/DTD/sodipodi-0.dtd"
   xmlns="http://www.w3.org/2000/svg"
   xmlns:svg="http://www.w3.org/2000/svg">
  <defs
     id="defs244" />
  <sodipodi:namedview
     id="namedview242"
     pagecolor="#ffffff"
     bordercolor="#666666"
     borderopacity="1.0"
     inkscape:pageshadow="2"
     inkscape:pageopacity="0.0"
     inkscape:pagecheckerboard="0"
     showgrid="false"
     inkscape:zoom="9.783576"
     inkscape:cx="108.90701"
     inkscape:cy="10.272318"
     inkscape:window-width="1858"
     inkscape:window-height="1016"
     inkscape:window-x="1982"
     inkscape:window-y="27"
     inkscape:window-maximized="1"
     inkscape:current-layer="g238" />
  <title
     id="title2">15 by 15 orthogonal maze</title>
  <desc
     id="desc4">15 by 15 orthogonal maze generated by The Maze Generator Website (https://www.mazegenerator.net/).</desc>
  <g
     fill="none"
     stroke="#000000"
     stroke-width="2"
     stroke-linecap="square"
     id="g238">
    <line
       x1="2"
       y1="2"
       x2="130"
       y2="2"
       id="line6"
       style="stroke-width:2.13809" />
    <line
       x1="130"
       y1="2"
       x2="242"
       y2="2"
       id="line8" />
    <line
       x1="50"
       y1="18"
       x2="66"
       y2="18"
       id="line10" />
    <line
       x1="114"
       y1="18"
       x2="162"
       y2="18"
       id="line12" />
    <line
       x1="194"
       y1="18"
       x2="210"
       y2="18"
       id="line14" />
    <line
       x1="2"
       y1="34"
       x2="50"
       y2="34"
       id="line16" />
    <line
       x1="98"
       y1="34"
       x2="114"
       y2="34"
       id="line18" />
    <line
       x1="130"
       y1="34"
       x2="146"
       y2="34"
       id="line20" />
    <line
       x1="178"
       y1="34"
       x2="194"
       y2="34"
       id="line22" />
    <line
       x1="210"
       y1="34"
       x2="226"
       y2="34"
       id="line24" />
    <line
       x1="50"
       y1="50"
       x2="66"
       y2="50"
       id="line26" />
    <line
       x1="82"
       y1="50"
       x2="98"
       y2="50"
       id="line28" />
    <line
       x1="146"
       y1="50"
       x2="162"
       y2="50"
       id="line30" />
    <line
       x1="178"
       y1="50"
       x2="210"
       y2="50"
       id="line32" />
    <line
       x1="226"
       y1="50"
       x2="242"
       y2="50"
       id="line34" />
    <line
       x1="66"
       y1="66"
       x2="82"
       y2="66"
       id="line36" />
    <line
       x1="98"
       y1="66"
       x2="114"
       y2="66"
       id="line38" />
    <line
       x1="130"
       y1="66"
       x2="146"
       y2="66"
       id="line40" />
    <line
       x1="162"
       y1="66"
       x2="178"
       y2="66"
       id="line42" />
    <line
       x1="194"
       y1="66"
       x2="226"
       y2="66"
       id="line44" />
    <line
       x1="82"
       y1="82"
       x2="130"
       y2="82"
       id="line46" />
    <line
       x1="146"
       y1="82"
       x2="162"
       y2="82"
       id="line48" />
    <line
       x1="178"
       y1="82"
       x2="194"
       y2="82"
       id="line50" />
    <line
       x1="226"
       y1="82"
       x2="242"
       y2="82"
       id="line52" />
    <line
       x1="18"
       y1="98"
       x2="82"
       y2="98"
       id="line54" />
    <line
       x1="114"
       y1="98"
       x2="146"
       y2="98"
       id="line56" />
    <line
       x1="162"
       y1="98"
       x2="178"
       y2="98"
       id="line58" />
    <line
       x1="194"
       y1="98"
       x2="226"
       y2="98"
       id="line60" />
    <line
       x1="2"
       y1="114"
       x2="50"
       y2="114"
       id="line62" />
    <line
       x1="66"
       y1="114"
       x2="82"
       y2="114"
       id="line64" />
    <line
       x1="98"
       y1="114"
       x2="114"
       y2="114"
       id="line66" />
    <line
       x1="130"
       y1="114"
       x2="162"
       y2="114"
       id="line68" />
    <line
       x1="178"
       y1="114"
       x2="210"
       y2="114"
       id="line70" />
    <line
       x1="50"
       y1="130"
       x2="66"
       y2="130"
       id="line72" />
    <line
       x1="82"
       y1="130"
       x2="98"
       y2="130"
       id="line74" />
    <line
       x1="162"
       y1="130"
       x2="194"
       y2="130"
       id="line76" />
    <line
       x1="210"
       y1="130"
       x2="226"
       y2="130"
       id="line78" />
    <line
       x1="34"
       y1="146"
       x2="82"
       y2="146"
       id="line80" />
    <line
       x1="114"
       y1="146"
       x2="162"
       y2="146"
       id="line82" />
    <line
       x1="178"
       y1="146"
       x2="210"
       y2="146"
       id="line84" />
    <line
       x1="2"
       y1="162"
       x2="34"
       y2="162"
       id="line86" />
    <line
       x1="66"
       y1="162"
       x2="130"
       y2="162"
       id="line88" />
    <line
       x1="162"
       y1="162"
       x2="178"
       y2="162"
       id="line90" />
    <line
       x1="98"
       y1="178"
       x2="162"
       y2="178"
       id="line92" />
    <line
       x1="178"
       y1="178"
       x2="194"
       y2="178"
       id="line94" />
    <line
       x1="226"
       y1="178"
       x2="242"
       y2="178"
       id="line96" />
    <line
       x1="18"
       y1="194"
       x2="82"
       y2="194"
       id="line98" />
    <line
       x1="98"
       y1="194"
       x2="130"
       y2="194"
       id="line100" />
    <line
       x1="162"
       y1="194"
       x2="178"
       y2="194"
       id="line102" />
    <line
       x1="194"
       y1="194"
       x2="226"
       y2="194"
       id="line104" />
    <line
       x1="2"
       y1="210"
       x2="34"
       y2="210"
       id="line106" />
    <line
       x1="50"
       y1="210"
       x2="82"
       y2="210"
       id="line108" />
    <line
       x1="146"
       y1="210"
       x2="242"
       y2="210"
       id="line110" />
    <line
       x1="18"
       y1="226"
       x2="50"
       y2="226"
       id="line112" />
    <line
       x1="66"
       y1="226"
       x2="98"
       y2="226"
       id="line114" />
    <line
       x1="162"
       y1="226"
       x2="194"
       y2="226"
       id="line116" />
    <line
       x1="2"
       y1="242"
       x2="130"
       y2="242"
       id="line118"
       style="stroke-width:2.13809" />
    <line
       x1="130"
       y1="242"
       x2="242"
       y2="242"
       id="line120" />
    <line
       x1="2"
       y1="2"
       x2="2"
       y2="242"
       id="line122" />
    <line
       x1="18"
       y1="2"
       x2="18"
       y2="18"
       id="line124" />
    <line
       x1="18"
       y1="50"
       x2="18"
       y2="98"
       id="line126" />
    <line
       x1="18"
       y1="130"
       x2="18"
       y2="162"
       id="line128" />
    <line
       x1="18"
       y1="178"
       x2="18"
       y2="194"
       id="line130" />
    <line
       x1="34"
       y1="18"
       x2="34"
       y2="82"
       id="line132" />
    <line
       x1="34"
       y1="130"
       x2="34"
       y2="146"
       id="line134" />
    <line
       x1="34"
       y1="162"
       x2="34"
       y2="178"
       id="line136" />
    <line
       x1="50"
       y1="50"
       x2="50"
       y2="98"
       id="line138" />
    <line
       x1="50"
       y1="114"
       x2="50"
       y2="130"
       id="line140" />
    <line
       x1="50"
       y1="146"
       x2="50"
       y2="194"
       id="line142" />
    <line
       x1="50"
       y1="210"
       x2="50"
       y2="242"
       id="line144" />
    <line
       x1="66"
       y1="18"
       x2="66"
       y2="50"
       id="line146" />
    <line
       x1="66"
       y1="82"
       x2="66"
       y2="98"
       id="line148" />
    <line
       x1="66"
       y1="162"
       x2="66"
       y2="178"
       id="line150" />
    <line
       x1="82"
       y1="2"
       x2="82"
       y2="82"
       id="line152" />
    <line
       x1="82"
       y1="98"
       x2="82"
       y2="146"
       id="line154" />
    <line
       x1="82"
       y1="162"
       x2="82"
       y2="210"
       id="line156" />
    <line
       x1="98"
       y1="18"
       x2="98"
       y2="34"
       id="line158" />
    <line
       x1="98"
       y1="82"
       x2="98"
       y2="98"
       id="line160" />
    <line
       x1="98"
       y1="146"
       x2="98"
       y2="162"
       id="line162" />
    <line
       x1="98"
       y1="178"
       x2="98"
       y2="226"
       id="line164" />
    <line
       x1="114"
       y1="18"
       x2="114"
       y2="66"
       id="line166" />
    <line
       x1="114"
       y1="114"
       x2="114"
       y2="146"
       id="line168" />
    <line
       x1="114"
       y1="210"
       x2="114"
       y2="242"
       id="line170" />
    <line
       x1="130"
       y1="34"
       x2="130"
       y2="98"
       id="line172" />
    <line
       x1="130"
       y1="114"
       x2="130"
       y2="130"
       id="line174" />
    <line
       x1="130"
       y1="146"
       x2="130"
       y2="162"
       id="line176" />
    <line
       x1="130"
       y1="194"
       x2="130"
       y2="242"
       id="line178" />
    <line
       x1="146"
       y1="130"
       x2="146"
       y2="146"
       id="line180" />
    <line
       x1="146"
       y1="162"
       x2="146"
       y2="178"
       id="line182" />
    <line
       x1="146"
       y1="194"
       x2="146"
       y2="226"
       id="line184" />
    <line
       x1="162"
       y1="2"
       x2="162"
       y2="50"
       id="line186" />
    <line
       x1="162"
       y1="66"
       x2="162"
       y2="98"
       id="line188" />
    <line
       x1="162"
       y1="114"
       x2="162"
       y2="130"
       id="line190" />
    <line
       x1="162"
       y1="146"
       x2="162"
       y2="162"
       id="line192" />
    <line
       x1="162"
       y1="178"
       x2="162"
       y2="194"
       id="line194" />
    <line
       x1="162"
       y1="226"
       x2="162"
       y2="242"
       id="line196" />
    <line
       x1="178"
       y1="18"
       x2="178"
       y2="34"
       id="line198" />
    <line
       x1="178"
       y1="50"
       x2="178"
       y2="66"
       id="line200" />
    <line
       x1="178"
       y1="82"
       x2="178"
       y2="114"
       id="line202" />
    <line
       x1="178"
       y1="130"
       x2="178"
       y2="146"
       id="line204" />
    <line
       x1="178"
       y1="162"
       x2="178"
       y2="178"
       id="line206" />
    <line
       x1="194"
       y1="18"
       x2="194"
       y2="34"
       id="line208" />
    <line
       x1="194"
       y1="146"
       x2="194"
       y2="162"
       id="line210" />
    <line
       x1="194"
       y1="178"
       x2="194"
       y2="194"
       id="line212" />
    <line
       x1="210"
       y1="2"
       x2="210"
       y2="18"
       id="line214" />
    <line
       x1="210"
       y1="34"
       x2="210"
       y2="50"
       id="line216" />
    <line
       x1="210"
       y1="66"
       x2="210"
       y2="98"
       id="line218" />
    <line
       x1="210"
       y1="114"
       x2="210"
       y2="130"
       id="line220" />
    <line
       x1="210"
       y1="146"
       x2="210"
       y2="194"
       id="line222" />
    <line
       x1="210"
       y1="226"
       x2="210"
       y2="242"
       id="line224" />
    <line
       x1="226"
       y1="18"
       x2="226"
       y2="34"
       id="line226" />
    <line
       x1="226"
       y1="50"
       x2="226"
       y2="66"
       id="line228" />
    <line
       x1="226"
       y1="98"
       x2="226"
       y2="114"
       id="line230" />
    <line
       x1="226"
       y1="130"
       x2="226"
       y2="178"
       id="line232" />
    <line
       x1="226"
       y1="210"
       x2="226"
       y2="226"
       id="line234" />
    <line
       x1="242"
       y1="2"
       x2="242"
       y2="242"
       id="line236" />
  </g>
</svg>
