<?xml version="1.0" encoding="UTF-8" standalone="no"?>
<svg
   width="324"
   height="324"
   version="1.1"
   id="svg765"
   sodipodi:docname="maze4.svg"
   inkscape:version="1.1.2 (0a00cf5339, 2022-02-04)"
   inkscape:export-filename="/home/nitron/ALSAI/worlds/pics/maze4.png"
   inkscape:export-xdpi="96"
   inkscape:export-ydpi="96"
   xmlns:inkscape="http://www.inkscape.org/namespaces/inkscape"
   xmlns:sodipodi="http://sodipodi.sourceforge.net/DTD/sodipodi-0.dtd"
   xmlns="http://www.w3.org/2000/svg"
   xmlns:svg="http://www.w3.org/2000/svg">
  <defs
     id="defs769" />
  <sodipodi:namedview
     id="namedview767"
     pagecolor="#ffffff"
     bordercolor="#666666"
     borderopacity="1.0"
     inkscape:pageshadow="2"
     inkscape:pageopacity="0.0"
     inkscape:pagecheckerboard="0"
     showgrid="false"
     inkscape:zoom="2.4907407"
     inkscape:cx="120.24536"
     inkscape:cy="207.36803"
     inkscape:window-width="1858"
     inkscape:window-height="1016"
     inkscape:window-x="1982"
     inkscape:window-y="27"
     inkscape:window-maximized="1"
     inkscape:current-layer="g763" />
  <title
     id="title413">20 by 20 orthogonal maze</title>
  <desc
     id="desc415">20 by 20 orthogonal maze generated by The Maze Generator Website (https://www.mazegenerator.net/).</desc>
  <g
     fill="none"
     stroke="#000000"
     stroke-width="2"
     stroke-linecap="square"
     id="g763">
    <line
       x1="2"
       y1="2"
       x2="162"
       y2="2"
       id="line417"
       style="stroke-width:2.10819" />
    <line
       x1="162"
       y1="2"
       x2="322"
       y2="2"
       id="line419" />
    <line
       x1="162"
       y1="18"
       x2="178"
       y2="18"
       id="line425" />
    <line
       x1="274"
       y1="18"
       x2="290"
       y2="18"
       id="line429" />
    <line
       x1="33.742424"
       y1="34"
       x2="81.257599"
       y2="34"
       id="line433"
       style="stroke-width:1.72328" />
    <line
       x1="290"
       y1="34"
       x2="306"
       y2="34"
       id="line443" />
    <line
       x1="50.656857"
       y1="66"
       x2="66.504753"
       y2="66"
       id="line455"
       style="stroke-width:1.40748" />
    <line
       x1="126.47655"
       y1="66"
       x2="194.29358"
       y2="66"
       id="line457"
       style="stroke-width:1.68098" />
    <line
       x1="2"
       y1="153.18657"
       x2="18"
       y2="153.18657"
       id="line471" />
    <line
       x1="98"
       y1="98"
       x2="146"
       y2="98"
       id="line475" />
    <line
       x1="178"
       y1="98"
       x2="194"
       y2="98"
       id="line477" />
    <line
       x1="18"
       y1="114"
       x2="34"
       y2="114"
       id="line483" />
    <line
       x1="130"
       y1="130"
       x2="194"
       y2="130"
       id="line495" />
    <line
       x1="226"
       y1="130"
       x2="274"
       y2="130"
       id="line497" />
    <line
       x1="64.9533"
       y1="177.62637"
       x2="96.9533"
       y2="177.62637"
       id="line511" />
    <line
       x1="226"
       y1="178"
       x2="242"
       y2="178"
       id="line521" />
    <line
       x1="177.79926"
       y1="188.29546"
       x2="225.79926"
       y2="188.29546"
       id="line531"
       style="stroke-width:1.814;stroke-miterlimit:4;stroke-dasharray:none" />
    <line
       x1="66"
       y1="210"
       x2="82"
       y2="210"
       id="line535" />
    <line
       x1="177.89528"
       y1="210"
       x2="249.51723"
       y2="210"
       id="line539"
       style="stroke-width:1.89238" />
    <line
       x1="4.3825836"
       y1="242"
       x2="34"
       y2="242"
       id="line549"
       style="stroke-width:2.72109" />
    <line
       x1="131.41084"
       y1="258"
       x2="161.16039"
       y2="258"
       id="line563"
       style="stroke-width:2.72716" />
    <line
       x1="194"
       y1="274"
       x2="226"
       y2="274"
       id="line573"
       style="stroke-width:1.63299" />
    <line
       x1="258"
       y1="274"
       x2="290"
       y2="274"
       id="line575" />
    <line
       x1="82.430649"
       y1="290"
       x2="128.21138"
       y2="290"
       id="line579"
       style="stroke-width:2.39219" />
    <line
       x1="162"
       y1="290"
       x2="194"
       y2="290"
       id="line581" />
    <line
       x1="2"
       y1="322"
       x2="322"
       y2="322"
       id="line591" />
    <line
       x1="2"
       y1="2"
       x2="2"
       y2="322"
       id="line593" />
    <line
       x1="18"
       y1="113.41429"
       x2="18"
       y2="153.18657"
       id="line599"
       style="stroke-width:1.28731" />
    <line
       x1="34"
       y1="2"
       x2="34"
       y2="34"
       id="line605" />
    <line
       x1="34"
       y1="96.704025"
       x2="34"
       y2="114.44558"
       id="line609"
       style="stroke-width:1.48919" />
    <line
       x1="34"
       y1="241.94954"
       x2="34"
       y2="286.84781"
       id="line613"
       style="stroke-width:1.4983" />
    <line
       x1="47.346893"
       y1="287.31454"
       x2="47.346893"
       y2="321.37201"
       id="line615"
       style="stroke-width:2.91794" />
    <line
       x1="50"
       y1="33.660686"
       x2="50"
       y2="65.37368"
       id="line617"
       style="stroke-width:1.62565" />
    <line
       x1="82.430649"
       y1="258"
       x2="82.430649"
       y2="290"
       id="line629"
       style="stroke-width:2.82843" />
    <line
       x1="82"
       y1="163.09944"
       x2="82"
       y2="210"
       id="line637"
       style="stroke-width:1.7121" />
    <line
       x1="96.9533"
       y1="177.62637"
       x2="96.9533"
       y2="289.62637"
       id="line645" />
    <line
       x1="130"
       y1="130"
       x2="130"
       y2="194"
       id="line663" />
    <line
       x1="130"
       y1="225.8344"
       x2="130"
       y2="290.14359"
       id="line665"
       style="stroke-width:1.79317" />
    <line
       x1="162"
       y1="2"
       x2="162"
       y2="18"
       id="line673" />
    <line
       x1="162"
       y1="258"
       x2="162"
       y2="290"
       id="line681"
       style="stroke-width:1.41421" />
    <line
       x1="178"
       y1="3.8890152"
       x2="178"
       y2="34"
       id="line683"
       style="stroke-width:2.74367" />
    <line
       x1="178"
       y1="189.17477"
       x2="178"
       y2="226"
       id="line685"
       style="stroke-width:2.1455" />
    <line
       x1="194"
       y1="66"
       x2="194"
       y2="98"
       id="line693" />
    <line
       x1="194"
       y1="274"
       x2="194"
       y2="290"
       id="line699"
       style="stroke-width:1.41421" />
    <line
       x1="226"
       y1="177.7406"
       x2="226"
       y2="188.40245"
       id="line711"
       style="stroke-width:1.26937;stroke-miterlimit:4;stroke-dasharray:none" />
    <line
       x1="226"
       y1="273.56586"
       x2="226"
       y2="291.67285"
       id="line715"
       style="stroke-width:1.50445" />
    <line
       x1="237.8578"
       y1="32.61195"
       x2="237.8578"
       y2="80.611946"
       id="line719" />
    <line
       x1="258"
       y1="98"
       x2="258"
       y2="130"
       id="line727" />
    <line
       x1="249.51723"
       y1="210"
       x2="249.51723"
       y2="226"
       id="line731" />
    <line
       x1="258"
       y1="258"
       x2="258"
       y2="274"
       id="line733" />
    <line
       x1="274"
       y1="130"
       x2="274"
       y2="226"
       id="line741" />
    <line
       x1="290"
       y1="2"
       x2="290"
       y2="82"
       id="line745" />
    <line
       x1="290"
       y1="273.80435"
       x2="290"
       y2="295.55264"
       id="line749"
       style="stroke-width:1.6488" />
    <line
       x1="322"
       y1="2"
       x2="322"
       y2="322"
       id="line761" />
    <path
       style="fill:none;stroke:#000000;stroke-width:1px;stroke-linecap:butt;stroke-linejoin:miter;stroke-opacity:1"
       d="m 43.508507,160.22783 24.00061,-27.12321"
       id="path943" />
    <path
       style="fill:none;stroke:#000000;stroke-width:1px;stroke-linecap:butt;stroke-linejoin:miter;stroke-opacity:1"
       d="m 274.16983,173.04107 21.76864,0.27035"
       id="path1039" />
    <path
       style="fill:none;stroke:#000000;stroke-width:1px;stroke-linecap:butt;stroke-linejoin:miter;stroke-opacity:1"
       d="m 321.97945,113.00777 -1.50971,-0.21924 -20.4812,0.32174"
       id="path1041" />
    <path
       style="fill:none;stroke:#000000;stroke-width:1px;stroke-linecap:butt;stroke-linejoin:miter;stroke-opacity:1"
       d="m 321.65134,249.17649 -21.60846,-0.11774"
       id="path1043" />
    <path
       style="fill:none;stroke:#000000;stroke-width:1px;stroke-linecap:butt;stroke-linejoin:miter;stroke-opacity:1"
       d="m 194,130 0.28439,23.96743 H 177.0966"
       id="path1045" />
    <path
       style="fill:none;stroke:#000000;stroke-width:1px;stroke-linecap:butt;stroke-linejoin:miter;stroke-opacity:1"
       d="M 2.7640176,67.912152 15.533156,67.700375"
       id="path1047" />
    <path
       style="fill:none;stroke:#000000;stroke-width:1px;stroke-linecap:butt;stroke-linejoin:miter;stroke-opacity:1"
       d="m 119.1379,3.3137939 0.0294,19.7323001 9.27903,-0.04949"
       id="path1049" />
    <path
       style="fill:none;stroke:#000000;stroke-width:1px;stroke-linecap:butt;stroke-linejoin:miter;stroke-opacity:1"
       d="m 212.00331,3.4827806 v 1.3797562 l 0.004,13.7714412"
       id="path1051" />
    <path
       style="fill:none;stroke:#000000;stroke-width:1px;stroke-linecap:butt;stroke-linejoin:miter;stroke-opacity:1"
       d="m 194,98 20.48316,-0.494168 1.77669,-16.284902 21.59795,-0.608984"
       id="path1053" />
    <path
       style="fill:none;stroke:#000000;stroke-width:1px;stroke-linecap:butt;stroke-linejoin:miter;stroke-opacity:1"
       d="m 144.13133,321.03006 0.13286,-10.55355"
       id="path1055" />
    <path
       style="fill:none;stroke:#000000;stroke-width:1px;stroke-linecap:butt;stroke-linejoin:miter;stroke-opacity:1"
       d="m 34,286.84781 13.346893,0.46673"
       id="path1057" />
    <path
       style="fill:none;stroke:#000000;stroke-width:1px;stroke-linecap:butt;stroke-linejoin:miter;stroke-opacity:1"
       d="m 2.8076829,198.68891 20.0011631,0.46944"
       id="path1059" />
    <path
       style="fill:none;stroke:#000000;stroke-width:1px;stroke-linecap:butt;stroke-linejoin:miter;stroke-opacity:1"
       d="m 82,210 15.439159,0.37987"
       id="path1061" />
  </g>
</svg>
